PowerhouseFilarMono-Regular.ufo
<glyph name="exclam" format="2">
  <advance width="600"/>
  <unicode hex="0021"/>
  <outline>
    <contour>
      <point x="352" y="700" type="line"/>
      <point x="248" y="700" type="line"/>
      <point x="271" y="227" type="line"/>
      <point x="329" y="227" type="line"/>
    </contour>
    <component base="period" identifier="DDD8E773"/>
  </outline>
</glyph>
<glyph name="quotedbl" format="2">
  <advance width="600"/>
  <unicode hex="0022"/>
  <outline>
    <contour>
      <point x="151" y="700" type="line"/>
      <point x="176" y="384" type="line"/>
      <point x="250" y="384" type="line"/>
      <point x="275" y="700" type="line"/>
    </contour>
    <contour>
      <point x="325" y="700" type="line"/>
      <point x="350" y="384" type="line"/>
      <point x="424" y="384" type="line"/>
      <point x="449" y="700" type="line"/>
    </contour>
  </outline>
</glyph>
<glyph name="numbersign" format="2">
  <advance width="600"/>
  <unicode hex="0023"/>
  <guideline x="286" y="0" angle="76.6592"/>
  <outline>
    <contour>
      <point x="319" y="700" type="line"/>
      <point x="240" y="700" type="line"/>
      <point x="74" y="0" type="line"/>
      <point x="153" y="0" type="line"/>
    </contour>
    <contour>
      <point x="574" y="507" type="line"/>
      <point x="71" y="507" type="line"/>
      <point x="71" y="435" type="line"/>
      <point x="574" y="435" type="line"/>
    </contour>
    <contour>
      <point x="526" y="700" type="line"/>
      <point x="447" y="700" type="line"/>
      <point x="281" y="0" type="line"/>
      <point x="360" y="0" type="line"/>
    </contour>
    <contour>
      <point x="529" y="293" type="line"/>
      <point x="26" y="293" type="line"/>
      <point x="26" y="221" type="line"/>
      <point x="529" y="221" type="line"/>
    </contour>
  </outline>
</glyph>
<glyph name="dollar" format="2">
  <advance width="600"/>
  <unicode hex="0024"/>
  <outline>
    <contour>
      <point x="70" y="191" type="curve"/>
      <point x="159" y="184" type="line"/>
      <point x="169" y="115"/>
      <point x="221" y="64"/>
      <point x="312" y="64" type="curve" smooth="yes"/>
      <point x="397" y="64"/>
      <point x="447" y="110"/>
      <point x="447" y="185" type="curve" smooth="yes"/>
      <point x="447" y="256"/>
      <point x="402" y="286"/>
      <point x="335" y="305" type="curve" smooth="yes"/>
      <point x="269" y="324" type="line" smooth="yes"/>
      <point x="156" y="357"/>
      <point x="87" y="407"/>
      <point x="87" y="513" type="curve" smooth="yes"/>
      <point x="87" y="623"/>
      <point x="169" y="712"/>
      <point x="297" y="712" type="curve" smooth="yes"/>
      <point x="430" y="712"/>
      <point x="504" y="614"/>
      <point x="513" y="530" type="curve"/>
      <point x="427" y="536" type="line"/>
      <point x="419" y="591"/>
      <point x="375" y="636"/>
      <point x="296" y="636" type="curve" smooth="yes"/>
      <point x="219" y="636"/>
      <point x="168" y="586"/>
      <point x="168" y="518" type="curve" smooth="yes"/>
      <point x="168" y="458"/>
      <point x="208" y="428"/>
      <point x="290" y="404" type="curve" smooth="yes"/>
      <point x="356" y="385" type="line" smooth="yes"/>
      <point x="470" y="352"/>
      <point x="530" y="293"/>
      <point x="530" y="191" type="curve" smooth="yes"/>
      <point x="530" y="82"/>
      <point x="454" y="-12"/>
      <point x="313" y="-12" type="curve" smooth="yes"/>
      <point x="160" y="-12"/>
      <point x="80" y="87"/>
    </contour>
    <contour>
      <point x="266" y="-112" type="line"/>
      <point x="266" y="353" type="line"/>
      <point x="269" y="384" type="line"/>
      <point x="269" y="797" type="line"/>
      <point x="337" y="797" type="line"/>
      <point x="337" y="366" type="line"/>
      <point x="334" y="342" type="line"/>
      <point x="334" y="-112" type="line"/>
    </contour>
  </outline>
</glyph>
<glyph name="ampersand" format="2">
  <advance width="600"/>
  <unicode hex="0026"/>
  <outline>
    <contour>
      <point x="247" y="347" type="curve"/>
      <point x="224" y="411" type="line"/>
      <point x="101" y="360"/>
      <point x="36" y="295"/>
      <point x="36" y="191" type="curve" smooth="yes"/>
      <point x="36" y="69"/>
      <point x="129" y="-12"/>
      <point x="261" y="-12" type="curve" smooth="yes"/>
      <point x="425" y="-12"/>
      <point x="543" y="133"/>
      <point x="574" y="344" type="curve"/>
      <point x="495" y="355" type="line"/>
      <point x="466" y="169"/>
      <point x="380" y="66"/>
      <point x="268" y="66" type="curve" smooth="yes"/>
      <point x="181" y="66"/>
      <point x="128" y="117"/>
      <point x="128" y="194" type="curve" smooth="yes"/>
      <point x="128" y="264"/>
      <point x="168" y="316"/>
    </contour>
    <contour>
      <point x="597" y="0" type="line"/>
      <point x="249" y="425" type="line" smooth="yes"/>
      <point x="225" y="454"/>
      <point x="198" y="494"/>
      <point x="198" y="542" type="curve" smooth="yes"/>
      <point x="198" y="598"/>
      <point x="227" y="638"/>
      <point x="284" y="638" type="curve" smooth="yes"/>
      <point x="335" y="638"/>
      <point x="362" y="599"/>
      <point x="362" y="549" type="curve" smooth="yes"/>
      <point x="362" y="489"/>
      <point x="333" y="453"/>
      <point x="237" y="411" type="curve"/>
      <point x="259" y="350" type="line"/>
      <point x="377" y="398"/>
      <point x="443" y="453"/>
      <point x="443" y="549" type="curve" smooth="yes"/>
      <point x="443" y="639"/>
      <point x="381" y="712"/>
      <point x="284" y="712" type="curve" smooth="yes"/>
      <point x="179" y="712"/>
      <point x="112" y="636"/>
      <point x="112" y="542" type="curve" smooth="yes"/>
      <point x="112" y="470"/>
      <point x="151" y="412"/>
      <point x="183" y="374" type="curve" smooth="yes"/>
      <point x="491" y="0" type="line"/>
    </contour>
  </outline>
</glyph>
<glyph name="quotesingle" format="2">
  <advance width="600"/>
  <unicode hex="0027"/>
  <outline>
    <contour>
      <point x="238" y="700" type="line"/>
      <point x="263" y="384" type="line"/>
      <point x="337" y="384" type="line"/>
      <point x="362" y="700" type="line"/>
    </contour>
  </outline>
</glyph>
<glyph name="parenright" format="2">
  <advance width="600"/>
  <unicode hex="0029"/>
  <outline>
    <contour>
      <point x="347" y="316" type="curve" smooth="yes"/>
      <point x="348" y="472"/>
      <point x="270" y="620"/>
      <point x="114" y="745" type="curve"/>
      <point x="218" y="745" type="line"/>
      <point x="364" y="630"/>
      <point x="442" y="472"/>
      <point x="442" y="316" type="curve" smooth="yes"/>
      <point x="442" y="160"/>
      <point x="364" y="2"/>
      <point x="218" y="-113" type="curve"/>
      <point x="114" y="-113" type="line"/>
      <point x="270" y="12"/>
      <point x="348" y="160"/>
    </contour>
  </outline>
</glyph>
<glyph name="asterisk" format="2">
  <advance width="600"/>
  <unicode hex="002A"/>
  <outline>
    <contour>
      <point x="144" y="327" type="line"/>
      <point x="200" y="285" type="line"/>
      <point x="300" y="422" type="line"/>
      <point x="400" y="285" type="line"/>
      <point x="456" y="327" type="line"/>
      <point x="356" y="463" type="line"/>
      <point x="518" y="515" type="line"/>
      <point x="497" y="582" type="line"/>
      <point x="335" y="530" type="line"/>
      <point x="334" y="700" type="line"/>
      <point x="264" y="700" type="line"/>
      <point x="265" y="530" type="line"/>
      <point x="103" y="581" type="line"/>
      <point x="82" y="514" type="line"/>
      <point x="244" y="463" type="line"/>
    </contour>
  </outline>
</glyph>
<glyph name="hyphen" format="2">
  <advance width="600"/>
  <unicode hex="002D"/>
  <outline>
    <contour>
      <point x="147" y="257" type="line"/>
      <point x="453" y="257" type="line"/>
      <point x="453" y="335" type="line"/>
      <point x="147" y="335" type="line"/>
    </contour>
  </outline>
</glyph>
<glyph name="period" format="2">
  <advance width="600"/>
  <unicode hex="002E"/>
  <outline>
    <contour>
      <point x="237" y="149" type="line"/>
      <point x="237" y="0" type="line"/>
      <point x="363" y="0" type="line"/>
      <point x="363" y="149" type="line"/>
    </contour>
  </outline>
</glyph>
<glyph name="slash" format="2">
  <advance width="600"/>
  <unicode hex="002F"/>
  <outline>
    <contour>
      <point x="456" y="745" type="line"/>
      <point x="28" y="-113" type="line"/>
      <point x="119" y="-113" type="line"/>
      <point x="547" y="745" type="line"/>
    </contour>
  </outline>
</glyph>
<glyph name="five" format="2">
  <advance width="600"/>
  <unicode hex="0035"/>
  <outline>
    <contour>
      <point x="67" y="202" type="line"/>
      <point x="75" y="63"/>
      <point x="176" y="-12"/>
      <point x="304" y="-12" type="curve" smooth="yes"/>
      <point x="449" y="-12"/>
      <point x="549" y="81"/>
      <point x="549" y="231" type="curve" smooth="yes"/>
      <point x="549" y="383"/>
      <point x="450" y="466"/>
      <point x="333" y="466" type="curve" smooth="yes"/>
      <point x="241" y="466"/>
      <point x="171" y="414"/>
      <point x="154" y="358" type="curve"/>
      <point x="177" y="358" type="line"/>
      <point x="205" y="660" type="line"/>
      <point x="157" y="621" type="line"/>
      <point x="521" y="621" type="line"/>
      <point x="521" y="700" type="line"/>
      <point x="129" y="700" type="line"/>
      <point x="95" y="314" type="line"/>
      <point x="174" y="304" type="line"/>
      <point x="194" y="349"/>
      <point x="245" y="395"/>
      <point x="316" y="395" type="curve" smooth="yes"/>
      <point x="393" y="395"/>
      <point x="457" y="341"/>
      <point x="457" y="231" type="curve" smooth="yes"/>
      <point x="457" y="120"/>
      <point x="399" y="61"/>
      <point x="305" y="61" type="curve" smooth="yes"/>
      <point x="216" y="61"/>
      <point x="165" y="118"/>
      <point x="162" y="190" type="curve"/>
    </contour>
  </outline>
</glyph>
<glyph name="six" format="2">
  <advance width="600"/>
  <unicode hex="0036"/>
  <outline>
    <contour>
      <point x="309" y="-12" type="curve" smooth="yes"/>
      <point x="458" y="-12"/>
      <point x="545" y="97"/>
      <point x="545" y="228" type="curve" smooth="yes"/>
      <point x="545" y="378"/>
      <point x="447" y="468"/>
      <point x="328" y="468" type="curve" smooth="yes"/>
      <point x="234" y="468"/>
      <point x="146" y="409"/>
      <point x="130" y="305" type="curve"/>
      <point x="157" y="305" type="line"/>
      <point x="157" y="369" type="line" smooth="yes"/>
      <point x="157" y="526"/>
      <point x="237" y="637"/>
      <point x="342" y="637" type="curve" smooth="yes"/>
      <point x="406" y="637"/>
      <point x="447" y="595"/>
      <point x="451" y="544" type="curve"/>
      <point x="541" y="530" type="line"/>
      <point x="535" y="623"/>
      <point x="472" y="712"/>
      <point x="346" y="712" type="curve" smooth="yes"/>
      <point x="192" y="712"/>
      <point x="65" y="579"/>
      <point x="65" y="331" type="curve" smooth="yes"/>
      <point x="65" y="221"/>
      <point x="80" y="148"/>
      <point x="118" y="90" type="curve" smooth="yes"/>
      <point x="161" y="22"/>
      <point x="234" y="-12"/>
    </contour>
    <contour>
      <point x="309" y="64" type="curve" smooth="yes"/>
      <point x="225" y="64"/>
      <point x="162" y="131"/>
      <point x="162" y="228" type="curve" smooth="yes"/>
      <point x="162" y="324"/>
      <point x="225" y="392"/>
      <point x="309" y="392" type="curve" smooth="yes"/>
      <point x="394" y="392"/>
      <point x="455" y="323"/>
      <point x="455" y="226" type="curve" smooth="yes"/>
      <point x="455" y="128"/>
      <point x="392" y="64"/>
    </contour>
  </outline>
</glyph>
<glyph name="greater" format="2">
  <advance width="600"/>
  <unicode hex="003E"/>
  <outline>
    <contour>
      <point x="528" y="383" type="line"/>
      <point x="528" y="297" type="line"/>
      <point x="72" y="76" type="line"/>
      <point x="72" y="165" type="line"/>
      <point x="466" y="355" type="line"/>
      <point x="466" y="326" type="line"/>
      <point x="72" y="516" type="line"/>
      <point x="72" y="604" type="line"/>
    </contour>
  </outline>
</glyph>
<glyph name="at" format="2">
  <advance width="600"/>
  <unicode hex="0040"/>
  <guideline x="373" y="451" angle="84.5226" identifier="S8zHDTG0d0"/>
  <outline>
    <contour>
      <point x="23" y="224" type="curve" smooth="yes"/>
      <point x="23" y="1"/>
      <point x="141" y="-130"/>
      <point x="319" y="-130" type="curve" smooth="yes"/>
      <point x="382" y="-130"/>
      <point x="438" y="-112"/>
      <point x="487" y="-78" type="curve"/>
      <point x="454" y="-25" type="line"/>
      <point x="411" y="-54"/>
      <point x="370" y="-66"/>
      <point x="318" y="-66" type="curve" smooth="yes"/>
      <point x="183" y="-66"/>
      <point x="93" y="42"/>
      <point x="93" y="224" type="curve" smooth="yes"/>
      <point x="93" y="440"/>
      <point x="186" y="572"/>
      <point x="323" y="572" type="curve" smooth="yes"/>
      <point x="420" y="572"/>
      <point x="507" y="498"/>
      <point x="507" y="306" type="curve" smooth="yes"/>
      <point x="507" y="189"/>
      <point x="483" y="124"/>
      <point x="445" y="124" type="curve" smooth="yes"/>
      <point x="421" y="124"/>
      <point x="411" y="142"/>
      <point x="415" y="179" type="curve" smooth="yes"/>
      <point x="444" y="451" type="line"/>
      <point x="373" y="451" type="line"/>
      <point x="369" y="407" type="line"/>
      <point x="356" y="440"/>
      <point x="325" y="457"/>
      <point x="293" y="457" type="curve" smooth="yes"/>
      <point x="230" y="457"/>
      <point x="166" y="400"/>
      <point x="152" y="272" type="curve" smooth="yes"/>
      <point x="136" y="122"/>
      <point x="197" y="52"/>
      <point x="267" y="52" type="curve" smooth="yes"/>
      <point x="302" y="52"/>
      <point x="333" y="70"/>
      <point x="353" y="108" type="curve"/>
      <point x="363" y="77"/>
      <point x="393" y="52"/>
      <point x="434" y="52" type="curve" smooth="yes"/>
      <point x="522" y="52"/>
      <point x="577" y="158"/>
      <point x="577" y="306" type="curve" smooth="yes"/>
      <point x="577" y="538"/>
      <point x="456" y="636"/>
      <point x="323" y="636" type="curve" smooth="yes"/>
      <point x="149" y="636"/>
      <point x="23" y="485"/>
    </contour>
    <contour>
      <point x="354" y="250" type="curve" smooth="yes"/>
      <point x="344" y="155"/>
      <point x="319" y="118"/>
      <point x="281" y="118" type="curve" smooth="yes"/>
      <point x="234" y="118"/>
      <point x="218" y="174"/>
      <point x="228" y="260" type="curve" smooth="yes"/>
      <point x="238" y="354"/>
      <point x="268" y="391"/>
      <point x="304" y="391" type="curve" smooth="yes"/>
      <point x="348" y="391"/>
      <point x="363" y="334"/>
    </contour>
  </outline>
</glyph>
<glyph name="A" format="2">
  <advance width="600"/>
  <unicode hex="0041"/>
  <outline>
    <contour>
      <point x="250" y="700" type="line"/>
      <point x="22" y="0" type="line"/>
      <point x="116" y="0" type="line"/>
      <point x="316" y="631" type="line"/>
      <point x="287" y="631" type="line"/>
      <point x="485" y="0" type="line"/>
      <point x="578" y="0" type="line"/>
      <point x="352" y="700" type="line"/>
    </contour>
    <contour>
      <point x="132" y="289" type="line"/>
      <point x="135" y="210" type="line"/>
      <point x="474" y="210" type="line"/>
      <point x="474" y="289" type="line"/>
    </contour>
  </outline>
</glyph>
<glyph name="B" format="2">
  <advance width="600"/>
  <unicode hex="0042"/>
  <guideline x="276" y="844" angle="90" name="center" identifier="BKswK0rJPd"/>
  <outline>
    <contour>
      <point x="82" y="700" type="line"/>
      <point x="82" y="0" type="line"/>
      <point x="172" y="0" type="line"/>
      <point x="172" y="700" type="line"/>
    </contour>
    <contour>
      <point x="343" y="0" type="line"/>
      <point x="474" y="0"/>
      <point x="558" y="87"/>
      <point x="558" y="199" type="curve" smooth="yes"/>
      <point x="558" y="294"/>
      <point x="497" y="349"/>
      <point x="436" y="373" type="curve"/>
      <point x="436" y="356" type="line"/>
      <point x="492" y="374"/>
      <point x="543" y="430"/>
      <point x="543" y="513" type="curve" smooth="yes"/>
      <point x="543" y="623"/>
      <point x="463" y="700"/>
      <point x="343" y="700" type="curve" smooth="yes"/>
      <point x="117" y="700" type="line"/>
      <point x="117" y="620" type="line"/>
      <point x="336" y="620" type="line" smooth="yes"/>
      <point x="409" y="620"/>
      <point x="455" y="576"/>
      <point x="455" y="510" type="curve" smooth="yes"/>
      <point x="455" y="444"/>
      <point x="413" y="399"/>
      <point x="340" y="399" type="curve" smooth="yes"/>
      <point x="116" y="399" type="line"/>
      <point x="116" y="320" type="line"/>
      <point x="337" y="320" type="line" smooth="yes"/>
      <point x="411" y="320"/>
      <point x="467" y="277"/>
      <point x="467" y="200" type="curve" smooth="yes"/>
      <point x="467" y="125"/>
      <point x="415" y="80"/>
      <point x="337" y="80" type="curve" smooth="yes"/>
      <point x="117" y="80" type="line"/>
      <point x="117" y="0" type="line"/>
    </contour>
  </outline>
</glyph>
<glyph name="C" format="2">
  <advance width="600"/>
  <unicode hex="0043"/>
  <guideline x="319" y="712" angle="90" name="center" identifier="wyEB7JCgE5"/>
  <outline>
    <contour>
      <point x="50" y="350" type="curve" smooth="yes"/>
      <point x="50" y="136"/>
      <point x="159" y="-12"/>
      <point x="317" y="-12" type="curve" smooth="yes"/>
      <point x="444" y="-12"/>
      <point x="523" y="81"/>
      <point x="555" y="211" type="curve"/>
      <point x="476" y="236" type="line"/>
      <point x="451" y="143"/>
      <point x="405" y="69"/>
      <point x="317" y="69" type="curve" smooth="yes"/>
      <point x="207" y="69"/>
      <point x="142" y="181"/>
      <point x="142" y="350" type="curve" smooth="yes"/>
      <point x="142" y="519"/>
      <point x="207" y="631"/>
      <point x="317" y="631" type="curve" smooth="yes"/>
      <point x="405" y="631"/>
      <point x="450" y="560"/>
      <point x="475" y="467" type="curve"/>
      <point x="554" y="491" type="line"/>
      <point x="520" y="620"/>
      <point x="442" y="712"/>
      <point x="317" y="712" type="curve" smooth="yes"/>
      <point x="159" y="712"/>
      <point x="50" y="564"/>
    </contour>
  </outline>
</glyph>
<glyph name="D" format="2">
  <advance width="600"/>
  <unicode hex="0044"/>
  <outline>
    <contour>
      <point x="101" y="82" type="line"/>
      <point x="101" y="0" type="line"/>
      <point x="255" y="0" type="line" smooth="yes"/>
      <point x="454" y="0"/>
      <point x="556" y="149"/>
      <point x="556" y="350" type="curve" smooth="yes"/>
      <point x="556" y="551"/>
      <point x="454" y="700"/>
      <point x="255" y="700" type="curve" smooth="yes"/>
      <point x="100" y="700" type="line"/>
      <point x="100" y="618" type="line"/>
      <point x="248" y="618" type="line" smooth="yes"/>
      <point x="399" y="618"/>
      <point x="464" y="516"/>
      <point x="464" y="350" type="curve" smooth="yes"/>
      <point x="464" y="184"/>
      <point x="399" y="82"/>
      <point x="248" y="82" type="curve" smooth="yes"/>
    </contour>
    <contour>
      <point x="67" y="0" type="line"/>
      <point x="158" y="0" type="line"/>
      <point x="158" y="700" type="line"/>
      <point x="67" y="700" type="line"/>
    </contour>
  </outline>
</glyph>
<glyph name="E" format="2">
  <advance width="600"/>
  <unicode hex="0045"/>
  <outline>
    <contour>
      <point x="102" y="700" type="line"/>
      <point x="102" y="0" type="line"/>
      <point x="193" y="0" type="line"/>
      <point x="193" y="700" type="line"/>
    </contour>
    <contour>
      <point x="137" y="618" type="line"/>
      <point x="533" y="618" type="line"/>
      <point x="533" y="700" type="line"/>
      <point x="137" y="700" type="line"/>
    </contour>
    <contour>
      <point x="147" y="315" type="line"/>
      <point x="395" y="315" type="line"/>
      <point x="395" y="396" type="line"/>
      <point x="147" y="396" type="line"/>
    </contour>
    <contour>
      <point x="141" y="0" type="line"/>
      <point x="551" y="0" type="line"/>
      <point x="551" y="82" type="line"/>
      <point x="141" y="82" type="line"/>
    </contour>
  </outline>
</glyph>
<glyph name="F" format="2">
  <advance width="600"/>
  <unicode hex="0046"/>
  <outline>
    <contour>
      <point x="107" y="700" type="line"/>
      <point x="107" y="0" type="line"/>
      <point x="198" y="0" type="line"/>
      <point x="198" y="700" type="line"/>
    </contour>
    <contour>
      <point x="142" y="618" type="line"/>
      <point x="558" y="618" type="line"/>
      <point x="558" y="700" type="line"/>
      <point x="142" y="700" type="line"/>
    </contour>
    <contour>
      <point x="152" y="306" type="line"/>
      <point x="489" y="306" type="line"/>
      <point x="489" y="388" type="line"/>
      <point x="152" y="388" type="line"/>
    </contour>
  </outline>
</glyph>
<glyph name="G" format="2">
  <advance width="600"/>
  <unicode hex="0047"/>
  <guideline x="315" y="824" angle="90" name="center" identifier="CBCv3dGvBo"/>
  <outline>
    <contour>
      <point x="307" y="712" type="curve" smooth="yes"/>
      <point x="146" y="712"/>
      <point x="38" y="564"/>
      <point x="38" y="350" type="curve" smooth="yes"/>
      <point x="38" y="136"/>
      <point x="138" y="-12"/>
      <point x="297" y="-12" type="curve" smooth="yes"/>
      <point x="399" y="-12"/>
      <point x="465" y="50"/>
      <point x="500" y="144" type="curve"/>
      <point x="474" y="144" type="line"/>
      <point x="474" y="0" type="line"/>
      <point x="549" y="0" type="line"/>
      <point x="549" y="367" type="line"/>
      <point x="339" y="367" type="line"/>
      <point x="339" y="294" type="line"/>
      <point x="519" y="294" type="line"/>
      <point x="473" y="311" type="line"/>
      <point x="473" y="290" type="line" smooth="yes"/>
      <point x="473" y="159"/>
      <point x="415" y="67"/>
      <point x="310" y="67" type="curve" smooth="yes"/>
      <point x="194" y="67"/>
      <point x="130" y="181"/>
      <point x="130" y="350" type="curve" smooth="yes"/>
      <point x="130" y="519"/>
      <point x="194" y="631"/>
      <point x="307" y="631" type="curve" smooth="yes"/>
      <point x="398" y="631"/>
      <point x="440" y="558"/>
      <point x="461" y="480" type="curve"/>
      <point x="542" y="502" type="line"/>
      <point x="512" y="620"/>
      <point x="433" y="712"/>
    </contour>
  </outline>
</glyph>
<glyph name="H" format="2">
  <advance width="600"/>
  <unicode hex="0048"/>
  <outline>
    <contour>
      <point x="114" y="320" type="line"/>
      <point x="487" y="320" type="line"/>
      <point x="487" y="402" type="line"/>
      <point x="114" y="402" type="line"/>
    </contour>
    <contour>
      <point x="442" y="700" type="line"/>
      <point x="442" y="0" type="line"/>
      <point x="533" y="0" type="line"/>
      <point x="533" y="700" type="line"/>
    </contour>
    <contour>
      <point x="67" y="700" type="line"/>
      <point x="67" y="0" type="line"/>
      <point x="158" y="0" type="line"/>
      <point x="158" y="700" type="line"/>
    </contour>
  </outline>
</glyph>
<glyph name="I" format="2">
  <advance width="600"/>
  <unicode hex="0049"/>
  <outline>
    <contour>
      <point x="75" y="82" type="line"/>
      <point x="75" y="0" type="line"/>
      <point x="526" y="0" type="line"/>
      <point x="526" y="82" type="line"/>
    </contour>
    <contour>
      <point x="75" y="700" type="line"/>
      <point x="75" y="618" type="line"/>
      <point x="526" y="618" type="line"/>
      <point x="526" y="700" type="line"/>
    </contour>
    <contour>
      <point x="255" y="700" type="line"/>
      <point x="255" y="0" type="line"/>
      <point x="346" y="0" type="line"/>
      <point x="346" y="700" type="line"/>
    </contour>
  </outline>
</glyph>
<glyph name="J" format="2">
  <advance width="600"/>
  <unicode hex="004A"/>
  <guideline x="468" y="700" angle="90" name="center" identifier="KvoJXLkZyT"/>
  <outline>
    <contour>
      <point x="295" y="69" type="curve" smooth="yes"/>
      <point x="213" y="69"/>
      <point x="150" y="113"/>
      <point x="148" y="229" type="curve"/>
      <point x="52" y="239" type="line"/>
      <point x="53" y="79"/>
      <point x="150" y="-12"/>
      <point x="296" y="-12" type="curve" smooth="yes"/>
      <point x="443" y="-12"/>
      <point x="525" y="79"/>
      <point x="525" y="222" type="curve" smooth="yes"/>
      <point x="525" y="700" type="line"/>
      <point x="435" y="700" type="line"/>
      <point x="435" y="226" type="line" smooth="yes"/>
      <point x="435" y="128"/>
      <point x="392" y="69"/>
    </contour>
  </outline>
</glyph>
<glyph name="K" format="2">
  <advance width="600"/>
  <unicode hex="004B"/>
  <guideline x="308" y="883" angle="90" name="center" identifier="l3KzSnhke8"/>
  <outline>
    <contour>
      <point x="129" y="296" type="line"/>
      <point x="129" y="179" type="line"/>
      <point x="259" y="335" type="line"/>
      <point x="285" y="359" type="line"/>
      <point x="570" y="700" type="line"/>
      <point x="458" y="700" type="line"/>
    </contour>
    <contour>
      <point x="78" y="700" type="line"/>
      <point x="78" y="0" type="line"/>
      <point x="169" y="0" type="line"/>
      <point x="169" y="700" type="line"/>
    </contour>
    <contour>
      <point x="218" y="350" type="line"/>
      <point x="497" y="0" type="line"/>
      <point x="609" y="0" type="line"/>
      <point x="275" y="416" type="line"/>
    </contour>
  </outline>
</glyph>
<glyph name="L" format="2">
  <advance width="600"/>
  <unicode hex="004C"/>
  <guideline x="142" y="700" angle="90" name="acute" identifier="KFz4Fh0o4a"/>
  <outline>
    <contour>
      <point x="132" y="82" type="line"/>
      <point x="132" y="0" type="line"/>
      <point x="541" y="0" type="line"/>
      <point x="541" y="82" type="line"/>
    </contour>
    <contour>
      <point x="97" y="700" type="line"/>
      <point x="97" y="0" type="line"/>
      <point x="188" y="0" type="line"/>
      <point x="188" y="700" type="line"/>
    </contour>
  </outline>
</glyph>
<glyph name="M" format="2">
  <advance width="600"/>
  <unicode hex="004D"/>
  <outline>
    <contour>
      <point x="128" y="621" type="line"/>
      <point x="285" y="230" type="line"/>
      <point x="315" y="230" type="line"/>
      <point x="475" y="622" type="line"/>
      <point x="453" y="622" type="line"/>
      <point x="453" y="0" type="line"/>
      <point x="539" y="0" type="line"/>
      <point x="539" y="700" type="line"/>
      <point x="423" y="700" type="line"/>
      <point x="284" y="353" type="line"/>
      <point x="316" y="353" type="line"/>
      <point x="177" y="700" type="line"/>
      <point x="61" y="700" type="line"/>
      <point x="61" y="0" type="line"/>
      <point x="148" y="0" type="line"/>
      <point x="148" y="621" type="line"/>
    </contour>
  </outline>
</glyph>
<glyph name="N" format="2">
  <advance width="600"/>
  <unicode hex="004E"/>
  <outline>
    <contour>
      <point x="499" y="40" type="line"/>
      <point x="199" y="700" type="line"/>
      <point x="67" y="700" type="line"/>
      <point x="67" y="0" type="line"/>
      <point x="154" y="0" type="line"/>
      <point x="154" y="657" type="line"/>
      <point x="127" y="657" type="line"/>
      <point x="425" y="0" type="line"/>
      <point x="533" y="0" type="line"/>
      <point x="533" y="700" type="line"/>
      <point x="446" y="700" type="line"/>
      <point x="446" y="40" type="line"/>
    </contour>
  </outline>
</glyph>
<glyph name="O" format="2">
  <advance width="600"/>
  <unicode hex="004F"/>
  <outline>
    <contour>
      <point x="300" y="712" type="curve" smooth="yes"/>
      <point x="145" y="712"/>
      <point x="38" y="564"/>
      <point x="38" y="350" type="curve" smooth="yes"/>
      <point x="38" y="136"/>
      <point x="145" y="-12"/>
      <point x="300" y="-12" type="curve" smooth="yes"/>
      <point x="455" y="-12"/>
      <point x="562" y="136"/>
      <point x="562" y="350" type="curve" smooth="yes"/>
      <point x="562" y="564"/>
      <point x="455" y="712"/>
    </contour>
    <contour>
      <point x="300" y="69" type="curve" smooth="yes"/>
      <point x="193" y="69"/>
      <point x="130" y="181"/>
      <point x="130" y="350" type="curve" smooth="yes"/>
      <point x="130" y="519"/>
      <point x="193" y="631"/>
      <point x="300" y="631" type="curve" smooth="yes"/>
      <point x="407" y="631"/>
      <point x="470" y="519"/>
      <point x="470" y="350" type="curve" smooth="yes"/>
      <point x="470" y="181"/>
      <point x="407" y="69"/>
    </contour>
  </outline>
</glyph>
<glyph name="P" format="2">
  <advance width="600"/>
  <unicode hex="0050"/>
  <guideline x="334" y="700" angle="90" name="center" identifier="DliRjF6wWD"/>
  <outline>
    <contour>
      <point x="90" y="700" type="line"/>
      <point x="90" y="0" type="line"/>
      <point x="181" y="0" type="line"/>
      <point x="181" y="700" type="line"/>
    </contour>
    <contour>
      <point x="354" y="619" type="line"/>
      <point x="434" y="619"/>
      <point x="481" y="586"/>
      <point x="481" y="510" type="curve" smooth="yes"/>
      <point x="481" y="434"/>
      <point x="433" y="397"/>
      <point x="354" y="397" type="curve" smooth="yes"/>
      <point x="132" y="397" type="line"/>
      <point x="132" y="316" type="line"/>
      <point x="361" y="316" type="line" smooth="yes"/>
      <point x="485" y="316"/>
      <point x="573" y="394"/>
      <point x="573" y="510" type="curve" smooth="yes"/>
      <point x="573" y="626"/>
      <point x="484" y="700"/>
      <point x="360" y="700" type="curve" smooth="yes"/>
      <point x="133" y="700" type="line"/>
      <point x="133" y="619" type="line"/>
    </contour>
  </outline>
</glyph>
<glyph name="Q" format="2">
  <advance width="600"/>
  <unicode hex="0051"/>
  <outline>
    <contour>
      <point x="265" y="-40" type="line" smooth="yes"/>
      <point x="265" y="-133"/>
      <point x="331" y="-181"/>
      <point x="416" y="-181" type="curve" smooth="yes"/>
      <point x="429" y="-181"/>
      <point x="450" y="-180"/>
      <point x="473" y="-177" type="curve"/>
      <point x="473" y="-103" type="line"/>
      <point x="459" y="-105"/>
      <point x="446" y="-106"/>
      <point x="433" y="-106" type="curve" smooth="yes"/>
      <point x="372" y="-106"/>
      <point x="355" y="-78"/>
      <point x="355" y="-27" type="curve" smooth="yes"/>
      <point x="355" y="27" type="line"/>
      <point x="265" y="27" type="line"/>
    </contour>
    <contour>
      <point x="470" y="350" type="curve" smooth="yes"/>
      <point x="470" y="181"/>
      <point x="407" y="69"/>
      <point x="300" y="69" type="curve" smooth="yes"/>
      <point x="193" y="69"/>
      <point x="130" y="181"/>
      <point x="130" y="350" type="curve" smooth="yes"/>
      <point x="130" y="519"/>
      <point x="193" y="631"/>
      <point x="300" y="631" type="curve" smooth="yes"/>
      <point x="407" y="631"/>
      <point x="470" y="519"/>
    </contour>
    <contour>
      <point x="38" y="350" type="curve" smooth="yes"/>
      <point x="38" y="136"/>
      <point x="145" y="-12"/>
      <point x="300" y="-12" type="curve" smooth="yes"/>
      <point x="455" y="-12"/>
      <point x="562" y="136"/>
      <point x="562" y="350" type="curve" smooth="yes"/>
      <point x="562" y="564"/>
      <point x="455" y="712"/>
      <point x="300" y="712" type="curve" smooth="yes"/>
      <point x="145" y="712"/>
      <point x="38" y="564"/>
    </contour>
  </outline>
</glyph>
<glyph name="R" format="2">
  <advance width="600"/>
  <unicode hex="0052"/>
  <outline>
    <contour>
      <point x="97" y="700" type="line"/>
      <point x="97" y="0" type="line"/>
      <point x="188" y="0" type="line"/>
      <point x="188" y="700" type="line"/>
    </contour>
    <contour>
      <point x="329" y="373" type="curve" smooth="yes"/>
      <point x="140" y="373" type="line"/>
      <point x="140" y="293" type="line"/>
      <point x="329" y="293" type="line" smooth="yes"/>
      <point x="464" y="293"/>
      <point x="548" y="377"/>
      <point x="548" y="496" type="curve" smooth="yes"/>
      <point x="548" y="614"/>
      <point x="462" y="700"/>
      <point x="332" y="700" type="curve" smooth="yes"/>
      <point x="145" y="700" type="line"/>
      <point x="145" y="619" type="line"/>
      <point x="329" y="619" type="line" smooth="yes"/>
      <point x="407" y="619"/>
      <point x="456" y="577"/>
      <point x="456" y="495" type="curve" smooth="yes"/>
      <point x="456" y="415"/>
      <point x="407" y="373"/>
    </contour>
    <contour>
      <point x="248" y="324" type="line"/>
      <point x="306" y="230"/>
      <point x="409" y="79"/>
      <point x="476" y="0" type="curve"/>
      <point x="578" y="0" type="line"/>
      <point x="578" y="7" type="line"/>
      <point x="513" y="82"/>
      <point x="408" y="231"/>
      <point x="349" y="324" type="curve"/>
    </contour>
  </outline>
</glyph>
<glyph name="S" format="2">
  <advance width="600"/>
  <unicode hex="0053"/>
  <guideline x="298" y="785" angle="90" name="center" identifier="CkPJthdGUn"/>
  <outline>
    <contour>
      <point x="51" y="214" type="line"/>
      <point x="59" y="81"/>
      <point x="154" y="-12"/>
      <point x="312" y="-12" type="curve" smooth="yes"/>
      <point x="461" y="-12"/>
      <point x="548" y="75"/>
      <point x="548" y="203" type="curve" smooth="yes"/>
      <point x="548" y="302"/>
      <point x="489" y="363"/>
      <point x="372" y="386" type="curve" smooth="yes"/>
      <point x="284" y="403" type="line" smooth="yes"/>
      <point x="193" y="421"/>
      <point x="156" y="453"/>
      <point x="156" y="511" type="curve" smooth="yes"/>
      <point x="156" y="584"/>
      <point x="214" y="633"/>
      <point x="297" y="633" type="curve" smooth="yes"/>
      <point x="383" y="633"/>
      <point x="432" y="579"/>
      <point x="438" y="519" type="curve"/>
      <point x="532" y="513" type="line"/>
      <point x="523" y="616"/>
      <point x="445" y="712"/>
      <point x="298" y="712" type="curve" smooth="yes"/>
      <point x="164" y="712"/>
      <point x="68" y="632"/>
      <point x="68" y="507" type="curve" smooth="yes"/>
      <point x="68" y="401"/>
      <point x="136" y="343"/>
      <point x="259" y="319" type="curve" smooth="yes"/>
      <point x="347" y="302" type="line" smooth="yes"/>
      <point x="423" y="287"/>
      <point x="459" y="253"/>
      <point x="459" y="193" type="curve" smooth="yes"/>
      <point x="459" y="114"/>
      <point x="401" y="67"/>
      <point x="311" y="67" type="curve" smooth="yes"/>
      <point x="216" y="67"/>
      <point x="154" y="120"/>
      <point x="146" y="207" type="curve"/>
    </contour>
  </outline>
</glyph>
<glyph name="T" format="2">
  <advance width="600"/>
  <unicode hex="0054"/>
  <outline>
    <contour>
      <point x="41" y="700" type="line"/>
      <point x="41" y="620" type="line"/>
      <point x="558" y="620" type="line"/>
      <point x="558" y="700" type="line"/>
    </contour>
    <contour>
      <point x="254" y="671" type="line"/>
      <point x="254" y="0" type="line"/>
      <point x="345" y="0" type="line"/>
      <point x="345" y="671" type="line"/>
    </contour>
  </outline>
</glyph>
<glyph name="U" format="2">
  <advance width="600"/>
  <unicode hex="0055"/>
  <outline>
    <contour>
      <point x="536" y="700" type="line"/>
      <point x="446" y="700" type="line"/>
      <point x="446" y="224" type="line" smooth="yes"/>
      <point x="446" y="132"/>
      <point x="395" y="71"/>
      <point x="301" y="71" type="curve" smooth="yes"/>
      <point x="207" y="71"/>
      <point x="155" y="132"/>
      <point x="155" y="224" type="curve" smooth="yes"/>
      <point x="155" y="700" type="line"/>
      <point x="64" y="700" type="line"/>
      <point x="64" y="216" type="line" smooth="yes"/>
      <point x="64" y="81"/>
      <point x="157" y="-12"/>
      <point x="301" y="-12" type="curve" smooth="yes"/>
      <point x="445" y="-12"/>
      <point x="536" y="81"/>
      <point x="536" y="216" type="curve" smooth="yes"/>
    </contour>
  </outline>
</glyph>
<glyph name="V" format="2">
  <advance width="600"/>
  <unicode hex="0056"/>
  <outline>
    <contour>
      <point x="118" y="700" type="line"/>
      <point x="22" y="700" type="line"/>
      <point x="249" y="0" type="line"/>
      <point x="351" y="0" type="line"/>
      <point x="578" y="700" type="line"/>
      <point x="485" y="700" type="line"/>
      <point x="286" y="60" type="line"/>
      <point x="317" y="60" type="line"/>
    </contour>
  </outline>
</glyph>
<glyph name="W" format="2">
  <advance width="600"/>
  <unicode hex="0057"/>
  <outline>
    <contour>
      <point x="478" y="0" type="line"/>
      <point x="585" y="700" type="line"/>
      <point x="502" y="700" type="line"/>
      <point x="408" y="36" type="line"/>
      <point x="441" y="36" type="line"/>
      <point x="351" y="520" type="line"/>
      <point x="250" y="520" type="line"/>
      <point x="162" y="36" type="line"/>
      <point x="196" y="36" type="line"/>
      <point x="98" y="700" type="line"/>
      <point x="15" y="700" type="line"/>
      <point x="123" y="0" type="line"/>
      <point x="229" y="0" type="line"/>
      <point x="314" y="467" type="line"/>
      <point x="289" y="467" type="line"/>
      <point x="375" y="0" type="line"/>
    </contour>
  </outline>
</glyph>
<glyph name="X" format="2">
  <advance width="600"/>
  <unicode hex="0058"/>
  <outline>
    <contour>
      <point x="36" y="700" type="line"/>
      <point x="257" y="344" type="line"/>
      <point x="269" y="327" type="line"/>
      <point x="475" y="0" type="line"/>
      <point x="581" y="0" type="line"/>
      <point x="331" y="394" type="line"/>
      <point x="319" y="404" type="line"/>
      <point x="141" y="700" type="line"/>
    </contour>
    <contour>
      <point x="564" y="700" type="line"/>
      <point x="463" y="700" type="line"/>
      <point x="282" y="400" type="line"/>
      <point x="260" y="387" type="line"/>
      <point x="20" y="0" type="line"/>
      <point x="123" y="0" type="line"/>
      <point x="326" y="331" type="line"/>
      <point x="348" y="346" type="line"/>
    </contour>
  </outline>
</glyph>
<glyph name="Y" format="2">
  <advance width="600"/>
  <unicode hex="0059"/>
  <outline>
    <contour>
      <point x="326" y="344" type="line"/>
      <point x="109" y="700" type="line"/>
      <point x="7" y="700" type="line"/>
      <point x="254" y="297" type="line"/>
      <point x="254" y="0" type="line"/>
      <point x="345" y="0" type="line"/>
      <point x="345" y="297" type="line"/>
      <point x="593" y="700" type="line"/>
      <point x="492" y="700" type="line"/>
      <point x="275" y="344" type="line"/>
    </contour>
  </outline>
</glyph>
<glyph name="Z" format="2">
  <advance width="600"/>
  <unicode hex="005A"/>
  <outline>
    <contour>
      <point x="65" y="0" type="line"/>
      <point x="535" y="0" type="line"/>
      <point x="535" y="82" type="line"/>
      <point x="143" y="82" type="line"/>
      <point x="143" y="27" type="line"/>
      <point x="529" y="639" type="line"/>
      <point x="529" y="700" type="line"/>
      <point x="64" y="700" type="line"/>
      <point x="64" y="618" type="line"/>
      <point x="456" y="618" type="line"/>
      <point x="441" y="658" type="line"/>
      <point x="65" y="62" type="line"/>
    </contour>
  </outline>
</glyph>
<glyph name="bracketleft" format="2">
  <advance width="600"/>
  <unicode hex="005B"/>
  <outline>
    <contour>
      <point x="247" y="-113" type="line"/>
      <point x="467" y="-113" type="line"/>
      <point x="467" y="-43" type="line"/>
      <point x="337" y="-43" type="line"/>
      <point x="337" y="675" type="line"/>
      <point x="467" y="675" type="line"/>
      <point x="467" y="745" type="line"/>
      <point x="247" y="745" type="line"/>
    </contour>
  </outline>
</glyph>
<glyph name="backslash" format="2">
  <advance width="600"/>
  <unicode hex="005C"/>
  <outline>
    <contour>
      <point x="144" y="745" type="line"/>
      <point x="572" y="-113" type="line"/>
      <point x="481" y="-113" type="line"/>
      <point x="53" y="745" type="line"/>
    </contour>
  </outline>
</glyph>
<glyph name="bracketright" format="2">
  <advance width="600"/>
  <unicode hex="005D"/>
  <outline>
    <contour>
      <point x="353" y="-113" type="line"/>
      <point x="133" y="-113" type="line"/>
      <point x="133" y="-43" type="line"/>
      <point x="263" y="-43" type="line"/>
      <point x="263" y="675" type="line"/>
      <point x="133" y="675" type="line"/>
      <point x="133" y="745" type="line"/>
      <point x="353" y="745" type="line"/>
    </contour>
  </outline>
</glyph>
<glyph name="asciicircum" format="2">
  <advance width="600"/>
  <unicode hex="005E"/>
  <outline>
    <contour>
      <point x="342" y="700" type="line"/>
      <point x="258" y="700" type="line"/>
      <point x="58" y="376" type="line"/>
      <point x="151" y="376" type="line"/>
      <point x="322" y="652" type="line"/>
      <point x="278" y="652" type="line"/>
      <point x="449" y="376" type="line"/>
      <point x="542" y="376" type="line"/>
    </contour>
  </outline>
</glyph>
<glyph name="underscore" format="2">
  <advance width="600"/>
  <unicode hex="005F"/>
  <outline>
    <contour>
      <point x="30" y="-140" type="line"/>
      <point x="570" y="-140" type="line"/>
      <point x="570" y="-70" type="line"/>
      <point x="30" y="-70" type="line"/>
    </contour>
  </outline>
</glyph>
<glyph name="b" format="2">
  <advance width="600"/>
  <unicode hex="0062"/>
  <guideline x="300" name="center" identifier="kPILcKwDzG"/>
  <outline>
    <contour>
      <point x="347" y="502" type="curve" smooth="yes"/>
      <point x="260" y="502"/>
      <point x="188" y="457"/>
      <point x="149" y="371" type="curve"/>
      <point x="178" y="371" type="line"/>
      <point x="178" y="700" type="line"/>
      <point x="90" y="700" type="line"/>
      <point x="90" y="0" type="line"/>
      <point x="178" y="0" type="line"/>
      <point x="178" y="117" type="line"/>
      <point x="149" y="117" type="line"/>
      <point x="188" y="32"/>
      <point x="260" y="-12"/>
      <point x="347" y="-12" type="curve" smooth="yes"/>
      <point x="457" y="-12"/>
      <point x="553" y="76"/>
      <point x="553" y="244" type="curve" smooth="yes"/>
      <point x="553" y="411"/>
      <point x="457" y="502"/>
    </contour>
    <contour>
      <point x="318" y="58" type="curve" smooth="yes"/>
      <point x="226" y="58"/>
      <point x="172" y="130"/>
      <point x="172" y="245" type="curve" smooth="yes"/>
      <point x="172" y="360"/>
      <point x="226" y="432"/>
      <point x="318" y="432" type="curve" smooth="yes"/>
      <point x="410" y="432"/>
      <point x="464" y="360"/>
      <point x="464" y="245" type="curve" smooth="yes"/>
      <point x="464" y="130"/>
      <point x="410" y="58"/>
    </contour>
  </outline>
</glyph>
<glyph name="c" format="2">
  <advance width="600"/>
  <unicode hex="0063"/>
  <outline>
    <contour>
      <point x="533" y="346" type="line"/>
      <point x="507" y="445"/>
      <point x="426" y="502"/>
      <point x="317" y="502" type="curve" smooth="yes"/>
      <point x="177" y="502"/>
      <point x="72" y="403"/>
      <point x="72" y="245" type="curve" smooth="yes"/>
      <point x="72" y="87"/>
      <point x="177" y="-12"/>
      <point x="317" y="-12" type="curve" smooth="yes"/>
      <point x="426" y="-12"/>
      <point x="507" y="43"/>
      <point x="533" y="142" type="curve"/>
      <point x="452" y="164" type="line"/>
      <point x="437" y="95"/>
      <point x="390" y="58"/>
      <point x="317" y="58" type="curve" smooth="yes"/>
      <point x="221" y="58"/>
      <point x="161" y="130"/>
      <point x="161" y="245" type="curve" smooth="yes"/>
      <point x="161" y="360"/>
      <point x="221" y="432"/>
      <point x="317" y="432" type="curve" smooth="yes"/>
      <point x="390" y="432"/>
      <point x="438" y="393"/>
      <point x="452" y="324" type="curve"/>
    </contour>
  </outline>
</glyph>
<glyph name="e" format="2">
  <advance width="600"/>
  <unicode hex="0065"/>
  <guideline x="282.31" y="487.52" angle="90" name="center" identifier="X8YB5FDkBU"/>
  <outline>
    <contour>
      <point x="317" y="-12" type="curve" smooth="yes"/>
      <point x="429" y="-12"/>
      <point x="507" y="48"/>
      <point x="538" y="142" type="curve"/>
      <point x="462" y="164" type="line"/>
      <point x="441" y="100"/>
      <point x="395" y="58"/>
      <point x="317" y="58" type="curve" smooth="yes"/>
      <point x="216" y="58"/>
      <point x="151" y="123"/>
      <point x="151" y="244" type="curve" smooth="yes"/>
      <point x="151" y="359"/>
      <point x="213" y="432"/>
      <point x="308" y="432" type="curve" smooth="yes"/>
      <point x="401" y="432"/>
      <point x="456" y="367"/>
      <point x="456" y="247" type="curve"/>
      <point x="478" y="292" type="line"/>
      <point x="112" y="292" type="line"/>
      <point x="112" y="226" type="line"/>
      <point x="539" y="226" type="line"/>
      <point x="539" y="242" type="line" smooth="yes"/>
      <point x="539" y="393"/>
      <point x="451" y="502"/>
      <point x="308" y="502" type="curve" smooth="yes"/>
      <point x="170" y="502"/>
      <point x="63" y="404"/>
      <point x="63" y="244" type="curve" smooth="yes"/>
      <point x="63" y="85"/>
      <point x="175" y="-12"/>
    </contour>
  </outline>
</glyph>
<glyph name="f" format="2">
  <advance width="600"/>
  <unicode hex="0066"/>
  <outline>
    <contour>
      <point x="64" y="421" type="line"/>
      <point x="532" y="421" type="line"/>
      <point x="532" y="490" type="line"/>
      <point x="64" y="490" type="line"/>
    </contour>
    <contour>
      <point x="454" y="702" type="curve" smooth="yes"/>
      <point x="321" y="702"/>
      <point x="244" y="636"/>
      <point x="244" y="522" type="curve" smooth="yes"/>
      <point x="244" y="0" type="line"/>
      <point x="333" y="0" type="line"/>
      <point x="333" y="525" type="line" smooth="yes"/>
      <point x="333" y="597"/>
      <point x="377" y="630"/>
      <point x="463" y="630" type="curve" smooth="yes"/>
      <point x="484" y="630"/>
      <point x="504" y="628"/>
      <point x="532" y="623" type="curve"/>
      <point x="532" y="693" type="line"/>
      <point x="501" y="700"/>
      <point x="477" y="702"/>
    </contour>
  </outline>
</glyph>
<glyph name="g" format="2">
  <advance width="600"/>
  <unicode hex="0067"/>
  <guideline x="284" y="598" angle="90" name="center" identifier="ldYxP6ZocU"/>
  <outline>
    <contour>
      <point x="286" y="85" type="curve" smooth="yes"/>
      <point x="196" y="85"/>
      <point x="145" y="159"/>
      <point x="145" y="259" type="curve" smooth="yes"/>
      <point x="145" y="359"/>
      <point x="196" y="432"/>
      <point x="286" y="432" type="curve" smooth="yes"/>
      <point x="377" y="432"/>
      <point x="428" y="359"/>
      <point x="428" y="259" type="curve" smooth="yes"/>
      <point x="428" y="159"/>
      <point x="377" y="85"/>
    </contour>
    <contour>
      <point x="510" y="-6" type="curve" smooth="yes"/>
      <point x="510" y="490" type="line"/>
      <point x="422" y="490" type="line"/>
      <point x="422" y="371" type="line"/>
      <point x="456" y="371" type="line"/>
      <point x="417" y="457"/>
      <point x="347" y="502"/>
      <point x="262" y="502" type="curve" smooth="yes"/>
      <point x="150" y="502"/>
      <point x="55" y="410"/>
      <point x="55" y="258" type="curve" smooth="yes"/>
      <point x="55" y="105"/>
      <point x="150" y="16"/>
      <point x="262" y="16" type="curve" smooth="yes"/>
      <point x="347" y="16"/>
      <point x="417" y="60"/>
      <point x="456" y="144" type="curve"/>
      <point x="422" y="144" type="line"/>
      <point x="422" y="-3" type="line" smooth="yes"/>
      <point x="422" y="-86"/>
      <point x="362" y="-125"/>
      <point x="288" y="-125" type="curve" smooth="yes"/>
      <point x="210" y="-125"/>
      <point x="166" y="-82"/>
      <point x="157" y="-21" type="curve"/>
      <point x="68" y="-37" type="line"/>
      <point x="84" y="-132"/>
      <point x="167" y="-192"/>
      <point x="288" y="-192" type="curve" smooth="yes"/>
      <point x="406" y="-192"/>
      <point x="510" y="-130"/>
    </contour>
  </outline>
</glyph>
<glyph name="k" format="2">
  <advance width="600"/>
  <unicode hex="006B"/>
  <outline>
    <contour>
      <point x="105" y="0" type="line"/>
      <point x="193" y="0" type="line"/>
      <point x="193" y="700" type="line"/>
      <point x="105" y="700" type="line"/>
    </contour>
    <contour>
      <point x="150" y="236" type="line"/>
      <point x="150" y="144" type="line"/>
      <point x="275" y="255" type="line"/>
      <point x="307" y="275" type="line"/>
      <point x="552" y="490" type="line"/>
      <point x="444" y="490" type="line"/>
    </contour>
    <contour>
      <point x="233" y="266" type="line"/>
      <point x="466" y="0" type="line"/>
      <point x="571" y="0" type="line"/>
      <point x="295" y="318" type="line"/>
    </contour>
  </outline>
</glyph>
<glyph name="l" format="2">
  <advance width="600"/>
  <unicode hex="006C"/>
  <outline>
    <contour>
      <point x="56" y="69" type="line"/>
      <point x="56" y="0" type="line"/>
      <point x="539" y="0" type="line"/>
      <point x="539" y="69" type="line"/>
    </contour>
    <contour>
      <point x="66" y="700" type="line"/>
      <point x="66" y="631" type="line"/>
      <point x="304" y="631" type="line"/>
      <point x="304" y="700" type="line"/>
    </contour>
    <contour>
      <point x="256" y="700" type="line"/>
      <point x="256" y="0" type="line"/>
      <point x="344" y="0" type="line"/>
      <point x="344" y="700" type="line"/>
    </contour>
  </outline>
</glyph>
<glyph name="m" format="2">
  <advance width="600"/>
  <unicode hex="006D"/>
  <outline>
    <contour>
      <point x="295" y="361" type="line"/>
      <point x="342" y="361" type="line"/>
      <point x="342" y="402"/>
      <point x="371" y="431"/>
      <point x="410" y="431" type="curve" smooth="yes"/>
      <point x="448" y="431"/>
      <point x="468" y="402"/>
      <point x="468" y="370" type="curve" smooth="yes"/>
      <point x="468" y="0" type="line"/>
      <point x="552" y="0" type="line"/>
      <point x="552" y="375" type="line" smooth="yes"/>
      <point x="552" y="444"/>
      <point x="511" y="501"/>
      <point x="441" y="501" type="curve" smooth="yes"/>
      <point x="383" y="501"/>
      <point x="329" y="461"/>
      <point x="317" y="394" type="curve"/>
      <point x="295" y="394" type="line"/>
    </contour>
    <contour>
      <point x="49" y="490" type="line"/>
      <point x="49" y="0" type="line"/>
      <point x="133" y="0" type="line"/>
      <point x="133" y="361" type="line" smooth="yes"/>
      <point x="133" y="402"/>
      <point x="161" y="431"/>
      <point x="200" y="431" type="curve" smooth="yes"/>
      <point x="238" y="431"/>
      <point x="258" y="402"/>
      <point x="258" y="370" type="curve" smooth="yes"/>
      <point x="258" y="0" type="line"/>
      <point x="342" y="0" type="line"/>
      <point x="342" y="375" type="line" smooth="yes"/>
      <point x="342" y="444"/>
      <point x="301" y="501"/>
      <point x="231" y="501" type="curve" smooth="yes"/>
      <point x="173" y="501"/>
      <point x="129" y="461"/>
      <point x="117" y="394" type="curve"/>
      <point x="133" y="394" type="line"/>
      <point x="133" y="490" type="line"/>
    </contour>
  </outline>
</glyph>
<glyph name="o" format="2">
  <advance width="600"/>
  <unicode hex="006F"/>
  <outline>
    <contour>
      <point x="300" y="-12" type="curve" smooth="yes"/>
      <point x="437" y="-12"/>
      <point x="541" y="87"/>
      <point x="541" y="245" type="curve" smooth="yes"/>
      <point x="541" y="403"/>
      <point x="437" y="502"/>
      <point x="300" y="502" type="curve" smooth="yes"/>
      <point x="163" y="502"/>
      <point x="59" y="403"/>
      <point x="59" y="245" type="curve" smooth="yes"/>
      <point x="59" y="87"/>
      <point x="163" y="-12"/>
    </contour>
    <contour>
      <point x="300" y="432" type="curve" smooth="yes"/>
      <point x="395" y="432"/>
      <point x="452" y="360"/>
      <point x="452" y="245" type="curve" smooth="yes"/>
      <point x="452" y="130"/>
      <point x="395" y="58"/>
      <point x="300" y="58" type="curve" smooth="yes"/>
      <point x="205" y="58"/>
      <point x="148" y="130"/>
      <point x="148" y="245" type="curve" smooth="yes"/>
      <point x="148" y="360"/>
      <point x="205" y="432"/>
    </contour>
  </outline>
</glyph>
<glyph name="q" format="2">
  <advance width="600"/>
  <unicode hex="0071"/>
  <outline>
    <contour>
      <point x="253" y="502" type="curve" smooth="yes"/>
      <point x="143" y="502"/>
      <point x="47" y="411"/>
      <point x="47" y="244" type="curve" smooth="yes"/>
      <point x="47" y="76"/>
      <point x="143" y="-12"/>
      <point x="253" y="-12" type="curve" smooth="yes"/>
      <point x="340" y="-12"/>
      <point x="412" y="32"/>
      <point x="451" y="117" type="curve"/>
      <point x="422" y="117" type="line"/>
      <point x="422" y="-180" type="line"/>
      <point x="510" y="-180" type="line"/>
      <point x="510" y="490" type="line"/>
      <point x="422" y="490" type="line"/>
      <point x="422" y="371" type="line"/>
      <point x="451" y="371" type="line"/>
      <point x="412" y="457"/>
      <point x="340" y="502"/>
    </contour>
    <contour>
      <point x="282" y="58" type="curve" smooth="yes"/>
      <point x="190" y="58"/>
      <point x="136" y="130"/>
      <point x="136" y="245" type="curve" smooth="yes"/>
      <point x="136" y="360"/>
      <point x="190" y="432"/>
      <point x="282" y="432" type="curve" smooth="yes"/>
      <point x="374" y="432"/>
      <point x="428" y="360"/>
      <point x="428" y="245" type="curve" smooth="yes"/>
      <point x="428" y="130"/>
      <point x="374" y="58"/>
    </contour>
  </outline>
</glyph>
<glyph name="r" format="2">
  <advance width="600"/>
  <unicode hex="0072"/>
  <guideline x="315" y="588" angle="90" name="top" identifier="sZjzReUvVY"/>
  <guideline x="184" y="-42" angle="270" name="stem" identifier="osUUiOKn5X"/>
  <outline>
    <contour>
      <point x="143" y="490" type="line"/>
      <point x="143" y="0" type="line"/>
      <point x="231" y="0" type="line"/>
      <point x="231" y="230" type="line" smooth="yes"/>
      <point x="231" y="352"/>
      <point x="316" y="422"/>
      <point x="439" y="422" type="curve" smooth="yes"/>
      <point x="474" y="422"/>
      <point x="511" y="416"/>
      <point x="548" y="397" type="curve"/>
      <point x="548" y="476" type="line"/>
      <point x="527" y="488"/>
      <point x="491" y="500"/>
      <point x="445" y="500" type="curve" smooth="yes"/>
      <point x="338" y="500"/>
      <point x="241" y="434"/>
      <point x="214" y="351" type="curve"/>
      <point x="231" y="351" type="line"/>
      <point x="231" y="490" type="line"/>
    </contour>
  </outline>
</glyph>
<glyph name="s" format="2">
  <advance width="600"/>
  <unicode hex="0073"/>
  <outline>
    <contour>
      <point x="68" y="153" type="line"/>
      <point x="74" y="59"/>
      <point x="166" y="-12"/>
      <point x="308" y="-12" type="curve" smooth="yes"/>
      <point x="441" y="-12"/>
      <point x="524" y="50"/>
      <point x="524" y="144" type="curve" smooth="yes"/>
      <point x="524" y="213"/>
      <point x="479" y="262"/>
      <point x="368" y="278" type="curve" smooth="yes"/>
      <point x="275" y="291" type="line" smooth="yes"/>
      <point x="197" y="302"/>
      <point x="168" y="318"/>
      <point x="168" y="355" type="curve" smooth="yes"/>
      <point x="168" y="401"/>
      <point x="218" y="435"/>
      <point x="296" y="435" type="curve" smooth="yes"/>
      <point x="375" y="435"/>
      <point x="423" y="400"/>
      <point x="426" y="352" type="curve"/>
      <point x="516" y="346" type="line"/>
      <point x="514" y="430"/>
      <point x="431" y="502"/>
      <point x="297" y="502" type="curve" smooth="yes"/>
      <point x="176" y="502"/>
      <point x="84" y="447"/>
      <point x="84" y="346" type="curve" smooth="yes"/>
      <point x="84" y="283"/>
      <point x="123" y="234"/>
      <point x="243" y="217" type="curve" smooth="yes"/>
      <point x="336" y="204" type="line" smooth="yes"/>
      <point x="414" y="193"/>
      <point x="437" y="169"/>
      <point x="437" y="135" type="curve" smooth="yes"/>
      <point x="437" y="88"/>
      <point x="392" y="55"/>
      <point x="309" y="55" type="curve" smooth="yes"/>
      <point x="217" y="55"/>
      <point x="169" y="93"/>
      <point x="164" y="145" type="curve"/>
    </contour>
  </outline>
</glyph>
<glyph name="v" format="2">
  <advance width="600"/>
  <unicode hex="0076"/>
  <outline>
    <contour>
      <point x="254" y="0" type="line"/>
      <point x="348" y="0" type="line"/>
      <point x="558" y="490" type="line"/>
      <point x="465" y="490" type="line"/>
      <point x="281" y="48" type="line"/>
      <point x="322" y="48" type="line"/>
      <point x="136" y="490" type="line"/>
      <point x="42" y="490" type="line"/>
    </contour>
  </outline>
</glyph>
<glyph name="x" format="2">
  <advance width="600"/>
  <unicode hex="0078"/>
  <outline>
    <contour>
      <point x="59" y="490" type="line"/>
      <point x="263" y="223" type="line"/>
      <point x="276" y="223" type="line"/>
      <point x="450" y="0" type="line"/>
      <point x="551" y="0" type="line"/>
      <point x="339" y="270" type="line"/>
      <point x="324" y="275" type="line"/>
      <point x="160" y="490" type="line"/>
    </contour>
    <contour>
      <point x="536" y="490" type="line"/>
      <point x="439" y="490" type="line"/>
      <point x="279" y="275" type="line"/>
      <point x="261" y="272" type="line"/>
      <point x="48" y="0" type="line"/>
      <point x="147" y="0" type="line"/>
      <point x="323" y="224" type="line"/>
      <point x="333" y="221" type="line"/>
    </contour>
  </outline>
</glyph>
<glyph name="y" format="2">
  <advance width="600"/>
  <unicode hex="0079"/>
  <outline>
    <contour>
      <point x="255" y="-180" type="line"/>
      <point x="563" y="490" type="line"/>
      <point x="469" y="490" type="line"/>
      <point x="275" y="57" type="line"/>
      <point x="261" y="28" type="line"/>
      <point x="162" y="-180" type="line"/>
    </contour>
    <contour>
      <point x="37" y="490" type="line"/>
      <point x="284" y="-60" type="line"/>
      <point x="329" y="47" type="line"/>
      <point x="132" y="490" type="line"/>
    </contour>
  </outline>
</glyph>
<glyph name="z" format="2">
  <advance width="600"/>
  <unicode hex="007A"/>
  <outline>
    <contour>
      <point x="83" y="60" type="line"/>
      <point x="83" y="0" type="line"/>
      <point x="515" y="0" type="line"/>
      <point x="515" y="71" type="line"/>
      <point x="135" y="71" type="line"/>
      <point x="161" y="32" type="line"/>
      <point x="512" y="438" type="line"/>
      <point x="512" y="490" type="line"/>
      <point x="82" y="490" type="line"/>
      <point x="82" y="419" type="line"/>
      <point x="465" y="419" type="line"/>
      <point x="438" y="469" type="line"/>
    </contour>
  </outline>
</glyph>
<glyph name="braceleft" format="2">
  <advance width="600"/>
  <unicode hex="007B"/>
  <outline>
    <contour>
      <point x="337" y="172" type="line"/>
      <point x="337" y="251"/>
      <point x="324" y="296"/>
      <point x="261" y="316" type="curve"/>
      <point x="324" y="336"/>
      <point x="337" y="381"/>
      <point x="337" y="460" type="curve" smooth="yes"/>
      <point x="337" y="578" type="line" smooth="yes"/>
      <point x="337" y="645"/>
      <point x="364" y="674"/>
      <point x="439" y="674" type="curve" smooth="yes"/>
      <point x="467" y="674" type="line"/>
      <point x="467" y="745" type="line"/>
      <point x="424" y="745" type="line" smooth="yes"/>
      <point x="308" y="745"/>
      <point x="248" y="679"/>
      <point x="248" y="564" type="curve" smooth="yes"/>
      <point x="248" y="438" type="line" smooth="yes"/>
      <point x="248" y="375"/>
      <point x="220" y="353"/>
      <point x="170" y="353" type="curve" smooth="yes"/>
      <point x="133" y="353" type="line"/>
      <point x="133" y="279" type="line"/>
      <point x="170" y="279" type="line" smooth="yes"/>
      <point x="220" y="279"/>
      <point x="248" y="257"/>
      <point x="248" y="194" type="curve" smooth="yes"/>
      <point x="248" y="68" type="line" smooth="yes"/>
      <point x="248" y="-48"/>
      <point x="270" y="-113"/>
      <point x="424" y="-113" type="curve" smooth="yes"/>
      <point x="467" y="-113" type="line"/>
      <point x="467" y="-41" type="line"/>
      <point x="439" y="-41" type="line" smooth="yes"/>
      <point x="364" y="-41"/>
      <point x="337" y="-15"/>
      <point x="337" y="53" type="curve" smooth="yes"/>
    </contour>
  </outline>
</glyph>
<glyph name="bar" format="2">
  <advance width="600"/>
  <unicode hex="007C"/>
  <outline>
    <contour>
      <point x="255" y="745" type="line"/>
      <point x="255" y="-113" type="line"/>
      <point x="345" y="-113" type="line"/>
      <point x="345" y="745" type="line"/>
    </contour>
  </outline>
</glyph>
<glyph name="braceright" format="2">
  <advance width="600"/>
  <unicode hex="007D"/>
  <outline>
    <contour>
      <point x="263" y="172" type="line" smooth="yes"/>
      <point x="263" y="251"/>
      <point x="276" y="296"/>
      <point x="339" y="316" type="curve"/>
      <point x="276" y="336"/>
      <point x="263" y="381"/>
      <point x="263" y="460" type="curve" smooth="yes"/>
      <point x="263" y="578" type="line" smooth="yes"/>
      <point x="263" y="645"/>
      <point x="236" y="674"/>
      <point x="161" y="674" type="curve" smooth="yes"/>
      <point x="133" y="674" type="line"/>
      <point x="133" y="745" type="line"/>
      <point x="176" y="745" type="line" smooth="yes"/>
      <point x="292" y="745"/>
      <point x="352" y="679"/>
      <point x="352" y="564" type="curve" smooth="yes"/>
      <point x="352" y="438" type="line" smooth="yes"/>
      <point x="352" y="375"/>
      <point x="380" y="353"/>
      <point x="430" y="353" type="curve" smooth="yes"/>
      <point x="467" y="353" type="line"/>
      <point x="467" y="279" type="line"/>
      <point x="430" y="279" type="line" smooth="yes"/>
      <point x="380" y="279"/>
      <point x="352" y="257"/>
      <point x="352" y="194" type="curve" smooth="yes"/>
      <point x="352" y="68" type="line" smooth="yes"/>
      <point x="352" y="-48"/>
      <point x="330" y="-113"/>
      <point x="176" y="-113" type="curve" smooth="yes"/>
      <point x="133" y="-113" type="line"/>
      <point x="133" y="-41" type="line"/>
      <point x="161" y="-41" type="line" smooth="yes"/>
      <point x="236" y="-41"/>
      <point x="263" y="-15"/>
      <point x="263" y="53" type="curve" smooth="yes"/>
    </contour>
  </outline>
</glyph>
<glyph name="asciitilde" format="2">
  <advance width="600"/>
  <unicode hex="007E"/>
  <outline>
    <contour>
      <point x="385" y="246" type="curve" smooth="yes"/>
      <point x="448" y="246"/>
      <point x="499" y="303" name="inserted"/>
      <point x="508" y="391" type="curve"/>
      <point x="435" y="391" type="line"/>
      <point x="430" y="357"/>
      <point x="409" y="328" name="inserted"/>
      <point x="380" y="328" type="curve" smooth="yes"/>
      <point x="339" y="328"/>
      <point x="280" y="386" name="inserted"/>
      <point x="216" y="386" type="curve" smooth="yes"/>
      <point x="153" y="386"/>
      <point x="102" y="330" name="inserted"/>
      <point x="93" y="242" type="curve"/>
      <point x="166" y="242" type="line"/>
      <point x="171" y="276"/>
      <point x="192" y="304" name="inserted"/>
      <point x="221" y="304" type="curve" smooth="yes"/>
      <point x="262" y="304"/>
      <point x="321" y="246" name="inserted"/>
    </contour>
  </outline>
</glyph>
<glyph name="cent" format="2">
  <advance width="600"/>
  <unicode hex="00A2"/>
  <outline>
    <contour>
      <point x="526" y="346" type="line"/>
      <point x="500" y="445"/>
      <point x="423" y="502"/>
      <point x="318" y="502" type="curve" smooth="yes"/>
      <point x="182" y="502"/>
      <point x="81" y="403"/>
      <point x="81" y="245" type="curve" smooth="yes"/>
      <point x="81" y="87"/>
      <point x="182" y="-12"/>
      <point x="318" y="-12" type="curve" smooth="yes"/>
      <point x="423" y="-12"/>
      <point x="500" y="43"/>
      <point x="526" y="142" type="curve"/>
      <point x="445" y="164" type="line"/>
      <point x="430" y="95"/>
      <point x="387" y="58"/>
      <point x="318" y="58" type="curve" smooth="yes"/>
      <point x="226" y="58"/>
      <point x="170" y="130"/>
      <point x="170" y="245" type="curve" smooth="yes"/>
      <point x="170" y="360"/>
      <point x="226" y="432"/>
      <point x="318" y="432" type="curve" smooth="yes"/>
      <point x="387" y="432"/>
      <point x="431" y="393"/>
      <point x="445" y="324" type="curve"/>
    </contour>
    <contour>
      <point x="275" y="-112" type="line"/>
      <point x="343" y="-112" type="line"/>
      <point x="343" y="597" type="line"/>
      <point x="275" y="597" type="line"/>
    </contour>
  </outline>
</glyph>
<glyph name="yen" format="2">
  <advance width="600"/>
  <unicode hex="00A5"/>
  <outline>
    <contour>
      <point x="255" y="334" type="line"/>
      <point x="255" y="0" type="line"/>
      <point x="345" y="0" type="line"/>
      <point x="345" y="334" type="line"/>
      <point x="570" y="700" type="line"/>
      <point x="475" y="700" type="line"/>
      <point x="281" y="382" type="line"/>
      <point x="320" y="382" type="line"/>
      <point x="126" y="700" type="line"/>
      <point x="30" y="700" type="line"/>
    </contour>
    <contour>
      <point x="76" y="252" type="line"/>
      <point x="76" y="182" type="line"/>
      <point x="524" y="182" type="line"/>
      <point x="524" y="252" type="line"/>
    </contour>
    <contour>
      <point x="76" y="392" type="line"/>
      <point x="76" y="322" type="line"/>
      <point x="524" y="322" type="line"/>
      <point x="524" y="392" type="line"/>
    </contour>
  </outline>
</glyph>
<glyph name="brokenbar" format="2">
  <advance width="600"/>
  <unicode hex="00A6"/>
  <outline>
    <contour>
      <point x="255" y="745" type="line"/>
      <point x="255" y="377" type="line"/>
      <point x="345" y="377" type="line"/>
      <point x="345" y="745" type="line"/>
    </contour>
    <contour>
      <point x="255" y="255" type="line"/>
      <point x="255" y="-113" type="line"/>
      <point x="345" y="-113" type="line"/>
      <point x="345" y="255" type="line"/>
    </contour>
  </outline>
</glyph>
<glyph name="copyright" format="2">
  <advance width="600"/>
  <unicode hex="00A9"/>
  <outline>
    <contour>
      <point x="402" y="525" type="line"/>
      <point x="388" y="566"/>
      <point x="355" y="594"/>
      <point x="305" y="594" type="curve" smooth="yes"/>
      <point x="239" y="594"/>
      <point x="194" y="548"/>
      <point x="194" y="483" type="curve" smooth="yes"/>
      <point x="194" y="418"/>
      <point x="239" y="372"/>
      <point x="305" y="372" type="curve" smooth="yes"/>
      <point x="355" y="372"/>
      <point x="388" y="400"/>
      <point x="402" y="441" type="curve"/>
      <point x="353" y="458" type="line"/>
      <point x="345" y="434"/>
      <point x="329" y="419"/>
      <point x="305" y="419" type="curve" smooth="yes"/>
      <point x="272" y="419"/>
      <point x="248" y="443"/>
      <point x="248" y="483" type="curve" smooth="yes"/>
      <point x="248" y="523"/>
      <point x="272" y="547"/>
      <point x="305" y="547" type="curve" smooth="yes"/>
      <point x="329" y="547"/>
      <point x="345" y="532"/>
      <point x="353" y="508" type="curve"/>
    </contour>
    <contour>
      <point x="78" y="482" type="curve" smooth="yes"/>
      <point x="78" y="358"/>
      <point x="172" y="259"/>
      <point x="300" y="259" type="curve" smooth="yes"/>
      <point x="428" y="259"/>
      <point x="522" y="358"/>
      <point x="522" y="482" type="curve" smooth="yes"/>
      <point x="522" y="606"/>
      <point x="428" y="705"/>
      <point x="300" y="705" type="curve" smooth="yes"/>
      <point x="172" y="705"/>
      <point x="78" y="606"/>
    </contour>
    <contour>
      <point x="474" y="482" type="curve" smooth="yes"/>
      <point x="474" y="380"/>
      <point x="406" y="304"/>
      <point x="300" y="304" type="curve" smooth="yes"/>
      <point x="194" y="304"/>
      <point x="126" y="380"/>
      <point x="126" y="482" type="curve" smooth="yes"/>
      <point x="126" y="584"/>
      <point x="194" y="660"/>
      <point x="300" y="660" type="curve" smooth="yes"/>
      <point x="406" y="660"/>
      <point x="474" y="584"/>
    </contour>
  </outline>
</glyph>
<glyph name="ordfeminine" format="2">
  <advance width="600"/>
  <unicode hex="00AA"/>
  <outline>
    <contour>
      <point x="114" y="420" type="curve" smooth="yes"/>
      <point x="114" y="347"/>
      <point x="167" y="301"/>
      <point x="251" y="301" type="curve" smooth="yes"/>
      <point x="309" y="301"/>
      <point x="349" y="321"/>
      <point x="376" y="356" type="curve"/>
      <point x="387" y="317"/>
      <point x="417" y="306"/>
      <point x="453" y="306" type="curve" smooth="yes"/>
      <point x="463" y="306"/>
      <point x="475" y="307"/>
      <point x="481" y="308" type="curve"/>
      <point x="481" y="369" type="line"/>
      <point x="475" y="369" type="line" smooth="yes"/>
      <point x="456" y="369"/>
      <point x="447" y="380"/>
      <point x="447" y="397" type="curve" smooth="yes"/>
      <point x="447" y="586" type="line" smooth="yes"/>
      <point x="447" y="666"/>
      <point x="394" y="712"/>
      <point x="292" y="712" type="curve" smooth="yes"/>
      <point x="175" y="712"/>
      <point x="134" y="650"/>
      <point x="130" y="590" type="curve"/>
      <point x="211" y="578" type="line"/>
      <point x="214" y="613"/>
      <point x="229" y="648"/>
      <point x="292" y="648" type="curve" smooth="yes"/>
      <point x="345" y="648"/>
      <point x="371" y="624"/>
      <point x="371" y="583" type="curve" smooth="yes"/>
      <point x="371" y="553" type="line"/>
      <point x="249" y="539" type="line" smooth="yes"/>
      <point x="169" y="530"/>
      <point x="114" y="492"/>
    </contour>
    <contour>
      <point x="371" y="454" type="line" smooth="yes"/>
      <point x="371" y="407"/>
      <point x="319" y="364"/>
      <point x="259" y="364" type="curve" smooth="yes"/>
      <point x="219" y="364"/>
      <point x="193" y="383"/>
      <point x="193" y="420" type="curve" smooth="yes"/>
      <point x="193" y="457"/>
      <point x="218" y="477"/>
      <point x="263" y="482" type="curve" smooth="yes"/>
      <point x="371" y="495" type="line"/>
    </contour>
  </outline>
</glyph>
<glyph name="logicalnot" format="2">
  <advance width="600"/>
  <unicode hex="00AC"/>
  <outline>
    <contour>
      <point x="72" y="302" type="line"/>
      <point x="489" y="302" type="line"/>
      <point x="450" y="339" type="line"/>
      <point x="450" y="61" type="line"/>
      <point x="528" y="61" type="line"/>
      <point x="528" y="378" type="line"/>
      <point x="72" y="378" type="line"/>
    </contour>
  </outline>
</glyph>
<glyph name="degree" format="2">
  <advance width="600"/>
  <unicode hex="00B0"/>
  <outline>
    <contour>
      <point x="135" y="543" type="curve" smooth="yes"/>
      <point x="135" y="450"/>
      <point x="208" y="377"/>
      <point x="301" y="377" type="curve" smooth="yes"/>
      <point x="393" y="377"/>
      <point x="466" y="451"/>
      <point x="466" y="543" type="curve" smooth="yes"/>
      <point x="466" y="636"/>
      <point x="394" y="708"/>
      <point x="301" y="708" type="curve" smooth="yes"/>
      <point x="208" y="708"/>
      <point x="135" y="636"/>
    </contour>
    <contour>
      <point x="396" y="543" type="curve" smooth="yes"/>
      <point x="396" y="486"/>
      <point x="356" y="443"/>
      <point x="301" y="443" type="curve" smooth="yes"/>
      <point x="246" y="443"/>
      <point x="205" y="486"/>
      <point x="205" y="543" type="curve" smooth="yes"/>
      <point x="205" y="600"/>
      <point x="245" y="642"/>
      <point x="301" y="642" type="curve" smooth="yes"/>
      <point x="356" y="642"/>
      <point x="396" y="600"/>
    </contour>
  </outline>
</glyph>
<glyph name="paragraph" format="2">
  <advance width="600"/>
  <unicode hex="00B6"/>
  <outline>
    <contour>
      <point x="295" y="333" type="line"/>
      <point x="295" y="630" type="line"/>
      <point x="570" y="630" type="line"/>
      <point x="570" y="700" type="line"/>
      <point x="230" y="700" type="line" smooth="yes"/>
      <point x="116" y="698"/>
      <point x="40" y="626"/>
      <point x="40" y="517" type="curve" smooth="yes"/>
      <point x="40" y="406"/>
      <point x="118" y="333"/>
      <point x="234" y="333" type="curve" smooth="yes"/>
    </contour>
    <contour>
      <point x="341" y="700" type="line"/>
      <point x="264" y="700" type="line"/>
      <point x="264" y="-113" type="line"/>
      <point x="341" y="-113" type="line"/>
    </contour>
    <contour>
      <point x="491" y="700" type="line"/>
      <point x="414" y="700" type="line"/>
      <point x="414" y="-113" type="line"/>
      <point x="491" y="-113" type="line"/>
    </contour>
  </outline>
</glyph>
<glyph name="ordmasculine" format="2">
  <advance width="600"/>
  <unicode hex="00BA"/>
  <outline>
    <contour>
      <point x="300" y="301" type="curve" smooth="yes"/>
      <point x="408" y="301"/>
      <point x="491" y="380"/>
      <point x="491" y="506" type="curve" smooth="yes"/>
      <point x="491" y="633"/>
      <point x="408" y="712"/>
      <point x="300" y="712" type="curve" smooth="yes"/>
      <point x="192" y="712"/>
      <point x="109" y="633"/>
      <point x="109" y="506" type="curve" smooth="yes"/>
      <point x="109" y="380"/>
      <point x="192" y="301"/>
    </contour>
    <contour>
      <point x="300" y="646" type="curve" smooth="yes"/>
      <point x="369" y="646"/>
      <point x="412" y="593"/>
      <point x="412" y="506" type="curve" smooth="yes"/>
      <point x="412" y="419"/>
      <point x="369" y="367"/>
      <point x="300" y="367" type="curve" smooth="yes"/>
      <point x="231" y="367"/>
      <point x="188" y="419"/>
      <point x="188" y="506" type="curve" smooth="yes"/>
      <point x="188" y="593"/>
      <point x="231" y="646"/>
    </contour>
  </outline>
</glyph>
<glyph name="guillemetright" format="2">
  <advance width="600"/>
  <unicode hex="00BB"/>
  <outline>
    <contour>
      <point x="262" y="450" type="line"/>
      <point x="364" y="450" type="line"/>
      <point x="528" y="276" type="line"/>
      <point x="528" y="234" type="line"/>
      <point x="364" y="60" type="line"/>
      <point x="262" y="60" type="line"/>
      <point x="469" y="280" type="line"/>
      <point x="469" y="230" type="line"/>
    </contour>
    <contour>
      <point x="71" y="450" type="line"/>
      <point x="173" y="450" type="line"/>
      <point x="337" y="276" type="line"/>
      <point x="337" y="234" type="line"/>
      <point x="173" y="60" type="line"/>
      <point x="71" y="60" type="line"/>
      <point x="278" y="280" type="line"/>
      <point x="278" y="230" type="line"/>
    </contour>
  </outline>
</glyph>
<glyph name="AE" format="2">
  <advance width="600"/>
  <unicode hex="00C6"/>
  <guideline x="363" y="803" angle="90" name="center" identifier="GYOTN37zmf"/>
  <outline>
    <contour>
      <point x="179" y="700" type="line"/>
      <point x="8" y="0" type="line"/>
      <point x="98" y="0" type="line"/>
      <point x="246" y="618" type="line"/>
      <point x="298" y="618" type="line"/>
      <point x="298" y="700" type="line"/>
    </contour>
    <contour>
      <point x="124" y="298" type="line"/>
      <point x="124" y="216" type="line"/>
      <point x="325" y="216" type="line"/>
      <point x="325" y="298" type="line"/>
    </contour>
    <contour>
      <point x="325" y="396" type="line"/>
      <point x="325" y="315" type="line"/>
      <point x="481" y="315" type="line"/>
      <point x="481" y="396" type="line"/>
    </contour>
    <contour>
      <point x="319" y="82" type="line"/>
      <point x="319" y="0" type="line"/>
      <point x="570" y="0" type="line"/>
      <point x="570" y="82" type="line"/>
    </contour>
    <contour>
      <point x="315" y="700" type="line"/>
      <point x="315" y="618" type="line"/>
      <point x="552" y="618" type="line"/>
      <point x="552" y="700" type="line"/>
    </contour>
    <contour>
      <point x="280" y="700" type="line"/>
      <point x="280" y="0" type="line"/>
      <point x="367" y="0" type="line"/>
      <point x="367" y="700" type="line"/>
    </contour>
  </outline>
</glyph>
<glyph name="Eth" format="2">
  <advance width="600"/>
  <unicode hex="00D0"/>
  <outline>
    <contour>
      <point x="106" y="82" type="line"/>
      <point x="106" y="0" type="line"/>
      <point x="260" y="0" type="line" smooth="yes"/>
      <point x="459" y="0"/>
      <point x="561" y="149"/>
      <point x="561" y="350" type="curve" smooth="yes"/>
      <point x="561" y="551"/>
      <point x="459" y="700"/>
      <point x="260" y="700" type="curve" smooth="yes"/>
      <point x="105" y="700" type="line"/>
      <point x="105" y="618" type="line"/>
      <point x="253" y="618" type="line" smooth="yes"/>
      <point x="404" y="618"/>
      <point x="469" y="516"/>
      <point x="469" y="350" type="curve" smooth="yes"/>
      <point x="469" y="184"/>
      <point x="404" y="82"/>
      <point x="253" y="82" type="curve" smooth="yes"/>
    </contour>
    <contour>
      <point x="72" y="0" type="line"/>
      <point x="163" y="0" type="line"/>
      <point x="163" y="700" type="line"/>
      <point x="72" y="700" type="line"/>
    </contour>
    <contour>
      <point x="12" y="317" type="line"/>
      <point x="294" y="317" type="line"/>
      <point x="294" y="398" type="line"/>
      <point x="12" y="398" type="line"/>
    </contour>
  </outline>
</glyph>
<glyph name="Oslash" format="2">
  <advance width="600"/>
  <unicode hex="00D8"/>
  <guideline x="562" y="350" angle="90" identifier="8r4p4BPzQx"/>
  <guideline x="38" y="350" angle="90" identifier="Fk16DkfQuP"/>
  <guideline x="300" y="-12" angle="0" identifier="9j8yZaQNhi"/>
  <guideline x="300" y="712" angle="0" identifier="swdu0rGAYs"/>
  <outline>
    <contour>
      <point x="59" y="7" type="line"/>
      <point x="127" y="-32" type="line"/>
      <point x="543" y="694" type="line"/>
      <point x="475" y="733" type="line"/>
    </contour>
    <contour>
      <point x="300" y="712" type="curve" smooth="yes"/>
      <point x="145" y="712"/>
      <point x="38" y="564"/>
      <point x="38" y="350" type="curve" smooth="yes"/>
      <point x="38" y="136"/>
      <point x="145" y="-12"/>
      <point x="300" y="-12" type="curve" smooth="yes"/>
      <point x="455" y="-12"/>
      <point x="562" y="136"/>
      <point x="562" y="350" type="curve" smooth="yes"/>
      <point x="562" y="564"/>
      <point x="455" y="712"/>
    </contour>
    <contour>
      <point x="300" y="69" type="curve" smooth="yes"/>
      <point x="193" y="69"/>
      <point x="130" y="181"/>
      <point x="130" y="350" type="curve" smooth="yes"/>
      <point x="130" y="519"/>
      <point x="193" y="631"/>
      <point x="300" y="631" type="curve" smooth="yes"/>
      <point x="407" y="631"/>
      <point x="470" y="519"/>
      <point x="470" y="350" type="curve" smooth="yes"/>
      <point x="470" y="181"/>
      <point x="407" y="69"/>
    </contour>
  </outline>
</glyph>
<glyph name="Thorn" format="2">
  <advance width="600"/>
  <unicode hex="00DE"/>
  <outline>
    <contour>
      <point x="90" y="700" type="line"/>
      <point x="90" y="0" type="line"/>
      <point x="181" y="0" type="line"/>
      <point x="181" y="700" type="line"/>
    </contour>
    <contour>
      <point x="354" y="466" type="line"/>
      <point x="434" y="466"/>
      <point x="481" y="433"/>
      <point x="481" y="357" type="curve" smooth="yes"/>
      <point x="481" y="281"/>
      <point x="433" y="244"/>
      <point x="354" y="244" type="curve" smooth="yes"/>
      <point x="132" y="244" type="line"/>
      <point x="132" y="163" type="line"/>
      <point x="361" y="163" type="line" smooth="yes"/>
      <point x="485" y="163"/>
      <point x="573" y="241"/>
      <point x="573" y="357" type="curve" smooth="yes"/>
      <point x="573" y="473"/>
      <point x="484" y="547"/>
      <point x="360" y="547" type="curve" smooth="yes"/>
      <point x="133" y="547" type="line"/>
      <point x="133" y="466" type="line"/>
    </contour>
  </outline>
</glyph>
<glyph name="germandbls" format="2">
  <advance width="600"/>
  <unicode hex="00DF"/>
  <outline>
    <contour>
      <point x="92" y="513" type="curve" smooth="yes"/>
      <point x="92" y="0" type="line"/>
      <point x="180" y="0" type="line"/>
      <point x="180" y="513" type="line" smooth="yes"/>
      <point x="180" y="585"/>
      <point x="225" y="639"/>
      <point x="304" y="639" type="curve" smooth="yes"/>
      <point x="375" y="639"/>
      <point x="429" y="598"/>
      <point x="429" y="522" type="curve" smooth="yes"/>
      <point x="429" y="450"/>
      <point x="380" y="409"/>
      <point x="299" y="409" type="curve" smooth="yes"/>
      <point x="271" y="409" type="line"/>
      <point x="271" y="335" type="line"/>
      <point x="303" y="335" type="line" smooth="yes"/>
      <point x="394" y="335"/>
      <point x="461" y="292"/>
      <point x="461" y="194" type="curve" smooth="yes"/>
      <point x="461" y="121"/>
      <point x="424" y="61"/>
      <point x="343" y="61" type="curve" smooth="yes"/>
      <point x="315" y="61"/>
      <point x="286" y="68"/>
      <point x="266" y="75" type="curve"/>
      <point x="266" y="3" type="line"/>
      <point x="283" y="-4"/>
      <point x="311" y="-12"/>
      <point x="350" y="-12" type="curve" smooth="yes"/>
      <point x="481" y="-12"/>
      <point x="550" y="80"/>
      <point x="550" y="195" type="curve" smooth="yes"/>
      <point x="550" y="306"/>
      <point x="483" y="363"/>
      <point x="397" y="382" type="curve"/>
      <point x="397" y="376" type="line"/>
      <point x="457" y="390"/>
      <point x="515" y="437"/>
      <point x="515" y="528" type="curve" smooth="yes"/>
      <point x="515" y="636"/>
      <point x="432" y="712"/>
      <point x="306" y="712" type="curve" smooth="yes"/>
      <point x="180" y="712"/>
      <point x="92" y="631"/>
    </contour>
  </outline>
</glyph>
<glyph name="ae" format="2">
  <advance width="600"/>
  <unicode hex="00E6"/>
  <outline>
    <contour>
      <point x="15" y="136" type="curve" smooth="yes"/>
      <point x="15" y="46"/>
      <point x="71" y="-12"/>
      <point x="155" y="-12" type="curve" smooth="yes"/>
      <point x="253" y="-12"/>
      <point x="323" y="60"/>
      <point x="323" y="214" type="curve" smooth="yes"/>
      <point x="323" y="325" type="line" smooth="yes"/>
      <point x="323" y="435"/>
      <point x="281" y="502"/>
      <point x="185" y="502" type="curve" smooth="yes"/>
      <point x="74" y="502"/>
      <point x="34" y="424"/>
      <point x="29" y="354" type="curve"/>
      <point x="106" y="340" type="line"/>
      <point x="109" y="383"/>
      <point x="128" y="431"/>
      <point x="184" y="431" type="curve" smooth="yes"/>
      <point x="232" y="431"/>
      <point x="249" y="396"/>
      <point x="249" y="341" type="curve" smooth="yes"/>
      <point x="249" y="171" type="line" smooth="yes"/>
      <point x="249" y="108"/>
      <point x="221" y="59"/>
      <point x="165" y="59" type="curve" smooth="yes"/>
      <point x="123" y="59"/>
      <point x="98" y="88"/>
      <point x="98" y="136" type="curve" smooth="yes"/>
      <point x="98" y="192"/>
      <point x="131" y="220"/>
      <point x="194" y="224" type="curve" smooth="yes"/>
      <point x="282" y="229" type="line"/>
      <point x="282" y="296" type="line"/>
      <point x="186" y="290" type="line" smooth="yes"/>
      <point x="92" y="284"/>
      <point x="15" y="232"/>
    </contour>
    <contour>
      <point x="264" y="244" type="curve" smooth="yes"/>
      <point x="264" y="85"/>
      <point x="320" y="-12"/>
      <point x="421" y="-12" type="curve" smooth="yes"/>
      <point x="499" y="-12"/>
      <point x="546" y="48"/>
      <point x="573" y="142" type="curve"/>
      <point x="506" y="161" type="line"/>
      <point x="489" y="92"/>
      <point x="461" y="59"/>
      <point x="421" y="59" type="curve" smooth="yes"/>
      <point x="369" y="59"/>
      <point x="336" y="123"/>
      <point x="336" y="244" type="curve" smooth="yes"/>
      <point x="336" y="359"/>
      <point x="370" y="431"/>
      <point x="421" y="431" type="curve" smooth="yes"/>
      <point x="470" y="431"/>
      <point x="498" y="374"/>
      <point x="498" y="247" type="curve"/>
      <point x="513" y="292" type="line"/>
      <point x="299" y="292" type="line"/>
      <point x="299" y="226" type="line"/>
      <point x="574" y="226" type="line"/>
      <point x="574" y="242" type="line" smooth="yes"/>
      <point x="574" y="393"/>
      <point x="522" y="502"/>
      <point x="421" y="502" type="curve" smooth="yes"/>
      <point x="319" y="502"/>
      <point x="264" y="404"/>
    </contour>
  </outline>
</glyph>
<glyph name="idieresis" format="2">
  <advance width="600"/>
  <unicode hex="00EF"/>
  <outline>
    <contour>
      <point x="182" y="700" type="line"/>
      <point x="182" y="588" type="line"/>
      <point x="284" y="588" type="line"/>
      <point x="284" y="700" type="line"/>
    </contour>
    <contour>
      <point x="355" y="700" type="line"/>
      <point x="355" y="588" type="line"/>
      <point x="457" y="588" type="line"/>
      <point x="457" y="700" type="line"/>
    </contour>
    <component base="dotlessi"/>
  </outline>
</glyph>
<glyph name="Aogonek" format="2">
  <advance width="600"/>
  <unicode hex="0104"/>
  <outline>
    <contour>
      <point x="132" y="289" type="line"/>
      <point x="135" y="210" type="line"/>
      <point x="474" y="210" type="line"/>
      <point x="474" y="289" type="line"/>
    </contour>
    <contour>
      <point x="497" y="-40" type="line"/>
      <point x="578" y="0" type="line"/>
      <point x="352" y="700" type="line"/>
      <point x="250" y="700" type="line"/>
      <point x="22" y="0" type="line"/>
      <point x="116" y="0" type="line"/>
      <point x="316" y="631" type="line"/>
      <point x="287" y="631" type="line"/>
    </contour>
    <contour>
      <point x="512" y="-195" type="curve" smooth="yes"/>
      <point x="528" y="-195"/>
      <point x="560" y="-193"/>
      <point x="591" y="-183" type="curve"/>
      <point x="587" y="-128" type="line"/>
      <point x="572" y="-132"/>
      <point x="554" y="-135"/>
      <point x="537" y="-135" type="curve" smooth="yes"/>
      <point x="506" y="-135"/>
      <point x="491" y="-125"/>
      <point x="491" y="-103" type="curve" smooth="yes"/>
      <point x="491" y="-68"/>
      <point x="531" y="-31"/>
      <point x="578" y="0" type="curve"/>
      <point x="505" y="0" type="line"/>
      <point x="461" y="-23"/>
      <point x="419" y="-73"/>
      <point x="419" y="-120" type="curve" smooth="yes"/>
      <point x="419" y="-155"/>
      <point x="442" y="-195"/>
    </contour>
  </outline>
</glyph>
<glyph name="dcroat" format="2">
  <advance width="600"/>
  <unicode hex="0111"/>
  <outline>
    <contour>
      <point x="270" y="554" type="line"/>
      <point x="578" y="554" type="line"/>
      <point x="578" y="619" type="line"/>
      <point x="270" y="619" type="line"/>
    </contour>
    <component base="d" identifier="51043622"/>
  </outline>
</glyph>
<glyph name="eogonek" format="2">
  <advance width="600"/>
  <unicode hex="0119"/>
  <outline>
    <contour>
      <point x="326" y="-195" type="curve" smooth="yes"/>
      <point x="342" y="-195"/>
      <point x="374" y="-193"/>
      <point x="405" y="-183" type="curve"/>
      <point x="401" y="-128" type="line"/>
      <point x="386" y="-132"/>
      <point x="368" y="-135"/>
      <point x="351" y="-135" type="curve" smooth="yes"/>
      <point x="320" y="-135"/>
      <point x="305" y="-125"/>
      <point x="305" y="-103" type="curve" smooth="yes"/>
      <point x="305" y="-69"/>
      <point x="340" y="-25"/>
      <point x="407" y="1" type="curve" smooth="yes"/>
      <point x="461" y="22"/>
      <point x="514" y="69"/>
      <point x="538" y="142" type="curve"/>
      <point x="462" y="164" type="line"/>
      <point x="441" y="100"/>
      <point x="395" y="58"/>
      <point x="317" y="58" type="curve" smooth="yes"/>
      <point x="221" y="58"/>
      <point x="158" y="117"/>
      <point x="151" y="226" type="curve"/>
      <point x="539" y="226" type="line"/>
      <point x="539" y="242" type="line" smooth="yes"/>
      <point x="539" y="393"/>
      <point x="451" y="502"/>
      <point x="308" y="502" type="curve" smooth="yes"/>
      <point x="170" y="502"/>
      <point x="63" y="404"/>
      <point x="63" y="244" type="curve" smooth="yes"/>
      <point x="63" y="84"/>
      <point x="175" y="-12"/>
      <point x="318" y="-12" type="curve" smooth="yes"/>
      <point x="322" y="-12"/>
      <point x="325" y="-12"/>
      <point x="329" y="-12" type="curve"/>
      <point x="323" y="1" type="line"/>
      <point x="278" y="-19"/>
      <point x="233" y="-72"/>
      <point x="233" y="-120" type="curve" smooth="yes"/>
      <point x="233" y="-155"/>
      <point x="256" y="-195"/>
    </contour>
    <contour>
      <point x="308" y="432" type="curve" smooth="yes"/>
      <point x="389" y="432"/>
      <point x="441" y="383"/>
      <point x="453" y="292" type="curve"/>
      <point x="155" y="292" type="line"/>
      <point x="170" y="379"/>
      <point x="227" y="432"/>
    </contour>
  </outline>
</glyph>
<glyph name="Hbar" format="2">
  <advance width="600"/>
  <unicode hex="0126"/>
  <outline>
    <contour>
      <point x="7" y="500" type="line"/>
      <point x="593" y="500" type="line"/>
      <point x="593" y="578" type="line"/>
      <point x="7" y="578" type="line"/>
    </contour>
    <contour>
      <point x="114" y="300" type="line"/>
      <point x="487" y="300" type="line"/>
      <point x="487" y="382" type="line"/>
      <point x="114" y="382" type="line"/>
    </contour>
    <contour>
      <point x="442" y="700" type="line"/>
      <point x="442" y="0" type="line"/>
      <point x="533" y="0" type="line"/>
      <point x="533" y="700" type="line"/>
    </contour>
    <contour>
      <point x="67" y="700" type="line"/>
      <point x="67" y="0" type="line"/>
      <point x="158" y="0" type="line"/>
      <point x="158" y="700" type="line"/>
    </contour>
  </outline>
</glyph>
<glyph name="hbar" format="2">
  <advance width="600"/>
  <unicode hex="0127"/>
  <outline>
    <contour>
      <point x="333" y="554" type="line"/>
      <point x="333" y="619" type="line"/>
      <point x="25" y="619" type="line"/>
      <point x="25" y="554" type="line"/>
    </contour>
    <component base="h"/>
  </outline>
</glyph>
<glyph name="itilde" format="2">
  <advance width="600"/>
  <unicode hex="0129"/>
  <outline>
    <contour>
      <point x="265" y="680" type="curve" smooth="yes"/>
      <point x="215" y="680"/>
      <point x="189" y="635"/>
      <point x="186" y="570" type="curve"/>
      <point x="245" y="570" type="line"/>
      <point x="248" y="595"/>
      <point x="253" y="609"/>
      <point x="271" y="609" type="curve" smooth="yes"/>
      <point x="297" y="609"/>
      <point x="334" y="577"/>
      <point x="375" y="577" type="curve" smooth="yes"/>
      <point x="425" y="577"/>
      <point x="451" y="621"/>
      <point x="454" y="686" type="curve"/>
      <point x="394" y="686" type="line"/>
      <point x="392" y="661"/>
      <point x="387" y="647"/>
      <point x="369" y="647" type="curve" smooth="yes"/>
      <point x="343" y="647"/>
      <point x="306" y="680"/>
    </contour>
    <component base="dotlessi"/>
  </outline>
</glyph>
<glyph name="ibreve" format="2">
  <advance width="600"/>
  <unicode hex="012D"/>
  <outline>
    <contour>
      <point x="184" y="700" type="line"/>
      <point x="184" y="626"/>
      <point x="234" y="565"/>
      <point x="320" y="565" type="curve" smooth="yes"/>
      <point x="406" y="565"/>
      <point x="456" y="626"/>
      <point x="456" y="700" type="curve"/>
      <point x="387" y="700" type="line"/>
      <point x="387" y="659"/>
      <point x="363" y="629"/>
      <point x="320" y="629" type="curve" smooth="yes"/>
      <point x="277" y="629"/>
      <point x="253" y="659"/>
      <point x="253" y="700" type="curve"/>
    </contour>
    <component base="dotlessi"/>
  </outline>
</glyph>
<glyph name="dotlessi" format="2">
  <advance width="600"/>
  <unicode hex="0131"/>
  <outline>
    <contour>
      <point x="86" y="490" type="line"/>
      <point x="86" y="421" type="line"/>
      <point x="324" y="421" type="line"/>
      <point x="324" y="490" type="line"/>
    </contour>
    <contour>
      <point x="76" y="69" type="line"/>
      <point x="76" y="0" type="line"/>
      <point x="559" y="0" type="line"/>
      <point x="559" y="69" type="line"/>
    </contour>
    <contour>
      <point x="276" y="490" type="line"/>
      <point x="276" y="0" type="line"/>
      <point x="364" y="0" type="line"/>
      <point x="364" y="490" type="line"/>
    </contour>
  </outline>
</glyph>
<glyph name="IJ" format="2">
  <advance width="600"/>
  <unicode hex="0132"/>
  <outline>
    <contour>
      <point x="344" y="69" type="curve" smooth="yes"/>
      <point x="316" y="69"/>
      <point x="282" y="74"/>
      <point x="244" y="88" type="curve"/>
      <point x="244" y="8" type="line"/>
      <point x="281" y="-7"/>
      <point x="320" y="-12"/>
      <point x="354" y="-12" type="curve" smooth="yes"/>
      <point x="476" y="-12"/>
      <point x="529" y="57"/>
      <point x="529" y="158" type="curve" smooth="yes"/>
      <point x="529" y="700" type="line"/>
      <point x="439" y="700" type="line"/>
      <point x="439" y="163" type="line" smooth="yes"/>
      <point x="439" y="108"/>
      <point x="418" y="69"/>
    </contour>
    <contour>
      <point x="79" y="700" type="line"/>
      <point x="79" y="0" type="line"/>
      <point x="167" y="0" type="line"/>
      <point x="167" y="700" type="line"/>
    </contour>
  </outline>
</glyph>
<glyph name="ij" format="2">
  <advance width="600"/>
  <unicode hex="0133"/>
  <outline>
    <contour>
      <point x="113" y="700" type="line"/>
      <point x="113" y="597" type="line"/>
      <point x="209" y="597" type="line"/>
      <point x="209" y="700" type="line"/>
    </contour>
    <contour>
      <point x="117" y="490" type="line"/>
      <point x="117" y="0" type="line"/>
      <point x="205" y="0" type="line"/>
      <point x="205" y="490" type="line"/>
    </contour>
    <contour>
      <point x="117" y="0" type="line"/>
      <point x="205" y="0" type="line"/>
      <point x="205" y="69" type="line"/>
      <point x="117" y="69" type="line"/>
    </contour>
    <contour>
      <point x="117" y="421" type="line"/>
      <point x="205" y="421" type="line"/>
      <point x="205" y="490" type="line"/>
      <point x="117" y="490" type="line"/>
    </contour>
    <contour>
      <point x="295" y="-179" type="line"/>
      <point x="310" y="-185"/>
      <point x="329" y="-189"/>
      <point x="355" y="-189" type="curve" smooth="yes"/>
      <point x="419" y="-189"/>
      <point x="483" y="-164"/>
      <point x="483" y="-72" type="curve" smooth="yes"/>
      <point x="483" y="490" type="line"/>
      <point x="395" y="490" type="line"/>
      <point x="395" y="-67" type="line" smooth="yes"/>
      <point x="395" y="-102"/>
      <point x="368" y="-113"/>
      <point x="334" y="-113" type="curve" smooth="yes"/>
      <point x="320" y="-113"/>
      <point x="309" y="-111"/>
      <point x="295" y="-107" type="curve"/>
    </contour>
    <contour>
      <point x="395" y="421" type="line"/>
      <point x="483" y="421" type="line"/>
      <point x="483" y="490" type="line"/>
      <point x="395" y="490" type="line"/>
    </contour>
    <contour>
      <point x="391" y="700" type="line"/>
      <point x="391" y="597" type="line"/>
      <point x="487" y="597" type="line"/>
      <point x="487" y="700" type="line"/>
    </contour>
  </outline>
</glyph>
<glyph name="Ldot" format="2">
  <advance width="600"/>
  <unicode hex="013F"/>
  <outline>
    <contour>
      <point x="378" y="442" type="line"/>
      <point x="378" y="326" type="line"/>
      <point x="477" y="326" type="line"/>
      <point x="477" y="442" type="line"/>
    </contour>
    <component base="L" identifier="ADF4C890"/>
  </outline>
</glyph>
<glyph name="ldot" format="2">
  <advance width="600"/>
  <unicode hex="0140"/>
  <outline>
    <contour>
      <point x="549" y="418" type="line"/>
      <point x="549" y="300" type="line"/>
      <point x="650" y="300" type="line"/>
      <point x="650" y="418" type="line"/>
    </contour>
    <component base="l" identifier="950935A1"/>
  </outline>
</glyph>
<glyph name="Lslash" format="2">
  <advance width="600"/>
  <unicode hex="0141"/>
  <outline>
    <contour>
      <point x="37" y="294" type="line"/>
      <point x="37" y="212" type="line"/>
      <point x="409" y="384" type="line"/>
      <point x="409" y="466" type="line"/>
    </contour>
    <component base="L" identifier="AE12F675"/>
  </outline>
</glyph>
<glyph name="lslash" format="2">
  <advance width="600"/>
  <unicode hex="0142"/>
  <outline>
    <contour>
      <point x="96" y="304" type="line"/>
      <point x="96" y="230" type="line"/>
      <point x="499" y="436" type="line"/>
      <point x="499" y="510" type="line"/>
    </contour>
    <component base="l"/>
  </outline>
</glyph>
<glyph name="Eng" format="2">
  <advance width="600"/>
  <unicode hex="014A"/>
  <outline>
    <contour>
      <point x="522" y="40" type="line"/>
      <point x="199" y="700" type="line"/>
      <point x="67" y="700" type="line"/>
      <point x="67" y="0" type="line"/>
      <point x="154" y="0" type="line"/>
      <point x="154" y="657" type="line"/>
      <point x="127" y="657" type="line"/>
      <point x="449" y="0" type="line"/>
      <point x="533" y="0" type="line"/>
      <point x="533" y="700" type="line"/>
      <point x="446" y="700" type="line"/>
      <point x="446" y="40" type="line"/>
    </contour>
    <contour>
      <point x="369" y="-111" type="curve" smooth="yes"/>
      <point x="346" y="-111"/>
      <point x="321" y="-106"/>
      <point x="300" y="-100" type="curve"/>
      <point x="300" y="-179" type="line"/>
      <point x="319" y="-185"/>
      <point x="344" y="-192"/>
      <point x="377" y="-192" type="curve" smooth="yes"/>
      <point x="468" y="-192"/>
      <point x="533" y="-145"/>
      <point x="533" y="-57" type="curve" smooth="yes"/>
      <point x="533" y="80" type="line"/>
      <point x="446" y="80" type="line"/>
      <point x="446" y="-47" type="line" smooth="yes"/>
      <point x="446" y="-90"/>
      <point x="421" y="-111"/>
    </contour>
  </outline>
</glyph>
<glyph name="OE" format="2">
  <advance width="600"/>
  <unicode hex="0152"/>
  <guideline x="300" y="734" angle="90" identifier="GB0NDQBb4j"/>
  <outline>
    <contour>
      <point x="303" y="700" type="line"/>
      <point x="303" y="0" type="line"/>
      <point x="390" y="0" type="line"/>
      <point x="390" y="700" type="line"/>
    </contour>
    <contour>
      <point x="338" y="618" type="line"/>
      <point x="575" y="618" type="line"/>
      <point x="575" y="700" type="line"/>
      <point x="338" y="700" type="line"/>
    </contour>
    <contour>
      <point x="348" y="315" type="line"/>
      <point x="504" y="315" type="line"/>
      <point x="504" y="396" type="line"/>
      <point x="348" y="396" type="line"/>
    </contour>
    <contour>
      <point x="342" y="0" type="line"/>
      <point x="593" y="0" type="line"/>
      <point x="593" y="82" type="line"/>
      <point x="342" y="82" type="line"/>
    </contour>
    <contour>
      <point x="197" y="712" type="curve" smooth="yes"/>
      <point x="97" y="712"/>
      <point x="16" y="604"/>
      <point x="16" y="350" type="curve" smooth="yes"/>
      <point x="16" y="116"/>
      <point x="97" y="-12"/>
      <point x="197" y="-12" type="curve" smooth="yes"/>
      <point x="306" y="-12"/>
      <point x="357" y="116"/>
      <point x="357" y="350" type="curve" smooth="yes"/>
      <point x="357" y="584"/>
      <point x="306" y="712"/>
    </contour>
    <contour>
      <point x="206" y="69" type="curve" smooth="yes"/>
      <point x="153" y="69"/>
      <point x="105" y="131"/>
      <point x="105" y="350" type="curve" smooth="yes"/>
      <point x="105" y="569"/>
      <point x="153" y="631"/>
      <point x="206" y="631" type="curve" smooth="yes"/>
      <point x="259" y="631"/>
      <point x="303" y="569"/>
      <point x="303" y="350" type="curve" smooth="yes"/>
      <point x="303" y="131"/>
      <point x="259" y="69"/>
    </contour>
  </outline>
</glyph>
<glyph name="oe" format="2">
  <advance width="600"/>
  <unicode hex="0153"/>
  <outline>
    <contour>
      <point x="436" y="-12" type="curve" smooth="yes"/>
      <point x="514" y="-12"/>
      <point x="561" y="48"/>
      <point x="588" y="142" type="curve"/>
      <point x="521" y="161" type="line"/>
      <point x="504" y="92"/>
      <point x="476" y="59"/>
      <point x="436" y="59" type="curve" smooth="yes"/>
      <point x="384" y="59"/>
      <point x="351" y="123"/>
      <point x="351" y="244" type="curve" smooth="yes"/>
      <point x="351" y="359"/>
      <point x="385" y="431"/>
      <point x="436" y="431" type="curve" smooth="yes"/>
      <point x="485" y="431"/>
      <point x="513" y="374"/>
      <point x="513" y="247" type="curve"/>
      <point x="528" y="292" type="line"/>
      <point x="314" y="292" type="line"/>
      <point x="314" y="226" type="line"/>
      <point x="589" y="226" type="line"/>
      <point x="589" y="242" type="line" smooth="yes"/>
      <point x="589" y="393"/>
      <point x="537" y="502"/>
      <point x="436" y="502" type="curve" smooth="yes"/>
      <point x="334" y="502"/>
      <point x="279" y="404"/>
      <point x="279" y="244" type="curve" smooth="yes"/>
      <point x="279" y="85"/>
      <point x="335" y="-12"/>
    </contour>
    <contour>
      <point x="183" y="-12" type="curve" smooth="yes"/>
      <point x="284" y="-12"/>
      <point x="340" y="87"/>
      <point x="340" y="245" type="curve" smooth="yes"/>
      <point x="340" y="403"/>
      <point x="284" y="502"/>
      <point x="183" y="502" type="curve" smooth="yes"/>
      <point x="82" y="502"/>
      <point x="12" y="403"/>
      <point x="12" y="245" type="curve" smooth="yes"/>
      <point x="12" y="87"/>
      <point x="82" y="-12"/>
    </contour>
    <contour>
      <point x="183" y="431" type="curve" smooth="yes"/>
      <point x="235" y="431"/>
      <point x="267" y="360"/>
      <point x="267" y="245" type="curve" smooth="yes"/>
      <point x="267" y="130"/>
      <point x="235" y="59"/>
      <point x="183" y="59" type="curve" smooth="yes"/>
      <point x="131" y="59"/>
      <point x="97" y="130"/>
      <point x="97" y="245" type="curve" smooth="yes"/>
      <point x="97" y="360"/>
      <point x="131" y="431"/>
    </contour>
  </outline>
</glyph>
<glyph name="Tbar" format="2">
  <advance width="600"/>
  <unicode hex="0166"/>
  <outline>
    <contour>
      <point x="125" y="325" type="line"/>
      <point x="474" y="325" type="line"/>
      <point x="474" y="403" type="line"/>
      <point x="125" y="403" type="line"/>
    </contour>
    <component base="T" identifier="E4A0F193"/>
  </outline>
</glyph>
<glyph name="Uogonek" format="2">
  <advance width="600"/>
  <unicode hex="0172"/>
  <outline>
    <contour>
      <point x="314" y="-195" type="curve" smooth="yes"/>
      <point x="330" y="-195"/>
      <point x="362" y="-193"/>
      <point x="393" y="-183" type="curve"/>
      <point x="389" y="-128" type="line"/>
      <point x="374" y="-132"/>
      <point x="356" y="-135"/>
      <point x="339" y="-135" type="curve" smooth="yes"/>
      <point x="308" y="-135"/>
      <point x="293" y="-125"/>
      <point x="293" y="-103" type="curve" smooth="yes"/>
      <point x="293" y="-69"/>
      <point x="335" y="-23"/>
      <point x="383" y="-4" type="curve" smooth="yes"/>
      <point x="481" y="34"/>
      <point x="536" y="106"/>
      <point x="536" y="216" type="curve" smooth="yes"/>
      <point x="536" y="700" type="line"/>
      <point x="446" y="700" type="line"/>
      <point x="446" y="224" type="line" smooth="yes"/>
      <point x="446" y="132"/>
      <point x="395" y="71"/>
      <point x="301" y="71" type="curve" smooth="yes"/>
      <point x="207" y="71"/>
      <point x="155" y="132"/>
      <point x="155" y="224" type="curve" smooth="yes"/>
      <point x="155" y="700" type="line"/>
      <point x="64" y="700" type="line"/>
      <point x="64" y="216" type="line" smooth="yes"/>
      <point x="64" y="75"/>
      <point x="165" y="-20"/>
      <point x="320" y="-12" type="curve"/>
      <point x="326" y="-12"/>
      <point x="333" y="-12"/>
      <point x="339" y="-12" type="curve"/>
      <point x="311" y="2" type="line"/>
      <point x="266" y="-20"/>
      <point x="221" y="-72"/>
      <point x="221" y="-120" type="curve" smooth="yes"/>
      <point x="221" y="-155"/>
      <point x="244" y="-195"/>
    </contour>
  </outline>
</glyph>
<glyph name="Bhook" format="2">
  <advance width="600"/>
  <unicode hex="0181"/>
  <outline>
    <contour>
      <point x="161" y="700" type="line"/>
      <point x="161" y="0" type="line"/>
      <point x="251" y="0" type="line"/>
      <point x="251" y="700" type="line"/>
    </contour>
    <contour>
      <point x="369" y="0" type="line"/>
      <point x="500" y="0"/>
      <point x="584" y="87"/>
      <point x="584" y="199" type="curve" smooth="yes"/>
      <point x="584" y="294"/>
      <point x="524" y="350"/>
      <point x="463" y="374" type="curve"/>
      <point x="463" y="356" type="line"/>
      <point x="519" y="374"/>
      <point x="569" y="430"/>
      <point x="569" y="513" type="curve" smooth="yes"/>
      <point x="569" y="623"/>
      <point x="489" y="700"/>
      <point x="369" y="700" type="curve" smooth="yes"/>
      <point x="196" y="700" type="line"/>
      <point x="196" y="620" type="line"/>
      <point x="362" y="620" type="line" smooth="yes"/>
      <point x="435" y="620"/>
      <point x="481" y="576"/>
      <point x="481" y="510" type="curve" smooth="yes"/>
      <point x="481" y="444"/>
      <point x="439" y="399"/>
      <point x="366" y="399" type="curve" smooth="yes"/>
      <point x="195" y="399" type="line"/>
      <point x="195" y="320" type="line"/>
      <point x="363" y="320" type="line" smooth="yes"/>
      <point x="436" y="320"/>
      <point x="493" y="277"/>
      <point x="493" y="200" type="curve" smooth="yes"/>
      <point x="493" y="125"/>
      <point x="440" y="80"/>
      <point x="363" y="80" type="curve" smooth="yes"/>
      <point x="196" y="80" type="line"/>
      <point x="196" y="0" type="line"/>
    </contour>
    <contour>
      <point x="232" y="700" type="line"/>
      <point x="158" y="700" type="line" smooth="yes"/>
      <point x="50" y="700"/>
      <point x="0" y="629"/>
      <point x="0" y="550" type="curve" smooth="yes"/>
      <point x="0" y="505"/>
      <point x="15" y="477"/>
      <point x="30" y="452" type="curve"/>
      <point x="118" y="457" type="line"/>
      <point x="99" y="487"/>
      <point x="88" y="513"/>
      <point x="88" y="545" type="curve" smooth="yes"/>
      <point x="88" y="595"/>
      <point x="115" y="620"/>
      <point x="161" y="620" type="curve" smooth="yes"/>
      <point x="232" y="620" type="line"/>
    </contour>
  </outline>
</glyph>
<glyph name="Oopen" format="2">
  <advance width="600"/>
  <unicode hex="0186"/>
  <outline>
    <contour>
      <point x="55" y="491" type="curve"/>
      <point x="144" y="467" type="line"/>
      <point x="168" y="560"/>
      <point x="212" y="631"/>
      <point x="297" y="631" type="curve" smooth="yes"/>
      <point x="407" y="631"/>
      <point x="470" y="519"/>
      <point x="470" y="350" type="curve" smooth="yes"/>
      <point x="470" y="181"/>
      <point x="407" y="69"/>
      <point x="297" y="69" type="curve" smooth="yes"/>
      <point x="212" y="69"/>
      <point x="167" y="143"/>
      <point x="143" y="236" type="curve"/>
      <point x="54" y="211" type="line"/>
      <point x="84" y="81"/>
      <point x="168" y="-12"/>
      <point x="297" y="-12" type="curve" smooth="yes"/>
      <point x="455" y="-12"/>
      <point x="562" y="136"/>
      <point x="562" y="350" type="curve" smooth="yes"/>
      <point x="562" y="564"/>
      <point x="455" y="712"/>
      <point x="297" y="712" type="curve" smooth="yes"/>
      <point x="170" y="712"/>
      <point x="87" y="620"/>
    </contour>
  </outline>
</glyph>
<glyph name="Dhook" format="2">
  <advance width="600"/>
  <unicode hex="018A"/>
  <outline>
    <contour>
      <point x="178" y="80" type="line"/>
      <point x="178" y="0" type="line"/>
      <point x="309" y="0" type="line" smooth="yes"/>
      <point x="480" y="0"/>
      <point x="581" y="139"/>
      <point x="581" y="350" type="curve" smooth="yes"/>
      <point x="581" y="561"/>
      <point x="480" y="700"/>
      <point x="309" y="700" type="curve" smooth="yes"/>
      <point x="177" y="700" type="line"/>
      <point x="177" y="620" type="line"/>
      <point x="302" y="620" type="line" smooth="yes"/>
      <point x="424" y="620"/>
      <point x="490" y="526"/>
      <point x="490" y="350" type="curve" smooth="yes"/>
      <point x="490" y="174"/>
      <point x="424" y="80"/>
      <point x="302" y="80" type="curve" smooth="yes"/>
    </contour>
    <contour>
      <point x="144" y="0" type="line"/>
      <point x="234" y="0" type="line"/>
      <point x="234" y="700" type="line"/>
      <point x="144" y="700" type="line"/>
    </contour>
    <contour>
      <point x="225" y="700" type="line"/>
      <point x="141" y="700" type="line" smooth="yes"/>
      <point x="50" y="700"/>
      <point x="0" y="631"/>
      <point x="0" y="552" type="curve" smooth="yes"/>
      <point x="0" y="507"/>
      <point x="14" y="479"/>
      <point x="27" y="455" type="curve"/>
      <point x="115" y="460" type="line"/>
      <point x="98" y="489"/>
      <point x="88" y="515"/>
      <point x="88" y="547" type="curve" smooth="yes"/>
      <point x="88" y="597"/>
      <point x="115" y="620"/>
      <point x="144" y="620" type="curve" smooth="yes"/>
      <point x="225" y="620" type="line"/>
    </contour>
  </outline>
</glyph>
<glyph name="Ereversed" format="2">
  <advance width="600"/>
  <unicode hex="018E"/>
  <outline>
    <contour>
      <point x="498" y="700" type="line"/>
      <point x="407" y="700" type="line"/>
      <point x="407" y="0" type="line"/>
      <point x="498" y="0" type="line"/>
    </contour>
    <contour>
      <point x="463" y="618" type="line"/>
      <point x="463" y="700" type="line"/>
      <point x="67" y="700" type="line"/>
      <point x="67" y="618" type="line"/>
    </contour>
    <contour>
      <point x="453" y="315" type="line"/>
      <point x="453" y="396" type="line"/>
      <point x="205" y="396" type="line"/>
      <point x="205" y="315" type="line"/>
    </contour>
    <contour>
      <point x="459" y="0" type="line"/>
      <point x="459" y="82" type="line"/>
      <point x="49" y="82" type="line"/>
      <point x="49" y="0" type="line"/>
    </contour>
  </outline>
</glyph>
<glyph name="Schwa" format="2">
  <advance width="600"/>
  <unicode hex="018F"/>
  <outline>
    <contour>
      <point x="297" y="712" type="curve" smooth="yes"/>
      <point x="179" y="712"/>
      <point x="86" y="625"/>
      <point x="50" y="496" type="curve"/>
      <point x="131" y="472" type="line"/>
      <point x="159" y="560"/>
      <point x="211" y="632"/>
      <point x="297" y="632" type="curve" smooth="yes"/>
      <point x="405" y="632"/>
      <point x="468" y="522"/>
      <point x="468" y="352" type="curve" smooth="yes"/>
      <point x="468" y="183"/>
      <point x="407" y="69"/>
      <point x="301" y="69" type="curve" smooth="yes"/>
      <point x="202" y="69"/>
      <point x="131" y="178"/>
      <point x="132" y="348" type="curve"/>
      <point x="120" y="291" type="line"/>
      <point x="501" y="291" type="line"/>
      <point x="501" y="366" type="line"/>
      <point x="43" y="366" type="line"/>
      <point x="43" y="355" type="line" smooth="yes"/>
      <point x="43" y="151"/>
      <point x="143" y="-12"/>
      <point x="301" y="-12" type="curve" smooth="yes"/>
      <point x="455" y="-12"/>
      <point x="560" y="138"/>
      <point x="560" y="352" type="curve" smooth="yes"/>
      <point x="560" y="565"/>
      <point x="453" y="712"/>
    </contour>
  </outline>
</glyph>
<glyph name="Eopen" format="2">
  <advance width="600"/>
  <unicode hex="0190"/>
  <outline>
    <contour>
      <point x="560" y="195" type="curve"/>
      <point x="473" y="189" type="line"/>
      <point x="475" y="121"/>
      <point x="412" y="68"/>
      <point x="309" y="68" type="curve" smooth="yes"/>
      <point x="213" y="68"/>
      <point x="144" y="115"/>
      <point x="144" y="199" type="curve" smooth="yes"/>
      <point x="144" y="267"/>
      <point x="190" y="322"/>
      <point x="288" y="322" type="curve" smooth="yes"/>
      <point x="370" y="322" type="line"/>
      <point x="370" y="402" type="line"/>
      <point x="289" y="402" type="line" smooth="yes"/>
      <point x="208" y="402"/>
      <point x="163" y="438"/>
      <point x="163" y="506" type="curve" smooth="yes"/>
      <point x="163" y="589"/>
      <point x="230" y="633"/>
      <point x="313" y="633" type="curve" smooth="yes"/>
      <point x="407" y="633"/>
      <point x="465" y="575"/>
      <point x="466" y="514" type="curve"/>
      <point x="553" y="508" type="line"/>
      <point x="555" y="631"/>
      <point x="446" y="712"/>
      <point x="311" y="712" type="curve" smooth="yes"/>
      <point x="175" y="712"/>
      <point x="74" y="628"/>
      <point x="74" y="510" type="curve" smooth="yes"/>
      <point x="74" y="423"/>
      <point x="134" y="378"/>
      <point x="191" y="362" type="curve"/>
      <point x="191" y="368" type="line"/>
      <point x="108" y="351"/>
      <point x="55" y="286"/>
      <point x="55" y="197" type="curve" smooth="yes"/>
      <point x="55" y="66"/>
      <point x="157" y="-12"/>
      <point x="311" y="-12" type="curve" smooth="yes"/>
      <point x="450" y="-12"/>
      <point x="565" y="60"/>
    </contour>
  </outline>
</glyph>
<glyph name="Khook" format="2">
  <advance width="600"/>
  <unicode hex="0198"/>
  <outline>
    <contour>
      <point x="93" y="700" type="line"/>
      <point x="93" y="0" type="line"/>
      <point x="184" y="0" type="line"/>
      <point x="184" y="700" type="line"/>
    </contour>
    <contour>
      <point x="233" y="348" type="line"/>
      <point x="494" y="0" type="line"/>
      <point x="609" y="0" type="line"/>
      <point x="294" y="416" type="line"/>
    </contour>
    <contour>
      <point x="537" y="627" type="curve" smooth="yes"/>
      <point x="559" y="627"/>
      <point x="582" y="618"/>
      <point x="599" y="610" type="curve"/>
      <point x="602" y="693" type="line"/>
      <point x="584" y="703"/>
      <point x="556" y="712"/>
      <point x="528" y="712" type="curve" smooth="yes"/>
      <point x="487" y="712"/>
      <point x="451" y="694"/>
      <point x="423" y="658" type="curve" smooth="yes"/>
      <point x="143" y="297" type="line"/>
      <point x="143" y="180" type="line"/>
      <point x="277" y="339" type="line"/>
      <point x="298" y="361" type="line"/>
      <point x="484" y="599" type="line" smooth="yes"/>
      <point x="500" y="619"/>
      <point x="517" y="627"/>
    </contour>
  </outline>
</glyph>
<glyph name="khook" format="2">
  <advance width="600"/>
  <unicode hex="0199"/>
  <outline>
    <contour>
      <point x="150" y="236" type="line"/>
      <point x="150" y="144" type="line"/>
      <point x="275" y="255" type="line"/>
      <point x="307" y="275" type="line"/>
      <point x="552" y="490" type="line"/>
      <point x="444" y="490" type="line"/>
    </contour>
    <contour>
      <point x="233" y="266" type="line"/>
      <point x="466" y="0" type="line"/>
      <point x="571" y="0" type="line"/>
      <point x="295" y="318" type="line"/>
    </contour>
    <contour>
      <point x="193" y="576" type="line"/>
      <point x="193" y="618"/>
      <point x="216" y="631"/>
      <point x="248" y="631" type="curve" smooth="yes"/>
      <point x="265" y="631"/>
      <point x="288" y="626"/>
      <point x="305" y="619" type="curve"/>
      <point x="308" y="692" type="line"/>
      <point x="290" y="700"/>
      <point x="261" y="706"/>
      <point x="233" y="706" type="curve" smooth="yes"/>
      <point x="151" y="706"/>
      <point x="105" y="654"/>
      <point x="105" y="581" type="curve" smooth="yes"/>
      <point x="105" y="0" type="line"/>
      <point x="193" y="0" type="line"/>
    </contour>
  </outline>
</glyph>
<glyph name="Nhookleft" format="2">
  <advance width="600"/>
  <unicode hex="019D"/>
  <outline>
    <contour>
      <point x="499" y="40" type="line"/>
      <point x="199" y="700" type="line"/>
      <point x="67" y="700" type="line"/>
      <point x="67" y="0" type="line"/>
      <point x="154" y="0" type="line"/>
      <point x="154" y="657" type="line"/>
      <point x="127" y="657" type="line"/>
      <point x="425" y="0" type="line"/>
      <point x="533" y="0" type="line"/>
      <point x="533" y="700" type="line"/>
      <point x="446" y="700" type="line"/>
      <point x="446" y="40" type="line"/>
    </contour>
    <contour>
      <point x="11" y="-111" type="curve" smooth="yes"/>
      <point x="-1" y="-111"/>
      <point x="-20" y="-109"/>
      <point x="-37" y="-103" type="curve"/>
      <point x="-37" y="-183" type="line"/>
      <point x="-19" y="-189"/>
      <point x="2" y="-192"/>
      <point x="21" y="-192" type="curve" smooth="yes"/>
      <point x="98" y="-192"/>
      <point x="154" y="-151"/>
      <point x="154" y="-66" type="curve" smooth="yes"/>
      <point x="154" y="80" type="line"/>
      <point x="67" y="80" type="line"/>
      <point x="67" y="-58" type="line" smooth="yes"/>
      <point x="67" y="-98"/>
      <point x="40" y="-111"/>
    </contour>
  </outline>
</glyph>
<glyph name="Uhorn" format="2">
  <advance width="600"/>
  <unicode hex="01AF"/>
  <outline>
    <contour>
      <point x="64" y="216" type="line" smooth="yes"/>
      <point x="64" y="81"/>
      <point x="157" y="-12"/>
      <point x="301" y="-12" type="curve" smooth="yes"/>
      <point x="445" y="-12"/>
      <point x="536" y="81"/>
      <point x="536" y="216" type="curve" smooth="yes"/>
      <point x="536" y="700" type="line"/>
      <point x="446" y="700" type="line"/>
      <point x="446" y="224" type="line" smooth="yes"/>
      <point x="446" y="132"/>
      <point x="395" y="71"/>
      <point x="301" y="71" type="curve" smooth="yes"/>
      <point x="207" y="71"/>
      <point x="155" y="132"/>
      <point x="155" y="224" type="curve" smooth="yes"/>
      <point x="155" y="700" type="line"/>
      <point x="64" y="700" type="line"/>
    </contour>
    <component base="horncmb.uc" xOffset="223"/>
  </outline>
</glyph>
<glyph name="Yhook" format="2">
  <advance width="600"/>
  <unicode hex="01B3"/>
  <outline>
    <contour>
      <point x="575" y="628" type="curve" smooth="yes"/>
      <point x="584" y="628"/>
      <point x="596" y="626"/>
      <point x="609" y="620" type="curve"/>
      <point x="612" y="701" type="line"/>
      <point x="596" y="709"/>
      <point x="579" y="712"/>
      <point x="562" y="712" type="curve" smooth="yes"/>
      <point x="522" y="712"/>
      <point x="487" y="692"/>
      <point x="461" y="649" type="curve" smooth="yes"/>
      <point x="275" y="344" type="line"/>
      <point x="326" y="344" type="line"/>
      <point x="109" y="700" type="line"/>
      <point x="7" y="700" type="line"/>
      <point x="254" y="297" type="line"/>
      <point x="254" y="0" type="line"/>
      <point x="345" y="0" type="line"/>
      <point x="345" y="297" type="line"/>
      <point x="527" y="594" type="line" smooth="yes"/>
      <point x="544" y="621"/>
      <point x="560" y="628"/>
    </contour>
  </outline>
</glyph>
<glyph name="Icaron" format="2">
  <advance width="600"/>
  <unicode hex="01CF"/>
  <outline>
    <contour>
      <point x="142" y="892" type="line"/>
      <point x="254" y="771" type="line"/>
      <point x="346" y="771" type="line"/>
      <point x="458" y="892" type="line"/>
      <point x="373" y="892" type="line"/>
      <point x="274" y="810" type="line"/>
      <point x="326" y="810" type="line"/>
      <point x="227" y="892" type="line"/>
    </contour>
    <component base="I"/>
  </outline>
</glyph>
<glyph name="icaron" format="2">
  <advance width="600"/>
  <unicode hex="01D0"/>
  <outline>
    <contour>
      <point x="273" y="570" type="line"/>
      <point x="367" y="570" type="line"/>
      <point x="469" y="700" type="line"/>
      <point x="387" y="700" type="line"/>
      <point x="293" y="599" type="line"/>
      <point x="347" y="599" type="line"/>
      <point x="253" y="700" type="line"/>
      <point x="171" y="700" type="line"/>
    </contour>
    <component base="dotlessi"/>
  </outline>
</glyph>
<glyph name="Oogonek" format="2">
  <advance width="600"/>
  <unicode hex="01EA"/>
  <outline>
    <contour>
      <point x="310" y="-195" type="curve" smooth="yes"/>
      <point x="326" y="-195"/>
      <point x="358" y="-193"/>
      <point x="389" y="-183" type="curve"/>
      <point x="385" y="-128" type="line"/>
      <point x="370" y="-132"/>
      <point x="352" y="-135"/>
      <point x="335" y="-135" type="curve" smooth="yes"/>
      <point x="304" y="-135"/>
      <point x="289" y="-125"/>
      <point x="289" y="-103" type="curve" smooth="yes"/>
      <point x="289" y="-68"/>
      <point x="337" y="-16"/>
      <point x="381" y="2" type="curve" smooth="yes"/>
      <point x="488" y="46"/>
      <point x="562" y="171"/>
      <point x="562" y="350" type="curve" smooth="yes"/>
      <point x="562" y="564"/>
      <point x="455" y="712"/>
      <point x="300" y="712" type="curve" smooth="yes"/>
      <point x="145" y="712"/>
      <point x="38" y="564"/>
      <point x="38" y="350" type="curve" smooth="yes"/>
      <point x="38" y="133"/>
      <point x="149" y="-16"/>
      <point x="307" y="-12" type="curve"/>
      <point x="311" y="-12"/>
      <point x="315" y="-12"/>
      <point x="319" y="-12" type="curve"/>
      <point x="306" y="3" type="line"/>
      <point x="258" y="-19"/>
      <point x="217" y="-72"/>
      <point x="217" y="-120" type="curve" smooth="yes"/>
      <point x="217" y="-155"/>
      <point x="240" y="-195"/>
    </contour>
    <contour>
      <point x="300" y="69" type="curve" smooth="yes"/>
      <point x="193" y="69"/>
      <point x="130" y="181"/>
      <point x="130" y="350" type="curve" smooth="yes"/>
      <point x="130" y="519"/>
      <point x="193" y="631"/>
      <point x="300" y="631" type="curve" smooth="yes"/>
      <point x="407" y="631"/>
      <point x="470" y="519"/>
      <point x="470" y="350" type="curve" smooth="yes"/>
      <point x="470" y="181"/>
      <point x="407" y="69"/>
    </contour>
  </outline>
</glyph>
<glyph name="oogonek" format="2">
  <advance width="600"/>
  <unicode hex="01EB"/>
  <outline>
    <contour>
      <point x="307" y="-195" type="curve" smooth="yes"/>
      <point x="323" y="-195"/>
      <point x="355" y="-193"/>
      <point x="386" y="-183" type="curve"/>
      <point x="382" y="-128" type="line"/>
      <point x="367" y="-132"/>
      <point x="349" y="-135"/>
      <point x="332" y="-135" type="curve" smooth="yes"/>
      <point x="301" y="-135"/>
      <point x="286" y="-125"/>
      <point x="286" y="-103" type="curve" smooth="yes"/>
      <point x="286" y="-69"/>
      <point x="328" y="-22"/>
      <point x="379" y="-2" type="curve" smooth="yes"/>
      <point x="477" y="37"/>
      <point x="541" y="117"/>
      <point x="541" y="245" type="curve" smooth="yes"/>
      <point x="541" y="403"/>
      <point x="437" y="502"/>
      <point x="300" y="502" type="curve" smooth="yes"/>
      <point x="163" y="502"/>
      <point x="59" y="403"/>
      <point x="59" y="245" type="curve" smooth="yes"/>
      <point x="59" y="88"/>
      <point x="162" y="-11"/>
      <point x="297" y="-11" type="curve" smooth="yes"/>
      <point x="301" y="-11"/>
      <point x="305" y="-11"/>
      <point x="309" y="-11" type="curve"/>
      <point x="304" y="3" type="line"/>
      <point x="259" y="-19"/>
      <point x="214" y="-72"/>
      <point x="214" y="-120" type="curve" smooth="yes"/>
      <point x="214" y="-155"/>
      <point x="237" y="-195"/>
    </contour>
    <contour>
      <point x="300" y="432" type="curve" smooth="yes"/>
      <point x="395" y="432"/>
      <point x="452" y="360"/>
      <point x="452" y="245" type="curve" smooth="yes"/>
      <point x="452" y="130"/>
      <point x="395" y="58"/>
      <point x="300" y="58" type="curve" smooth="yes"/>
      <point x="205" y="58"/>
      <point x="148" y="130"/>
      <point x="148" y="245" type="curve" smooth="yes"/>
      <point x="148" y="360"/>
      <point x="205" y="432"/>
    </contour>
  </outline>
</glyph>
<glyph name="dotlessj" format="2">
  <advance width="600"/>
  <unicode hex="0237"/>
  <guideline x="401" y="614" angle="90" name="center" identifier="gyeq5WPwhy"/>
  <outline>
    <contour>
      <point x="85" y="-170" type="line"/>
      <point x="144" y="-186"/>
      <point x="178" y="-189"/>
      <point x="214" y="-189" type="curve" smooth="yes"/>
      <point x="344" y="-189"/>
      <point x="438" y="-149"/>
      <point x="438" y="-8" type="curve" smooth="yes"/>
      <point x="438" y="490" type="line"/>
      <point x="350" y="490" type="line"/>
      <point x="350" y="-8" type="line" smooth="yes"/>
      <point x="350" y="-90"/>
      <point x="291" y="-116"/>
      <point x="207" y="-116" type="curve" smooth="yes"/>
      <point x="178" y="-116"/>
      <point x="144" y="-113"/>
      <point x="85" y="-100" type="curve"/>
    </contour>
    <contour>
      <point x="99" y="421" type="line"/>
      <point x="398" y="421" type="line"/>
      <point x="398" y="490" type="line"/>
      <point x="99" y="490" type="line"/>
    </contour>
  </outline>
</glyph>
<glyph name="bhook" format="2">
  <advance width="600"/>
  <unicode hex="0253"/>
  <outline>
    <contour>
      <point x="318" y="58" type="curve" smooth="yes"/>
      <point x="226" y="58"/>
      <point x="172" y="130"/>
      <point x="172" y="245" type="curve" smooth="yes"/>
      <point x="172" y="360"/>
      <point x="226" y="432"/>
      <point x="318" y="432" type="curve" smooth="yes"/>
      <point x="410" y="432"/>
      <point x="464" y="360"/>
      <point x="464" y="245" type="curve" smooth="yes"/>
      <point x="464" y="130"/>
      <point x="410" y="58"/>
    </contour>
    <contour>
      <point x="90" y="581" type="curve" smooth="yes"/>
      <point x="90" y="0" type="line"/>
      <point x="178" y="0" type="line"/>
      <point x="178" y="117" type="line"/>
      <point x="149" y="117" type="line"/>
      <point x="188" y="32"/>
      <point x="260" y="-12"/>
      <point x="347" y="-12" type="curve" smooth="yes"/>
      <point x="457" y="-12"/>
      <point x="553" y="76"/>
      <point x="553" y="244" type="curve" smooth="yes"/>
      <point x="553" y="411"/>
      <point x="457" y="502"/>
      <point x="347" y="502" type="curve" smooth="yes"/>
      <point x="260" y="502"/>
      <point x="188" y="457"/>
      <point x="149" y="371" type="curve"/>
      <point x="178" y="371" type="line"/>
      <point x="178" y="576" type="line" smooth="yes"/>
      <point x="178" y="618"/>
      <point x="201" y="631"/>
      <point x="233" y="631" type="curve" smooth="yes"/>
      <point x="250" y="631"/>
      <point x="273" y="626"/>
      <point x="290" y="619" type="curve"/>
      <point x="293" y="692" type="line"/>
      <point x="275" y="700"/>
      <point x="246" y="706"/>
      <point x="218" y="706" type="curve" smooth="yes"/>
      <point x="136" y="706"/>
      <point x="90" y="654"/>
    </contour>
  </outline>
</glyph>
<glyph name="oopen" format="2">
  <advance width="600"/>
  <unicode hex="0254"/>
  <outline>
    <contour>
      <point x="65" y="140" type="line"/>
      <point x="92" y="43"/>
      <point x="181" y="-12"/>
      <point x="292" y="-12" type="curve" smooth="yes"/>
      <point x="434" y="-12"/>
      <point x="533" y="87"/>
      <point x="533" y="245" type="curve" smooth="yes"/>
      <point x="533" y="403"/>
      <point x="434" y="502"/>
      <point x="292" y="502" type="curve" smooth="yes"/>
      <point x="181" y="502"/>
      <point x="92" y="449"/>
      <point x="65" y="352" type="curve"/>
      <point x="151" y="326" type="line"/>
      <point x="168" y="395"/>
      <point x="223" y="432"/>
      <point x="293" y="432" type="curve" smooth="yes"/>
      <point x="388" y="432"/>
      <point x="444" y="360"/>
      <point x="444" y="245" type="curve" smooth="yes"/>
      <point x="444" y="130"/>
      <point x="388" y="58"/>
      <point x="293" y="58" type="curve" smooth="yes"/>
      <point x="223" y="58"/>
      <point x="167" y="97"/>
      <point x="151" y="166" type="curve"/>
    </contour>
  </outline>
</glyph>
<glyph name="dhook" format="2">
  <advance width="600"/>
  <unicode hex="0257"/>
  <outline>
    <contour>
      <point x="282" y="58" type="curve" smooth="yes"/>
      <point x="190" y="58"/>
      <point x="136" y="130"/>
      <point x="136" y="245" type="curve" smooth="yes"/>
      <point x="136" y="360"/>
      <point x="190" y="432"/>
      <point x="282" y="432" type="curve" smooth="yes"/>
      <point x="374" y="432"/>
      <point x="428" y="360"/>
      <point x="428" y="245" type="curve" smooth="yes"/>
      <point x="428" y="130"/>
      <point x="374" y="58"/>
    </contour>
    <contour>
      <point x="510" y="576" type="line"/>
      <point x="510" y="618"/>
      <point x="533" y="631"/>
      <point x="565" y="631" type="curve" smooth="yes"/>
      <point x="582" y="631"/>
      <point x="605" y="626"/>
      <point x="622" y="619" type="curve"/>
      <point x="625" y="692" type="line"/>
      <point x="607" y="700"/>
      <point x="578" y="706"/>
      <point x="550" y="706" type="curve" smooth="yes"/>
      <point x="468" y="706"/>
      <point x="422" y="654"/>
      <point x="422" y="581" type="curve" smooth="yes"/>
      <point x="422" y="371" type="line"/>
      <point x="451" y="371" type="line"/>
      <point x="412" y="457"/>
      <point x="340" y="502"/>
      <point x="253" y="502" type="curve" smooth="yes"/>
      <point x="143" y="502"/>
      <point x="47" y="411"/>
      <point x="47" y="244" type="curve" smooth="yes"/>
      <point x="47" y="76"/>
      <point x="143" y="-12"/>
      <point x="253" y="-12" type="curve" smooth="yes"/>
      <point x="340" y="-12"/>
      <point x="412" y="32"/>
      <point x="451" y="117" type="curve"/>
      <point x="422" y="117" type="line"/>
      <point x="422" y="0" type="line"/>
      <point x="510" y="0" type="line"/>
    </contour>
  </outline>
</glyph>
<glyph name="schwa" format="2">
  <advance width="600"/>
  <unicode hex="0259"/>
  <outline>
    <contour>
      <point x="295" y="502" type="curve" smooth="yes"/>
      <point x="180" y="502"/>
      <point x="96" y="443"/>
      <point x="64" y="350" type="curve"/>
      <point x="144" y="326" type="line"/>
      <point x="166" y="390"/>
      <point x="218" y="432"/>
      <point x="295" y="432" type="curve" smooth="yes"/>
      <point x="394" y="432"/>
      <point x="453" y="367"/>
      <point x="453" y="246" type="curve" smooth="yes"/>
      <point x="453" y="131"/>
      <point x="395" y="58"/>
      <point x="299" y="58" type="curve" smooth="yes"/>
      <point x="209" y="58"/>
      <point x="143" y="116"/>
      <point x="143" y="243" type="curve"/>
      <point x="130" y="198" type="line"/>
      <point x="492" y="198" type="line"/>
      <point x="492" y="264" type="line"/>
      <point x="57" y="264" type="line"/>
      <point x="57" y="248" type="line" smooth="yes"/>
      <point x="57" y="97"/>
      <point x="155" y="-12"/>
      <point x="299" y="-12" type="curve" smooth="yes"/>
      <point x="439" y="-12"/>
      <point x="541" y="86"/>
      <point x="541" y="246" type="curve" smooth="yes"/>
      <point x="541" y="405"/>
      <point x="436" y="502"/>
    </contour>
  </outline>
</glyph>
<glyph name="eopen" format="2">
  <advance width="600"/>
  <unicode hex="025B"/>
  <outline>
    <contour>
      <point x="534" y="147" type="curve"/>
      <point x="446" y="141" type="line"/>
      <point x="443" y="94"/>
      <point x="389" y="55"/>
      <point x="305" y="55" type="curve" smooth="yes"/>
      <point x="219" y="55"/>
      <point x="163" y="89"/>
      <point x="163" y="139" type="curve" smooth="yes"/>
      <point x="163" y="188"/>
      <point x="210" y="218"/>
      <point x="286" y="218" type="curve" smooth="yes"/>
      <point x="351" y="218" type="line"/>
      <point x="351" y="288" type="line"/>
      <point x="287" y="288" type="line" smooth="yes"/>
      <point x="223" y="288"/>
      <point x="175" y="307"/>
      <point x="175" y="355" type="curve" smooth="yes"/>
      <point x="175" y="407"/>
      <point x="229" y="435"/>
      <point x="305" y="435" type="curve" smooth="yes"/>
      <point x="384" y="435"/>
      <point x="441" y="398"/>
      <point x="441" y="350" type="curve"/>
      <point x="529" y="343" type="line"/>
      <point x="534" y="443"/>
      <point x="433" y="502"/>
      <point x="304" y="502" type="curve" smooth="yes"/>
      <point x="180" y="502"/>
      <point x="85" y="442"/>
      <point x="85" y="359" type="curve" smooth="yes"/>
      <point x="85" y="295"/>
      <point x="141" y="265"/>
      <point x="192" y="253" type="curve"/>
      <point x="192" y="258" type="line"/>
      <point x="123" y="246"/>
      <point x="72" y="203"/>
      <point x="72" y="138" type="curve" smooth="yes"/>
      <point x="72" y="44"/>
      <point x="180" y="-12"/>
      <point x="306" y="-12" type="curve" smooth="yes"/>
      <point x="438" y="-12"/>
      <point x="535" y="41"/>
    </contour>
  </outline>
</glyph>
<glyph name="istroke" format="2">
  <advance width="600"/>
  <unicode hex="0268"/>
  <outline>
    <contour>
      <point x="559" y="237" type="line"/>
      <point x="559" y="306" type="line"/>
      <point x="76" y="306" type="line"/>
      <point x="76" y="237" type="line"/>
    </contour>
    <component base="i" identifier="0901C722"/>
  </outline>
</glyph>
<glyph name="vturned" format="2">
  <advance width="600"/>
  <unicode hex="028C"/>
  <outline>
    <contour>
      <point x="346" y="490" type="line"/>
      <point x="252" y="490" type="line"/>
      <point x="42" y="0" type="line"/>
      <point x="135" y="0" type="line"/>
      <point x="319" y="442" type="line"/>
      <point x="278" y="442" type="line"/>
      <point x="464" y="0" type="line"/>
      <point x="558" y="0" type="line"/>
    </contour>
  </outline>
</glyph>
<glyph name="ringhalfrightmod" format="2">
  <advance width="600"/>
  <unicode hex="02BE"/>
  <outline>
    <contour>
      <point x="225" y="446" type="line" smooth="yes"/>
      <point x="278" y="446"/>
      <point x="313" y="484"/>
      <point x="313" y="537" type="curve" smooth="yes"/>
      <point x="313" y="590"/>
      <point x="278" y="629"/>
      <point x="225" y="629" type="curve" smooth="yes"/>
      <point x="211" y="629" type="line"/>
      <point x="211" y="700" type="line"/>
      <point x="225" y="700" type="line" smooth="yes"/>
      <point x="317" y="700"/>
      <point x="389" y="632"/>
      <point x="389" y="537" type="curve" smooth="yes"/>
      <point x="389" y="442"/>
      <point x="317" y="375"/>
      <point x="225" y="375" type="curve" smooth="yes"/>
      <point x="211" y="375" type="line"/>
      <point x="211" y="446" type="line"/>
    </contour>
  </outline>
</glyph>
<glyph name="ringhalfleftmod" format="2">
  <advance width="600"/>
  <unicode hex="02BF"/>
  <outline>
    <contour>
      <point x="375" y="446" type="line"/>
      <point x="322" y="446"/>
      <point x="287" y="484"/>
      <point x="287" y="537" type="curve" smooth="yes"/>
      <point x="287" y="590"/>
      <point x="322" y="629"/>
      <point x="375" y="629" type="curve" smooth="yes"/>
      <point x="389" y="629" type="line"/>
      <point x="389" y="700" type="line"/>
      <point x="375" y="700" type="line" smooth="yes"/>
      <point x="283" y="700"/>
      <point x="211" y="632"/>
      <point x="211" y="537" type="curve" smooth="yes"/>
      <point x="211" y="442"/>
      <point x="283" y="375"/>
      <point x="375" y="375" type="curve" smooth="yes"/>
      <point x="389" y="375" type="line"/>
      <point x="389" y="446" type="line"/>
    </contour>
  </outline>
</glyph>
<glyph name="gravecmb" format="2">
  <advance width="600"/>
  <unicode hex="0300"/>
  <outline>
    <contour>
      <point x="308" y="700" type="line"/>
      <point x="368" y="570" type="line"/>
      <point x="292" y="570" type="line"/>
      <point x="213" y="700" type="line"/>
    </contour>
  </outline>
</glyph>
<glyph name="acutecmb" format="2">
  <advance width="600"/>
  <unicode hex="0301"/>
  <outline>
    <contour>
      <point x="292" y="700" type="line"/>
      <point x="387" y="700" type="line"/>
      <point x="308" y="570" type="line"/>
      <point x="232" y="570" type="line"/>
    </contour>
  </outline>
</glyph>
<glyph name="circumflexcmb" format="2">
  <advance width="600"/>
  <unicode hex="0302"/>
  <outline>
    <contour>
      <point x="253" y="700" type="line"/>
      <point x="151" y="570" type="line"/>
      <point x="231" y="570" type="line"/>
      <point x="327" y="671" type="line"/>
      <point x="273" y="671" type="line"/>
      <point x="369" y="570" type="line"/>
      <point x="449" y="570" type="line"/>
      <point x="347" y="700" type="line"/>
    </contour>
  </outline>
</glyph>
<glyph name="tildecmb" format="2">
  <advance width="600"/>
  <unicode hex="0303"/>
  <outline>
    <contour>
      <point x="245" y="680" type="curve" smooth="yes"/>
      <point x="195" y="680"/>
      <point x="169" y="635"/>
      <point x="166" y="570" type="curve"/>
      <point x="225" y="570" type="line"/>
      <point x="228" y="595"/>
      <point x="233" y="609"/>
      <point x="251" y="609" type="curve" smooth="yes"/>
      <point x="277" y="609"/>
      <point x="314" y="577"/>
      <point x="355" y="577" type="curve" smooth="yes"/>
      <point x="405" y="577"/>
      <point x="431" y="621"/>
      <point x="434" y="686" type="curve"/>
      <point x="374" y="686" type="line"/>
      <point x="372" y="661"/>
      <point x="367" y="647"/>
      <point x="349" y="647" type="curve" smooth="yes"/>
      <point x="323" y="647"/>
      <point x="286" y="680"/>
    </contour>
  </outline>
</glyph>
<glyph name="macroncmb" format="2">
  <advance width="600"/>
  <unicode hex="0304"/>
  <outline>
    <contour>
      <point x="166" y="602" type="line"/>
      <point x="434" y="602" type="line"/>
      <point x="434" y="675" type="line"/>
      <point x="166" y="675" type="line"/>
    </contour>
  </outline>
</glyph>
<glyph name="brevecmb" format="2">
  <advance width="600"/>
  <unicode hex="0306"/>
  <outline>
    <contour>
      <point x="164" y="700" type="line"/>
      <point x="164" y="626"/>
      <point x="214" y="565"/>
      <point x="300" y="565" type="curve" smooth="yes"/>
      <point x="386" y="565"/>
      <point x="436" y="626"/>
      <point x="436" y="700" type="curve"/>
      <point x="367" y="700" type="line"/>
      <point x="367" y="659"/>
      <point x="343" y="629"/>
      <point x="300" y="629" type="curve" smooth="yes"/>
      <point x="257" y="629"/>
      <point x="233" y="659"/>
      <point x="233" y="700" type="curve"/>
    </contour>
  </outline>
</glyph>
<glyph name="dieresiscmb" format="2">
  <advance width="600"/>
  <unicode hex="0308"/>
  <outline>
    <contour>
      <point x="162" y="700" type="line"/>
      <point x="162" y="588" type="line"/>
      <point x="264" y="588" type="line"/>
      <point x="264" y="700" type="line"/>
    </contour>
    <contour>
      <point x="335" y="700" type="line"/>
      <point x="335" y="588" type="line"/>
      <point x="437" y="588" type="line"/>
      <point x="437" y="700" type="line"/>
    </contour>
  </outline>
</glyph>
<glyph name="hookabovecmb" format="2">
  <advance width="600"/>
  <unicode hex="0309"/>
  <outline>
    <contour>
      <point x="331" y="662" type="curve" smooth="yes"/>
      <point x="331" y="637"/>
      <point x="309" y="620"/>
      <point x="273" y="608" type="curve"/>
      <point x="307" y="568" type="line"/>
      <point x="349" y="579"/>
      <point x="389" y="610"/>
      <point x="389" y="663" type="curve" smooth="yes"/>
      <point x="389" y="710"/>
      <point x="355" y="751"/>
      <point x="300" y="751" type="curve" smooth="yes"/>
      <point x="260" y="751"/>
      <point x="226" y="728"/>
      <point x="208" y="695" type="curve"/>
      <point x="248" y="665" type="line"/>
      <point x="257" y="679"/>
      <point x="270" y="697"/>
      <point x="295" y="697" type="curve" smooth="yes"/>
      <point x="317" y="697"/>
      <point x="331" y="682"/>
    </contour>
  </outline>
</glyph>
<glyph name="ringabovecmb" format="2">
  <advance width="600"/>
  <unicode hex="030A"/>
  <outline>
    <contour>
      <point x="395" y="658" type="curve" smooth="yes"/>
      <point x="395" y="710"/>
      <point x="354" y="752"/>
      <point x="300" y="752" type="curve" smooth="yes"/>
      <point x="246" y="752"/>
      <point x="205" y="710"/>
      <point x="205" y="658" type="curve" smooth="yes"/>
      <point x="205" y="606"/>
      <point x="246" y="564"/>
      <point x="300" y="564" type="curve" smooth="yes"/>
      <point x="354" y="564"/>
      <point x="395" y="606"/>
    </contour>
    <contour>
      <point x="343" y="658" type="curve" smooth="yes"/>
      <point x="343" y="634"/>
      <point x="326" y="613"/>
      <point x="300" y="613" type="curve" smooth="yes"/>
      <point x="274" y="613"/>
      <point x="257" y="634"/>
      <point x="257" y="658" type="curve" smooth="yes"/>
      <point x="257" y="683"/>
      <point x="274" y="703"/>
      <point x="300" y="703" type="curve" smooth="yes"/>
      <point x="326" y="703"/>
      <point x="343" y="683"/>
    </contour>
  </outline>
</glyph>
<glyph name="hungarumlautcmb" format="2">
  <advance width="600"/>
  <unicode hex="030B"/>
  <guideline x="266" y="570" angle="90" name="center" identifier="qqE52RWXT3"/>
  <outline>
    <contour>
      <point x="216" y="700" type="line"/>
      <point x="160" y="570" type="line"/>
      <point x="234" y="570" type="line"/>
      <point x="302" y="700" type="line"/>
    </contour>
    <contour>
      <point x="350" y="700" type="line"/>
      <point x="294" y="570" type="line"/>
      <point x="368" y="570" type="line"/>
      <point x="436" y="700" type="line"/>
    </contour>
  </outline>
</glyph>
<glyph name="caroncmb" format="2">
  <advance width="600"/>
  <unicode hex="030C"/>
  <outline>
    <contour>
      <point x="253" y="570" type="line"/>
      <point x="347" y="570" type="line"/>
      <point x="449" y="700" type="line"/>
      <point x="367" y="700" type="line"/>
      <point x="273" y="599" type="line"/>
      <point x="327" y="599" type="line"/>
      <point x="233" y="700" type="line"/>
      <point x="151" y="700" type="line"/>
    </contour>
  </outline>
</glyph>
<glyph name="commaturnedabovecmb" format="2">
  <advance width="600"/>
  <unicode hex="0312"/>
  <outline>
    <contour>
      <point x="355" y="597" type="line"/>
      <point x="355" y="709" type="line"/>
      <point x="302" y="709" type="line"/>
      <point x="302" y="715" type="line" smooth="yes"/>
      <point x="302" y="747"/>
      <point x="327" y="767"/>
      <point x="367" y="767" type="curve"/>
      <point x="367" y="812" type="line"/>
      <point x="272" y="812"/>
      <point x="245" y="750"/>
      <point x="245" y="715" type="curve" smooth="yes"/>
      <point x="245" y="597" type="line"/>
    </contour>
  </outline>
</glyph>
<glyph name="horncmb" format="2">
  <advance width="600"/>
  <unicode hex="031B"/>
  <outline>
    <contour>
      <point x="312" y="609" type="line"/>
      <point x="320" y="573"/>
      <point x="323" y="553"/>
      <point x="323" y="538" type="curve" smooth="yes"/>
      <point x="323" y="495"/>
      <point x="301" y="490"/>
      <point x="266" y="490" type="curve" smooth="yes"/>
      <point x="230" y="490" type="line"/>
      <point x="230" y="433" type="line"/>
      <point x="273" y="433" type="line" smooth="yes"/>
      <point x="359" y="433"/>
      <point x="395" y="459"/>
      <point x="395" y="528" type="curve" smooth="yes"/>
      <point x="395" y="549"/>
      <point x="391" y="574"/>
      <point x="380" y="609" type="curve"/>
    </contour>
  </outline>
</glyph>
<glyph name="dotbelowcmb" format="2">
  <advance width="600"/>
  <unicode hex="0323"/>
  <outline>
    <contour>
      <point x="245" y="-68" type="line"/>
      <point x="245" y="-180" type="line"/>
      <point x="355" y="-180" type="line"/>
      <point x="355" y="-68" type="line"/>
    </contour>
  </outline>
</glyph>
<glyph name="commaaccentbelowcmb" format="2">
  <advance width="600"/>
  <unicode hex="0326"/>
  <outline>
    <contour>
      <point x="245" y="-68" type="line"/>
      <point x="245" y="-180" type="line"/>
      <point x="298" y="-180" type="line"/>
      <point x="298" y="-186" type="line" smooth="yes"/>
      <point x="298" y="-218"/>
      <point x="273" y="-238"/>
      <point x="233" y="-238" type="curve"/>
      <point x="233" y="-283" type="line"/>
      <point x="328" y="-283"/>
      <point x="355" y="-221"/>
      <point x="355" y="-186" type="curve" smooth="yes"/>
      <point x="355" y="-68" type="line"/>
    </contour>
  </outline>
</glyph>
<glyph name="cedillacmb" format="2">
  <advance width="600"/>
  <unicode hex="0327"/>
  <outline>
    <contour>
      <point x="176" y="-197" type="line"/>
      <point x="199" y="-209"/>
      <point x="233" y="-218"/>
      <point x="271" y="-218" type="curve" smooth="yes"/>
      <point x="357" y="-218"/>
      <point x="406" y="-175"/>
      <point x="406" y="-121" type="curve" smooth="yes"/>
      <point x="406" y="-79"/>
      <point x="373" y="-47"/>
      <point x="314" y="-47" type="curve" smooth="yes"/>
      <point x="295" y="-47"/>
      <point x="272" y="-51"/>
      <point x="246" y="-62" type="curve"/>
      <point x="269" y="-81" type="line"/>
      <point x="326" y="0" type="line"/>
      <point x="271" y="0" type="line"/>
      <point x="213" y="-83" type="line"/>
      <point x="230" y="-107" type="line"/>
      <point x="245" y="-103"/>
      <point x="256" y="-100"/>
      <point x="275" y="-100" type="curve" smooth="yes"/>
      <point x="299" y="-100"/>
      <point x="332" y="-104"/>
      <point x="332" y="-130" type="curve" smooth="yes"/>
      <point x="332" y="-154"/>
      <point x="305" y="-161"/>
      <point x="269" y="-161" type="curve" smooth="yes"/>
      <point x="231" y="-161"/>
      <point x="206" y="-153"/>
      <point x="183" y="-144" type="curve"/>
    </contour>
  </outline>
</glyph>
<glyph name="ogonekcmb" format="2">
  <advance width="600"/>
  <unicode hex="0328"/>
  <outline>
    <contour>
      <point x="303" y="-195" type="curve" smooth="yes"/>
      <point x="319" y="-195"/>
      <point x="351" y="-193"/>
      <point x="382" y="-183" type="curve"/>
      <point x="378" y="-128" type="line"/>
      <point x="363" y="-132"/>
      <point x="345" y="-135"/>
      <point x="328" y="-135" type="curve" smooth="yes"/>
      <point x="297" y="-135"/>
      <point x="282" y="-125"/>
      <point x="282" y="-103" type="curve" smooth="yes"/>
      <point x="282" y="-68"/>
      <point x="322" y="-31"/>
      <point x="369" y="0" type="curve"/>
      <point x="296" y="0" type="line"/>
      <point x="252" y="-23"/>
      <point x="210" y="-73"/>
      <point x="210" y="-120" type="curve" smooth="yes"/>
      <point x="210" y="-155"/>
      <point x="233" y="-195"/>
    </contour>
  </outline>
</glyph>
<glyph name="overlaystrokeshortcmb" format="2">
  <advance width="600"/>
  <unicode hex="0335"/>
  <outline>
    <contour>
      <point x="125" y="319" type="line"/>
      <point x="476" y="319" type="line"/>
      <point x="476" y="397" type="line"/>
      <point x="125" y="397" type="line"/>
    </contour>
  </outline>
</glyph>
<glyph name="lmacrondot" format="2">
  <advance width="600"/>
  <unicode hex="1E39"/>
  <outline>
    <contour>
      <point x="159" y="773" type="line"/>
      <point x="441" y="773" type="line"/>
      <point x="441" y="850" type="line"/>
      <point x="159" y="850" type="line"/>
    </contour>
    <component base="l"/>
    <component base="dotbelowcmb"/>
  </outline>
</glyph>
<glyph name="Germandbls" format="2">
  <advance width="600"/>
  <unicode hex="1E9E"/>
  <outline>
    <contour>
      <point x="67" y="700" type="line"/>
      <point x="67" y="0" type="line"/>
      <point x="158" y="0" type="line"/>
      <point x="158" y="700" type="line"/>
    </contour>
    <contour>
      <point x="530" y="618" type="line"/>
      <point x="530" y="700" type="line"/>
      <point x="102" y="700" type="line"/>
      <point x="102" y="618" type="line"/>
      <point x="486" y="618" type="line"/>
      <point x="454" y="649" type="line"/>
      <point x="242" y="421" type="line"/>
      <point x="242" y="351" type="line"/>
      <point x="339" y="351" type="line" smooth="yes"/>
      <point x="443" y="351"/>
      <point x="486" y="293"/>
      <point x="486" y="212" type="curve" smooth="yes"/>
      <point x="486" y="127"/>
      <point x="436" y="68"/>
      <point x="341" y="68" type="curve" smooth="yes"/>
      <point x="313" y="68"/>
      <point x="272" y="73"/>
      <point x="229" y="87" type="curve"/>
      <point x="229" y="7" type="line"/>
      <point x="273" y="-7"/>
      <point x="315" y="-12"/>
      <point x="343" y="-12" type="curve" smooth="yes"/>
      <point x="485" y="-12"/>
      <point x="578" y="81"/>
      <point x="578" y="211" type="curve" smooth="yes"/>
      <point x="578" y="337"/>
      <point x="493" y="428"/>
      <point x="353" y="428" type="curve" smooth="yes"/>
      <point x="292" y="428" type="line"/>
      <point x="332" y="406" type="line"/>
    </contour>
  </outline>
</glyph>
<glyph name="emdash" format="2">
  <advance width="600"/>
  <unicode hex="2014"/>
  <outline>
    <contour>
      <point x="36" y="260" type="line"/>
      <point x="564" y="260" type="line"/>
      <point x="564" y="332" type="line"/>
      <point x="36" y="332" type="line"/>
    </contour>
  </outline>
</glyph>
<glyph name="quotedblright" format="2">
  <advance width="600"/>
  <unicode hex="201D"/>
  <outline>
    <contour>
      <point x="150" y="700" type="line"/>
      <point x="150" y="551" type="line"/>
      <point x="213" y="551" type="line"/>
      <point x="213" y="539" type="line" smooth="yes"/>
      <point x="213" y="491"/>
      <point x="182" y="461"/>
      <point x="129" y="461" type="curve"/>
      <point x="129" y="405" type="line"/>
      <point x="246" y="405"/>
      <point x="276" y="489"/>
      <point x="276" y="539" type="curve" smooth="yes"/>
      <point x="276" y="700" type="line"/>
    </contour>
    <contour>
      <point x="346" y="700" type="line"/>
      <point x="346" y="551" type="line"/>
      <point x="409" y="551" type="line"/>
      <point x="409" y="539" type="line" smooth="yes"/>
      <point x="409" y="491"/>
      <point x="378" y="461"/>
      <point x="325" y="461" type="curve"/>
      <point x="325" y="405" type="line"/>
      <point x="442" y="405"/>
      <point x="472" y="489"/>
      <point x="472" y="539" type="curve" smooth="yes"/>
      <point x="472" y="700" type="line"/>
    </contour>
  </outline>
</glyph>
<glyph name="dagger" format="2">
  <advance width="600"/>
  <unicode hex="2020"/>
  <outline>
    <contour>
      <point x="264" y="193" type="line"/>
      <point x="336" y="193" type="line"/>
      <point x="336" y="700" type="line"/>
      <point x="264" y="700" type="line"/>
    </contour>
    <contour>
      <point x="132" y="557" type="line"/>
      <point x="132" y="490" type="line"/>
      <point x="468" y="490" type="line"/>
      <point x="468" y="557" type="line"/>
    </contour>
  </outline>
</glyph>
<glyph name="daggerdbl" format="2">
  <advance width="600"/>
  <unicode hex="2021"/>
  <outline>
    <contour>
      <point x="264" y="193" type="line"/>
      <point x="336" y="193" type="line"/>
      <point x="336" y="700" type="line"/>
      <point x="264" y="700" type="line"/>
    </contour>
    <contour>
      <point x="132" y="576" type="line"/>
      <point x="132" y="509" type="line"/>
      <point x="468" y="509" type="line"/>
      <point x="468" y="576" type="line"/>
    </contour>
    <contour>
      <point x="132" y="397" type="line"/>
      <point x="132" y="330" type="line"/>
      <point x="468" y="330" type="line"/>
      <point x="468" y="397" type="line"/>
    </contour>
  </outline>
</glyph>
<glyph name="ellipsis" format="2">
  <advance width="600"/>
  <unicode hex="2026"/>
  <outline>
    <contour>
      <point x="50" y="119" type="line"/>
      <point x="50" y="0" type="line"/>
      <point x="150" y="0" type="line"/>
      <point x="150" y="119" type="line"/>
    </contour>
    <contour>
      <point x="250" y="119" type="line"/>
      <point x="250" y="0" type="line"/>
      <point x="350" y="0" type="line"/>
      <point x="350" y="119" type="line"/>
    </contour>
    <contour>
      <point x="450" y="119" type="line"/>
      <point x="450" y="0" type="line"/>
      <point x="550" y="0" type="line"/>
      <point x="550" y="119" type="line"/>
    </contour>
  </outline>
</glyph>
<glyph name="perthousand" format="2">
  <advance width="600"/>
  <unicode hex="2030"/>
  <outline>
    <contour>
      <point x="21" y="190" type="line"/>
      <point x="579" y="551" type="line"/>
      <point x="579" y="621" type="line"/>
      <point x="21" y="260" type="line"/>
    </contour>
    <contour>
      <point x="21" y="554" type="curve" smooth="yes"/>
      <point x="21" y="464"/>
      <point x="68" y="402"/>
      <point x="145" y="402" type="curve" smooth="yes"/>
      <point x="220" y="402"/>
      <point x="268" y="465"/>
      <point x="268" y="554" type="curve" smooth="yes"/>
      <point x="268" y="642"/>
      <point x="220" y="705"/>
      <point x="145" y="705" type="curve" smooth="yes"/>
      <point x="68" y="705"/>
      <point x="21" y="642"/>
    </contour>
    <contour>
      <point x="84" y="554" type="curve" smooth="yes"/>
      <point x="84" y="615"/>
      <point x="109" y="648"/>
      <point x="145" y="648" type="curve" smooth="yes"/>
      <point x="179" y="648"/>
      <point x="205" y="614"/>
      <point x="205" y="554" type="curve" smooth="yes"/>
      <point x="205" y="491"/>
      <point x="179" y="459"/>
      <point x="145" y="459" type="curve" smooth="yes"/>
      <point x="109" y="459"/>
      <point x="84" y="491"/>
    </contour>
    <contour>
      <point x="113" y="128" type="curve" smooth="yes"/>
      <point x="113" y="50"/>
      <point x="154" y="-5"/>
      <point x="222" y="-5" type="curve" smooth="yes"/>
      <point x="290" y="-5"/>
      <point x="333" y="50"/>
      <point x="333" y="128" type="curve" smooth="yes"/>
      <point x="333" y="205"/>
      <point x="290" y="262"/>
      <point x="222" y="262" type="curve" smooth="yes"/>
      <point x="154" y="262"/>
      <point x="113" y="205"/>
    </contour>
    <contour>
      <point x="176" y="128" type="curve" smooth="yes"/>
      <point x="176" y="178"/>
      <point x="195" y="205"/>
      <point x="222" y="205" type="curve" smooth="yes"/>
      <point x="249" y="205"/>
      <point x="270" y="178"/>
      <point x="270" y="128" type="curve" smooth="yes"/>
      <point x="270" y="77"/>
      <point x="249" y="52"/>
      <point x="222" y="52" type="curve" smooth="yes"/>
      <point x="195" y="52"/>
      <point x="176" y="77"/>
    </contour>
    <contour>
      <point x="366" y="128" type="curve" smooth="yes"/>
      <point x="366" y="50"/>
      <point x="408" y="-5"/>
      <point x="475" y="-5" type="curve" smooth="yes"/>
      <point x="543" y="-5"/>
      <point x="586" y="50"/>
      <point x="586" y="128" type="curve" smooth="yes"/>
      <point x="586" y="205"/>
      <point x="543" y="262"/>
      <point x="475" y="262" type="curve" smooth="yes"/>
      <point x="408" y="262"/>
      <point x="366" y="205"/>
    </contour>
    <contour>
      <point x="429" y="128" type="curve" smooth="yes"/>
      <point x="429" y="178"/>
      <point x="449" y="205"/>
      <point x="475" y="205" type="curve" smooth="yes"/>
      <point x="502" y="205"/>
      <point x="523" y="178"/>
      <point x="523" y="128" type="curve" smooth="yes"/>
      <point x="523" y="77"/>
      <point x="502" y="52"/>
      <point x="475" y="52" type="curve" smooth="yes"/>
      <point x="449" y="52"/>
      <point x="429" y="77"/>
    </contour>
  </outline>
</glyph>
<glyph name="minute" format="2">
  <advance width="600"/>
  <unicode hex="2032"/>
  <outline>
    <contour>
      <point x="263" y="700" type="line"/>
      <point x="213" y="384" type="line"/>
      <point x="287" y="384" type="line"/>
      <point x="387" y="700" type="line"/>
    </contour>
  </outline>
</glyph>
<glyph name="second" format="2">
  <advance width="600"/>
  <unicode hex="2033"/>
  <outline>
    <contour>
      <point x="176" y="700" type="line"/>
      <point x="126" y="384" type="line"/>
      <point x="200" y="384" type="line"/>
      <point x="300" y="700" type="line"/>
    </contour>
    <contour>
      <point x="350" y="700" type="line"/>
      <point x="300" y="384" type="line"/>
      <point x="374" y="384" type="line"/>
      <point x="474" y="700" type="line"/>
    </contour>
  </outline>
</glyph>
<glyph name="guilsinglleft" format="2">
  <advance width="600"/>
  <unicode hex="2039"/>
  <outline>
    <contour>
      <point x="433" y="450" type="line"/>
      <point x="331" y="450" type="line"/>
      <point x="167" y="276" type="line"/>
      <point x="167" y="234" type="line"/>
      <point x="331" y="60" type="line"/>
      <point x="433" y="60" type="line"/>
      <point x="226" y="280" type="line"/>
      <point x="226" y="230" type="line"/>
    </contour>
  </outline>
</glyph>
<glyph name="guilsinglright" format="2">
  <advance width="600"/>
  <unicode hex="203A"/>
  <outline>
    <contour>
      <point x="167" y="60" type="line"/>
      <point x="269" y="60" type="line"/>
      <point x="433" y="234" type="line"/>
      <point x="433" y="276" type="line"/>
      <point x="269" y="450" type="line"/>
      <point x="167" y="450" type="line"/>
      <point x="374" y="230" type="line"/>
      <point x="374" y="280" type="line"/>
    </contour>
  </outline>
</glyph>
<glyph name="interrobang" format="2">
  <advance width="600"/>
  <unicode hex="203D"/>
  <outline>
    <contour>
      <point x="270" y="227" type="line"/>
      <point x="341" y="227" type="line"/>
      <point x="341" y="238" type="line" smooth="yes"/>
      <point x="341" y="282"/>
      <point x="363" y="317"/>
      <point x="410" y="348" type="curve" smooth="yes"/>
      <point x="490" y="401"/>
      <point x="520" y="454"/>
      <point x="520" y="528" type="curve" smooth="yes"/>
      <point x="520" y="638"/>
      <point x="429" y="712"/>
      <point x="299" y="712" type="curve" smooth="yes"/>
      <point x="169" y="712"/>
      <point x="81" y="645"/>
      <point x="57" y="538" type="curve"/>
      <point x="145" y="515" type="line"/>
      <point x="165" y="589"/>
      <point x="205" y="635"/>
      <point x="298" y="635" type="curve" smooth="yes"/>
      <point x="379" y="635"/>
      <point x="429" y="589"/>
      <point x="429" y="528" type="curve" smooth="yes"/>
      <point x="429" y="473"/>
      <point x="412" y="444"/>
      <point x="353" y="399" type="curve" smooth="yes"/>
      <point x="289" y="350"/>
      <point x="270" y="320"/>
      <point x="270" y="245" type="curve" smooth="yes"/>
    </contour>
    <contour>
      <point x="347" y="700" type="line"/>
      <point x="248" y="700" type="line"/>
      <point x="261" y="227" type="line"/>
      <point x="324" y="227" type="line"/>
    </contour>
    <contour>
      <point x="248" y="124" type="line"/>
      <point x="248" y="0" type="line"/>
      <point x="353" y="0" type="line"/>
      <point x="353" y="124" type="line"/>
    </contour>
  </outline>
</glyph>
<glyph name="fraction" format="2">
  <advance width="600"/>
  <unicode hex="2044"/>
  <outline>
    <contour>
      <point x="39" y="0" type="line"/>
      <point x="114" y="0" type="line"/>
      <point x="561" y="700" type="line"/>
      <point x="486" y="700" type="line"/>
    </contour>
  </outline>
</glyph>
<glyph name="naira" format="2">
  <advance width="600"/>
  <unicode hex="20A6"/>
  <outline>
    <contour>
      <point x="461" y="40" type="line"/>
      <point x="216" y="700" type="line"/>
      <point x="107" y="700" type="line"/>
      <point x="107" y="0" type="line"/>
      <point x="180" y="0" type="line"/>
      <point x="180" y="657" type="line"/>
      <point x="158" y="657" type="line"/>
      <point x="401" y="0" type="line"/>
      <point x="490" y="0" type="line"/>
      <point x="490" y="700" type="line"/>
      <point x="417" y="699" type="line"/>
      <point x="417" y="39" type="line"/>
    </contour>
    <contour>
      <point x="40" y="255" type="line"/>
      <point x="329" y="255" type="line"/>
      <point x="310" y="325" type="line"/>
      <point x="40" y="325" type="line"/>
    </contour>
    <contour>
      <point x="453" y="255" type="line"/>
      <point x="561" y="255" type="line"/>
      <point x="561" y="325" type="line"/>
      <point x="453" y="325" type="line"/>
    </contour>
    <contour>
      <point x="293" y="400" type="line"/>
      <point x="561" y="400" type="line"/>
      <point x="561" y="470" type="line"/>
      <point x="266" y="470" type="line"/>
    </contour>
    <contour>
      <point x="40" y="400" type="line"/>
      <point x="146" y="400" type="line"/>
      <point x="146" y="470" type="line"/>
      <point x="40" y="470" type="line"/>
    </contour>
  </outline>
</glyph>
<glyph name="guarani" format="2">
  <advance width="600"/>
  <unicode hex="20B2"/>
  <outline>
    <contour>
      <point x="318" y="712" type="curve" smooth="yes"/>
      <point x="168" y="712"/>
      <point x="69" y="569"/>
      <point x="69" y="350" type="curve" smooth="yes"/>
      <point x="69" y="131"/>
      <point x="162" y="-12"/>
      <point x="312" y="-12" type="curve" smooth="yes"/>
      <point x="400" y="-12"/>
      <point x="460" y="50"/>
      <point x="475" y="144" type="curve"/>
      <point x="456" y="144" type="line"/>
      <point x="456" y="0" type="line"/>
      <point x="529" y="0" type="line"/>
      <point x="529" y="367" type="line"/>
      <point x="382" y="367" type="line"/>
      <point x="382" y="295" type="line"/>
      <point x="500" y="295" type="line"/>
      <point x="457" y="311" type="line"/>
      <point x="457" y="290" type="line" smooth="yes"/>
      <point x="457" y="167"/>
      <point x="408" y="64"/>
      <point x="321" y="64" type="curve" smooth="yes"/>
      <point x="216" y="64"/>
      <point x="160" y="174"/>
      <point x="160" y="350" type="curve" smooth="yes"/>
      <point x="160" y="526"/>
      <point x="216" y="636"/>
      <point x="318" y="636" type="curve" smooth="yes"/>
      <point x="397" y="636"/>
      <point x="436" y="564"/>
      <point x="449" y="483" type="curve"/>
      <point x="528" y="499" type="line"/>
      <point x="506" y="619"/>
      <point x="436" y="712"/>
    </contour>
    <contour>
      <point x="273" y="-112" type="line"/>
      <point x="340" y="-112" type="line"/>
      <point x="340" y="797" type="line"/>
      <point x="273" y="797" type="line"/>
    </contour>
  </outline>
</glyph>
<glyph name="cedi" format="2">
  <advance width="600"/>
  <unicode hex="20B5"/>
  <outline>
    <contour>
      <point x="542" y="486" type="line"/>
      <point x="516" y="620"/>
      <point x="445" y="712"/>
      <point x="323" y="712" type="curve" smooth="yes"/>
      <point x="169" y="712"/>
      <point x="71" y="569"/>
      <point x="71" y="350" type="curve" smooth="yes"/>
      <point x="71" y="131"/>
      <point x="169" y="-12"/>
      <point x="323" y="-12" type="curve" smooth="yes"/>
      <point x="445" y="-12"/>
      <point x="519" y="81"/>
      <point x="543" y="216" type="curve"/>
      <point x="463" y="232" type="line"/>
      <point x="448" y="142"/>
      <point x="408" y="64"/>
      <point x="323" y="64" type="curve" smooth="yes"/>
      <point x="217" y="64"/>
      <point x="161" y="174"/>
      <point x="161" y="350" type="curve" smooth="yes"/>
      <point x="161" y="526"/>
      <point x="217" y="636"/>
      <point x="323" y="636" type="curve" smooth="yes"/>
      <point x="408" y="636"/>
      <point x="447" y="561"/>
      <point x="462" y="470" type="curve"/>
    </contour>
    <contour>
      <point x="283" y="-112" type="line"/>
      <point x="351" y="-112" type="line"/>
      <point x="351" y="797" type="line"/>
      <point x="283" y="797" type="line"/>
    </contour>
  </outline>
</glyph>
<glyph name="trademark" format="2">
  <advance width="600"/>
  <unicode hex="2122"/>
  <outline>
    <contour>
      <point x="96" y="678" type="line"/>
      <point x="158" y="678" type="line"/>
      <point x="159" y="357" type="line"/>
      <point x="96" y="357" type="line"/>
    </contour>
    <contour>
      <point x="18" y="643" type="line"/>
      <point x="18" y="700" type="line"/>
      <point x="236" y="700" type="line"/>
      <point x="236" y="643" type="line"/>
    </contour>
    <contour>
      <point x="323" y="658" type="line"/>
      <point x="406" y="447" type="line"/>
      <point x="432" y="447" type="line"/>
      <point x="515" y="657" type="line"/>
      <point x="496" y="657" type="line"/>
      <point x="496" y="357" type="line"/>
      <point x="556" y="357" type="line"/>
      <point x="556" y="700" type="line"/>
      <point x="481" y="700" type="line"/>
      <point x="419" y="539" type="line"/>
      <point x="426" y="530" type="line"/>
      <point x="360" y="700" type="line"/>
      <point x="281" y="700" type="line"/>
      <point x="281" y="357" type="line"/>
      <point x="339" y="357" type="line"/>
      <point x="339" y="658" type="line"/>
    </contour>
  </outline>
</glyph>
<glyph name="onetenth" format="2">
  <advance width="600"/>
  <unicode hex="2152"/>
  <outline>
    <contour>
      <point x="274" y="274" type="line"/>
      <point x="274" y="226"/>
      <point x="261" y="212"/>
      <point x="200" y="212" type="curve"/>
      <point x="200" y="163" type="line"/>
      <point x="306" y="163" type="line"/>
      <point x="268" y="205" type="line"/>
      <point x="268" y="0" type="line"/>
      <point x="333" y="0" type="line"/>
      <point x="333" y="274" type="line"/>
    </contour>
    <contour>
      <point x="473" y="278" type="curve" smooth="yes"/>
      <point x="407" y="278"/>
      <point x="366" y="224"/>
      <point x="366" y="137" type="curve" smooth="yes"/>
      <point x="366" y="50"/>
      <point x="407" y="-5"/>
      <point x="473" y="-5" type="curve" smooth="yes"/>
      <point x="539" y="-5"/>
      <point x="581" y="50"/>
      <point x="581" y="137" type="curve" smooth="yes"/>
      <point x="581" y="224"/>
      <point x="539" y="278"/>
    </contour>
    <contour>
      <point x="473" y="48" type="curve" smooth="yes"/>
      <point x="444" y="48"/>
      <point x="428" y="81"/>
      <point x="428" y="137" type="curve" smooth="yes"/>
      <point x="428" y="193"/>
      <point x="444" y="226"/>
      <point x="473" y="226" type="curve" smooth="yes"/>
      <point x="503" y="226"/>
      <point x="518" y="193"/>
      <point x="518" y="137" type="curve" smooth="yes"/>
      <point x="518" y="81"/>
      <point x="503" y="48"/>
    </contour>
    <contour>
      <point x="106" y="700" type="line"/>
      <point x="106" y="646"/>
      <point x="90" y="629"/>
      <point x="20" y="629" type="curve"/>
      <point x="20" y="580" type="line"/>
      <point x="138" y="580" type="line"/>
      <point x="98" y="621" type="line"/>
      <point x="98" y="386" type="line"/>
      <point x="165" y="386" type="line"/>
      <point x="165" y="700" type="line"/>
    </contour>
    <contour>
      <point x="0" y="0" type="line"/>
      <point x="69" y="0" type="line"/>
      <point x="430" y="700" type="line"/>
      <point x="361" y="700" type="line"/>
    </contour>
  </outline>
</glyph>
<glyph name="arrowup" format="2">
  <advance width="600"/>
  <unicode hex="2191"/>
  <outline>
    <contour>
      <point x="343" y="88" type="line"/>
      <point x="343" y="524" type="line"/>
      <point x="257" y="524" type="line"/>
      <point x="257" y="88" type="line"/>
    </contour>
    <contour>
      <point x="300" y="612" type="line"/>
      <point x="46" y="358" type="line"/>
      <point x="106" y="298" type="line"/>
      <point x="300" y="492" type="line"/>
      <point x="494" y="298" type="line"/>
      <point x="554" y="358" type="line"/>
    </contour>
  </outline>
</glyph>
<glyph name="circlewhite" format="2">
  <advance width="600"/>
  <unicode hex="25CB"/>
  <outline>
    <contour>
      <point x="300" y="65" type="curve" smooth="yes"/>
      <point x="459" y="65"/>
      <point x="581" y="189"/>
      <point x="581" y="350" type="curve" smooth="yes"/>
      <point x="581" y="511"/>
      <point x="459" y="635"/>
      <point x="300" y="635" type="curve" smooth="yes"/>
      <point x="141" y="635"/>
      <point x="19" y="511"/>
      <point x="19" y="350" type="curve" smooth="yes"/>
      <point x="19" y="189"/>
      <point x="141" y="65"/>
    </contour>
    <contour>
      <point x="300" y="111" type="curve" smooth="yes"/>
      <point x="168" y="111"/>
      <point x="69" y="213"/>
      <point x="69" y="350" type="curve" smooth="yes"/>
      <point x="69" y="487"/>
      <point x="168" y="589"/>
      <point x="300" y="589" type="curve" smooth="yes"/>
      <point x="432" y="589"/>
      <point x="531" y="487"/>
      <point x="531" y="350" type="curve" smooth="yes"/>
      <point x="531" y="213"/>
      <point x="432" y="111"/>
    </contour>
  </outline>
</glyph>
<glyph name="circleblack" format="2">
  <advance width="600"/>
  <unicode hex="25CF"/>
  <outline>
    <contour>
      <point x="19" y="350" type="curve" smooth="yes"/>
      <point x="19" y="189"/>
      <point x="141" y="65"/>
      <point x="300" y="65" type="curve" smooth="yes"/>
      <point x="459" y="65"/>
      <point x="581" y="189"/>
      <point x="581" y="350" type="curve" smooth="yes"/>
      <point x="581" y="511"/>
      <point x="459" y="635"/>
      <point x="300" y="635" type="curve" smooth="yes"/>
      <point x="141" y="635"/>
      <point x="19" y="511"/>
    </contour>
  </outline>
</glyph>
<glyph name="onesanscircled" format="2">
  <advance width="600"/>
  <unicode hex="2780"/>
  <outline>
    <contour>
      <point x="287" y="507" type="line"/>
      <point x="287" y="453"/>
      <point x="272" y="436"/>
      <point x="202" y="436" type="curve"/>
      <point x="202" y="387" type="line"/>
      <point x="280" y="387" type="line"/>
      <point x="280" y="193" type="line"/>
      <point x="347" y="193" type="line"/>
      <point x="347" y="507" type="line"/>
    </contour>
    <component base="circlewhite"/>
  </outline>
</glyph>
<glyph name="twosanscircled" format="2">
  <advance width="600"/>
  <unicode hex="2781"/>
  <outline>
    <contour>
      <point x="415" y="193" type="line"/>
      <point x="415" y="250" type="line"/>
      <point x="283" y="250" type="line"/>
      <point x="364" y="313"/>
      <point x="413" y="354"/>
      <point x="413" y="411" type="curve" smooth="yes"/>
      <point x="413" y="458"/>
      <point x="382" y="512"/>
      <point x="302" y="512" type="curve" smooth="yes"/>
      <point x="225" y="512"/>
      <point x="189" y="463"/>
      <point x="189" y="416" type="curve" smooth="yes"/>
      <point x="189" y="401"/>
      <point x="193" y="388"/>
      <point x="200" y="376" type="curve"/>
      <point x="263" y="383" type="line"/>
      <point x="257" y="393"/>
      <point x="254" y="403"/>
      <point x="254" y="412" type="curve" smooth="yes"/>
      <point x="254" y="436"/>
      <point x="271" y="457"/>
      <point x="300" y="457" type="curve" smooth="yes"/>
      <point x="328" y="457"/>
      <point x="346" y="438"/>
      <point x="346" y="409" type="curve" smooth="yes"/>
      <point x="346" y="366"/>
      <point x="302" y="339"/>
      <point x="192" y="248" type="curve"/>
      <point x="192" y="193" type="line"/>
    </contour>
    <component base="circlewhite"/>
  </outline>
</glyph>
<glyph name="threesanscircled" format="2">
  <advance width="600"/>
  <unicode hex="2782"/>
  <outline>
    <contour>
      <point x="185" y="295" type="line"/>
      <point x="180" y="224"/>
      <point x="233" y="189"/>
      <point x="302" y="189" type="curve" smooth="yes"/>
      <point x="374" y="189"/>
      <point x="419" y="228"/>
      <point x="419" y="285" type="curve" smooth="yes"/>
      <point x="419" y="323"/>
      <point x="398" y="348"/>
      <point x="363" y="357" type="curve"/>
      <point x="388" y="366"/>
      <point x="411" y="384"/>
      <point x="411" y="422" type="curve" smooth="yes"/>
      <point x="411" y="470"/>
      <point x="374" y="512"/>
      <point x="303" y="512" type="curve" smooth="yes"/>
      <point x="235" y="512"/>
      <point x="182" y="473"/>
      <point x="188" y="407" type="curve"/>
      <point x="255" y="411" type="line"/>
      <point x="251" y="439"/>
      <point x="272" y="459"/>
      <point x="301" y="459" type="curve" smooth="yes"/>
      <point x="330" y="459"/>
      <point x="345" y="439"/>
      <point x="345" y="419" type="curve" smooth="yes"/>
      <point x="345" y="396"/>
      <point x="328" y="381"/>
      <point x="301" y="381" type="curve" smooth="yes"/>
      <point x="277" y="381" type="line"/>
      <point x="277" y="329" type="line"/>
      <point x="301" y="329" type="line" smooth="yes"/>
      <point x="335" y="329"/>
      <point x="353" y="312"/>
      <point x="353" y="287" type="curve" smooth="yes"/>
      <point x="353" y="260"/>
      <point x="334" y="242"/>
      <point x="302" y="242" type="curve" smooth="yes"/>
      <point x="267" y="242"/>
      <point x="247" y="264"/>
      <point x="251" y="291" type="curve"/>
    </contour>
    <component base="circlewhite"/>
  </outline>
</glyph>
<glyph name="foursanscircled" format="2">
  <advance width="600"/>
  <unicode hex="2783"/>
  <outline>
    <contour>
      <point x="369" y="507" type="line"/>
      <point x="299" y="507" type="line"/>
      <point x="160" y="319" type="line"/>
      <point x="160" y="265" type="line"/>
      <point x="305" y="265" type="line"/>
      <point x="305" y="193" type="line"/>
      <point x="369" y="193" type="line"/>
      <point x="369" y="265" type="line"/>
      <point x="422" y="265" type="line"/>
      <point x="422" y="318" type="line"/>
      <point x="369" y="318" type="line"/>
    </contour>
    <contour>
      <point x="224" y="318" type="line"/>
      <point x="305" y="427" type="line"/>
      <point x="305" y="318" type="line"/>
    </contour>
    <component base="circlewhite"/>
  </outline>
</glyph>
<glyph name="fivesanscircled" format="2">
  <advance width="600"/>
  <unicode hex="2784"/>
  <outline>
    <contour>
      <point x="182" y="294" type="line"/>
      <point x="184" y="227"/>
      <point x="230" y="189"/>
      <point x="299" y="189" type="curve" smooth="yes"/>
      <point x="370" y="189"/>
      <point x="412" y="232"/>
      <point x="412" y="299" type="curve" smooth="yes"/>
      <point x="412" y="360"/>
      <point x="378" y="406"/>
      <point x="318" y="406" type="curve" smooth="yes"/>
      <point x="293" y="406"/>
      <point x="273" y="398"/>
      <point x="259" y="385" type="curve"/>
      <point x="264" y="451" type="line"/>
      <point x="402" y="451" type="line"/>
      <point x="402" y="507" type="line"/>
      <point x="209" y="507" type="line"/>
      <point x="194" y="328" type="line"/>
      <point x="256" y="323" type="line"/>
      <point x="264" y="343"/>
      <point x="279" y="356"/>
      <point x="300" y="356" type="curve" smooth="yes"/>
      <point x="328" y="356"/>
      <point x="345" y="333"/>
      <point x="345" y="299" type="curve" smooth="yes"/>
      <point x="345" y="263"/>
      <point x="326" y="241"/>
      <point x="298" y="241" type="curve" smooth="yes"/>
      <point x="271" y="241"/>
      <point x="254" y="260"/>
      <point x="254" y="286" type="curve"/>
    </contour>
    <component base="circlewhite"/>
  </outline>
</glyph>
<glyph name="sixsanscircled" format="2">
  <advance width="600"/>
  <unicode hex="2785"/>
  <outline>
    <contour>
      <point x="295" y="189" type="curve" smooth="yes"/>
      <point x="369" y="189"/>
      <point x="409" y="239"/>
      <point x="409" y="298" type="curve" smooth="yes"/>
      <point x="409" y="362"/>
      <point x="367" y="402"/>
      <point x="313" y="402" type="curve" smooth="yes"/>
      <point x="285" y="402"/>
      <point x="262" y="392"/>
      <point x="246" y="374" type="curve"/>
      <point x="250" y="429"/>
      <point x="276" y="458"/>
      <point x="305" y="458" type="curve" smooth="yes"/>
      <point x="325" y="458"/>
      <point x="339" y="445"/>
      <point x="339" y="424" type="curve"/>
      <point x="404" y="417" type="line"/>
      <point x="402" y="472"/>
      <point x="369" y="512"/>
      <point x="306" y="512" type="curve" smooth="yes"/>
      <point x="229" y="512"/>
      <point x="177" y="445"/>
      <point x="177" y="341" type="curve" smooth="yes"/>
      <point x="177" y="293"/>
      <point x="184" y="260"/>
      <point x="201" y="235" type="curve" smooth="yes"/>
      <point x="222" y="205"/>
      <point x="253" y="189"/>
    </contour>
    <contour>
      <point x="295" y="240" type="curve" smooth="yes"/>
      <point x="265" y="240"/>
      <point x="247" y="265"/>
      <point x="247" y="296" type="curve" smooth="yes"/>
      <point x="247" y="327"/>
      <point x="265" y="352"/>
      <point x="295" y="352" type="curve" smooth="yes"/>
      <point x="325" y="352"/>
      <point x="343" y="327"/>
      <point x="343" y="296" type="curve" smooth="yes"/>
      <point x="343" y="265"/>
      <point x="325" y="240"/>
    </contour>
    <component base="circlewhite"/>
  </outline>
</glyph>
<glyph name="sevensanscircled" format="2">
  <advance width="600"/>
  <unicode hex="2786"/>
  <outline>
    <contour>
      <point x="190" y="507" type="line"/>
      <point x="190" y="390" type="line"/>
      <point x="253" y="390" type="line"/>
      <point x="253" y="452" type="line"/>
      <point x="350" y="452" type="line"/>
      <point x="298" y="371"/>
      <point x="250" y="286"/>
      <point x="247" y="193" type="curve"/>
      <point x="317" y="193" type="line"/>
      <point x="324" y="298"/>
      <point x="374" y="385"/>
      <point x="424" y="471" type="curve"/>
      <point x="424" y="507" type="line"/>
    </contour>
    <component base="circlewhite"/>
  </outline>
</glyph>
<glyph name="eightsanscircled" format="2">
  <advance width="600"/>
  <unicode hex="2787"/>
  <outline>
    <contour>
      <point x="181" y="285" type="curve" smooth="yes"/>
      <point x="181" y="230"/>
      <point x="229" y="189"/>
      <point x="300" y="189" type="curve" smooth="yes"/>
      <point x="371" y="189"/>
      <point x="419" y="230"/>
      <point x="419" y="285" type="curve" smooth="yes"/>
      <point x="419" y="324"/>
      <point x="395" y="350"/>
      <point x="362" y="361" type="curve"/>
      <point x="389" y="370"/>
      <point x="409" y="391"/>
      <point x="409" y="426" type="curve" smooth="yes"/>
      <point x="409" y="475"/>
      <point x="368" y="512"/>
      <point x="300" y="512" type="curve" smooth="yes"/>
      <point x="232" y="512"/>
      <point x="191" y="475"/>
      <point x="191" y="426" type="curve" smooth="yes"/>
      <point x="191" y="391"/>
      <point x="211" y="370"/>
      <point x="238" y="361" type="curve"/>
      <point x="205" y="350"/>
      <point x="181" y="324"/>
    </contour>
    <contour>
      <point x="353" y="288" type="curve" smooth="yes"/>
      <point x="353" y="259"/>
      <point x="332" y="239"/>
      <point x="300" y="239" type="curve" smooth="yes"/>
      <point x="268" y="239"/>
      <point x="247" y="259"/>
      <point x="247" y="288" type="curve" smooth="yes"/>
      <point x="247" y="317"/>
      <point x="268" y="335"/>
      <point x="300" y="335" type="curve" smooth="yes"/>
      <point x="332" y="335"/>
      <point x="353" y="317"/>
    </contour>
    <contour>
      <point x="346" y="423" type="curve" smooth="yes"/>
      <point x="346" y="400"/>
      <point x="327" y="384"/>
      <point x="300" y="384" type="curve" smooth="yes"/>
      <point x="273" y="384"/>
      <point x="254" y="400"/>
      <point x="254" y="423" type="curve" smooth="yes"/>
      <point x="254" y="446"/>
      <point x="273" y="461"/>
      <point x="300" y="461" type="curve" smooth="yes"/>
      <point x="327" y="461"/>
      <point x="346" y="446"/>
    </contour>
    <component base="circlewhite"/>
  </outline>
</glyph>
<glyph name="ninesanscircled" format="2">
  <advance width="600"/>
  <unicode hex="2788"/>
  <outline>
    <contour>
      <point x="296" y="512" type="curve" smooth="yes"/>
      <point x="221" y="512"/>
      <point x="182" y="463"/>
      <point x="182" y="402" type="curve" smooth="yes"/>
      <point x="182" y="338"/>
      <point x="226" y="299"/>
      <point x="281" y="299" type="curve" smooth="yes"/>
      <point x="308" y="299"/>
      <point x="331" y="308"/>
      <point x="347" y="326" type="curve"/>
      <point x="344" y="277"/>
      <point x="330" y="239"/>
      <point x="294" y="239" type="curve" smooth="yes"/>
      <point x="271" y="239"/>
      <point x="256" y="253"/>
      <point x="254" y="278" type="curve"/>
      <point x="183" y="288" type="line"/>
      <point x="185" y="228"/>
      <point x="225" y="189"/>
      <point x="292" y="189" type="curve" smooth="yes"/>
      <point x="377" y="189"/>
      <point x="414" y="247"/>
      <point x="414" y="357" type="curve" smooth="yes"/>
      <point x="414" y="408"/>
      <point x="408" y="439"/>
      <point x="390" y="465" type="curve" smooth="yes"/>
      <point x="371" y="495"/>
      <point x="337" y="512"/>
    </contour>
    <contour>
      <point x="296" y="349" type="curve" smooth="yes"/>
      <point x="270" y="349"/>
      <point x="248" y="369"/>
      <point x="248" y="404" type="curve" smooth="yes"/>
      <point x="248" y="440"/>
      <point x="270" y="460"/>
      <point x="296" y="460" type="curve" smooth="yes"/>
      <point x="323" y="460"/>
      <point x="344" y="440"/>
      <point x="344" y="404" type="curve" smooth="yes"/>
      <point x="344" y="369"/>
      <point x="323" y="349"/>
    </contour>
    <component base="circlewhite"/>
  </outline>
</glyph>
<glyph name="onesansnegativecircled" format="2">
  <advance width="600"/>
  <unicode hex="278A"/>
  <outline>
    <contour>
      <point x="291" y="507" type="curve"/>
      <point x="344" y="507" type="line"/>
      <point x="344" y="193" type="line"/>
      <point x="284" y="193" type="line"/>
      <point x="284" y="393" type="line"/>
      <point x="205" y="393" type="line"/>
      <point x="205" y="436" type="line"/>
      <point x="276" y="436"/>
      <point x="291" y="453"/>
    </contour>
    <component base="circleblack"/>
  </outline>
</glyph>
<glyph name="twosansnegativecircled" format="2">
  <advance width="600"/>
  <unicode hex="278B"/>
  <outline>
    <contour>
      <point x="412" y="193" type="line"/>
      <point x="195" y="193" type="line"/>
      <point x="195" y="242" type="line"/>
      <point x="304" y="336"/>
      <point x="350" y="363"/>
      <point x="350" y="409" type="curve" smooth="yes"/>
      <point x="350" y="441"/>
      <point x="330" y="461"/>
      <point x="300" y="461" type="curve" smooth="yes"/>
      <point x="269" y="461"/>
      <point x="250" y="438"/>
      <point x="250" y="413" type="curve" smooth="yes"/>
      <point x="250" y="404"/>
      <point x="253" y="394"/>
      <point x="259" y="384" type="curve"/>
      <point x="203" y="377" type="line"/>
      <point x="197" y="389"/>
      <point x="193" y="401"/>
      <point x="193" y="417" type="curve" smooth="yes"/>
      <point x="193" y="463"/>
      <point x="228" y="512"/>
      <point x="301" y="512" type="curve" smooth="yes"/>
      <point x="379" y="512"/>
      <point x="409" y="459"/>
      <point x="409" y="411" type="curve" smooth="yes"/>
      <point x="409" y="354"/>
      <point x="359" y="312"/>
      <point x="276" y="245" type="curve"/>
      <point x="412" y="245" type="line"/>
    </contour>
    <component base="circleblack"/>
  </outline>
</glyph>
<glyph name="threesansnegativecircled" format="2">
  <advance width="600"/>
  <unicode hex="278C"/>
  <outline>
    <contour>
      <point x="188" y="293" type="curve"/>
      <point x="248" y="289" type="line"/>
      <point x="244" y="261"/>
      <point x="264" y="237"/>
      <point x="302" y="237" type="curve" smooth="yes"/>
      <point x="336" y="237"/>
      <point x="357" y="257"/>
      <point x="357" y="285" type="curve" smooth="yes"/>
      <point x="357" y="311"/>
      <point x="338" y="331"/>
      <point x="301" y="331" type="curve" smooth="yes"/>
      <point x="277" y="331" type="line"/>
      <point x="277" y="379" type="line"/>
      <point x="301" y="379" type="line" smooth="yes"/>
      <point x="330" y="379"/>
      <point x="349" y="396"/>
      <point x="349" y="420" type="curve" smooth="yes"/>
      <point x="349" y="441"/>
      <point x="334" y="464"/>
      <point x="302" y="464" type="curve" smooth="yes"/>
      <point x="270" y="464"/>
      <point x="247" y="443"/>
      <point x="251" y="413" type="curve"/>
      <point x="191" y="409" type="line"/>
      <point x="186" y="474"/>
      <point x="238" y="512"/>
      <point x="303" y="512" type="curve" smooth="yes"/>
      <point x="369" y="512"/>
      <point x="408" y="470"/>
      <point x="408" y="422" type="curve" smooth="yes"/>
      <point x="408" y="385"/>
      <point x="385" y="366"/>
      <point x="360" y="357" type="curve"/>
      <point x="395" y="348"/>
      <point x="416" y="322"/>
      <point x="416" y="285" type="curve" smooth="yes"/>
      <point x="416" y="227"/>
      <point x="370" y="189"/>
      <point x="302" y="189" type="curve" smooth="yes"/>
      <point x="235" y="189"/>
      <point x="183" y="223"/>
    </contour>
    <component base="circleblack"/>
  </outline>
</glyph>
<glyph name="foursansnegativecircled" format="2">
  <advance width="600"/>
  <unicode hex="278D"/>
  <outline>
    <contour>
      <point x="366" y="507" type="line"/>
      <point x="366" y="315" type="line"/>
      <point x="419" y="315" type="line"/>
      <point x="419" y="266" type="line"/>
      <point x="366" y="266" type="line"/>
      <point x="366" y="193" type="line"/>
      <point x="307" y="193" type="line"/>
      <point x="307" y="266" type="line"/>
      <point x="162" y="266" type="line"/>
      <point x="162" y="317" type="line"/>
      <point x="303" y="507" type="line"/>
    </contour>
    <contour>
      <point x="221" y="315" type="line"/>
      <point x="307" y="315" type="line"/>
      <point x="307" y="430" type="line"/>
    </contour>
    <component base="circleblack"/>
  </outline>
</glyph>
<glyph name="fivesansnegativecircled" format="2">
  <advance width="600"/>
  <unicode hex="278E"/>
  <outline>
    <contour>
      <point x="185" y="291" type="curve"/>
      <point x="250" y="284" type="line"/>
      <point x="251" y="257"/>
      <point x="269" y="236"/>
      <point x="298" y="236" type="curve" smooth="yes"/>
      <point x="328" y="236"/>
      <point x="349" y="259"/>
      <point x="349" y="299" type="curve" smooth="yes"/>
      <point x="349" y="337"/>
      <point x="330" y="361"/>
      <point x="300" y="361" type="curve" smooth="yes"/>
      <point x="277" y="361"/>
      <point x="260" y="346"/>
      <point x="252" y="324" type="curve"/>
      <point x="198" y="328" type="line"/>
      <point x="213" y="507" type="line"/>
      <point x="399" y="507" type="line"/>
      <point x="399" y="457" type="line"/>
      <point x="261" y="457" type="line"/>
      <point x="256" y="384" type="line"/>
      <point x="270" y="397"/>
      <point x="290" y="406"/>
      <point x="315" y="406" type="curve" smooth="yes"/>
      <point x="374" y="406"/>
      <point x="408" y="360"/>
      <point x="408" y="299" type="curve" smooth="yes"/>
      <point x="408" y="232"/>
      <point x="366" y="189"/>
      <point x="298" y="189" type="curve" smooth="yes"/>
      <point x="232" y="189"/>
      <point x="188" y="227"/>
    </contour>
    <component base="circleblack"/>
  </outline>
</glyph>
<glyph name="sixsansnegativecircled" format="2">
  <advance width="600"/>
  <unicode hex="278F"/>
  <outline>
    <contour>
      <point x="295" y="189" type="curve" smooth="yes"/>
      <point x="256" y="189"/>
      <point x="224" y="204"/>
      <point x="204" y="233" type="curve" smooth="yes"/>
      <point x="188" y="260"/>
      <point x="180" y="291"/>
      <point x="180" y="341" type="curve" smooth="yes"/>
      <point x="180" y="445"/>
      <point x="232" y="512"/>
      <point x="306" y="512" type="curve" smooth="yes"/>
      <point x="368" y="512"/>
      <point x="399" y="472"/>
      <point x="401" y="420" type="curve"/>
      <point x="343" y="426" type="line"/>
      <point x="343" y="449"/>
      <point x="328" y="463"/>
      <point x="305" y="463" type="curve" smooth="yes"/>
      <point x="274" y="463"/>
      <point x="245" y="430"/>
      <point x="241" y="371" type="curve"/>
      <point x="258" y="391"/>
      <point x="282" y="402"/>
      <point x="310" y="402" type="curve" smooth="yes"/>
      <point x="363" y="402"/>
      <point x="406" y="362"/>
      <point x="406" y="298" type="curve" smooth="yes"/>
      <point x="406" y="239"/>
      <point x="366" y="189"/>
    </contour>
    <contour>
      <point x="295" y="236" type="curve" smooth="yes"/>
      <point x="328" y="236"/>
      <point x="347" y="263"/>
      <point x="347" y="296" type="curve" smooth="yes"/>
      <point x="347" y="329"/>
      <point x="328" y="356"/>
      <point x="295" y="356" type="curve" smooth="yes"/>
      <point x="262" y="356"/>
      <point x="243" y="329"/>
      <point x="243" y="296" type="curve" smooth="yes"/>
      <point x="243" y="263"/>
      <point x="262" y="236"/>
    </contour>
    <component base="circleblack"/>
  </outline>
</glyph>
<glyph name="sevensansnegativecircled" format="2">
  <advance width="600"/>
  <unicode hex="2790"/>
  <outline>
    <contour>
      <point x="194" y="507" type="line"/>
      <point x="422" y="507" type="line"/>
      <point x="422" y="477" type="line"/>
      <point x="373" y="389"/>
      <point x="318" y="297"/>
      <point x="311" y="193" type="curve"/>
      <point x="249" y="193" type="line"/>
      <point x="252" y="286"/>
      <point x="303" y="375"/>
      <point x="355" y="457" type="curve"/>
      <point x="250" y="457" type="line"/>
      <point x="250" y="393" type="line"/>
      <point x="194" y="393" type="line"/>
    </contour>
    <component base="circleblack"/>
  </outline>
</glyph>
<glyph name="eightsansnegativecircled" format="2">
  <advance width="600"/>
  <unicode hex="2791"/>
  <outline>
    <contour>
      <point x="185" y="285" type="curve" smooth="yes"/>
      <point x="185" y="324"/>
      <point x="208" y="350"/>
      <point x="241" y="361" type="curve"/>
      <point x="214" y="370"/>
      <point x="194" y="391"/>
      <point x="194" y="426" type="curve" smooth="yes"/>
      <point x="194" y="475"/>
      <point x="235" y="512"/>
      <point x="300" y="512" type="curve" smooth="yes"/>
      <point x="365" y="512"/>
      <point x="406" y="475"/>
      <point x="406" y="426" type="curve" smooth="yes"/>
      <point x="406" y="391"/>
      <point x="386" y="370"/>
      <point x="359" y="361" type="curve"/>
      <point x="392" y="350"/>
      <point x="415" y="324"/>
      <point x="415" y="285" type="curve" smooth="yes"/>
      <point x="415" y="229"/>
      <point x="368" y="189"/>
      <point x="300" y="189" type="curve" smooth="yes"/>
      <point x="232" y="189"/>
      <point x="185" y="229"/>
    </contour>
    <contour>
      <point x="300" y="382" type="curve" smooth="yes"/>
      <point x="329" y="382"/>
      <point x="350" y="399"/>
      <point x="350" y="424" type="curve" smooth="yes"/>
      <point x="350" y="449"/>
      <point x="329" y="465"/>
      <point x="300" y="465" type="curve" smooth="yes"/>
      <point x="271" y="465"/>
      <point x="250" y="449"/>
      <point x="250" y="424" type="curve" smooth="yes"/>
      <point x="250" y="399"/>
      <point x="271" y="382"/>
    </contour>
    <contour>
      <point x="300" y="337" type="curve" smooth="yes"/>
      <point x="266" y="337"/>
      <point x="243" y="318"/>
      <point x="243" y="287" type="curve" smooth="yes"/>
      <point x="243" y="256"/>
      <point x="266" y="235"/>
      <point x="300" y="235" type="curve" smooth="yes"/>
      <point x="334" y="235"/>
      <point x="357" y="256"/>
      <point x="357" y="287" type="curve" smooth="yes"/>
      <point x="357" y="318"/>
      <point x="334" y="337"/>
    </contour>
    <component base="circleblack"/>
  </outline>
</glyph>
<glyph name="ninesansnegativecircled" format="2">
  <advance width="600"/>
  <unicode hex="2792"/>
  <outline>
    <contour>
      <point x="296" y="512" type="curve" smooth="yes"/>
      <point x="335" y="512"/>
      <point x="368" y="496"/>
      <point x="388" y="465" type="curve" smooth="yes"/>
      <point x="405" y="439"/>
      <point x="411" y="408"/>
      <point x="411" y="357" type="curve" smooth="yes"/>
      <point x="411" y="246"/>
      <point x="374" y="189"/>
      <point x="292" y="189" type="curve" smooth="yes"/>
      <point x="225" y="189"/>
      <point x="188" y="228"/>
      <point x="186" y="285" type="curve"/>
      <point x="250" y="275" type="line"/>
      <point x="252" y="249"/>
      <point x="269" y="235"/>
      <point x="293" y="235" type="curve" smooth="yes"/>
      <point x="333" y="235"/>
      <point x="348" y="273"/>
      <point x="351" y="327" type="curve"/>
      <point x="335" y="308"/>
      <point x="311" y="298"/>
      <point x="285" y="298" type="curve" smooth="yes"/>
      <point x="231" y="298"/>
      <point x="185" y="339"/>
      <point x="185" y="403" type="curve" smooth="yes"/>
      <point x="185" y="462"/>
      <point x="224" y="512"/>
    </contour>
    <contour>
      <point x="296" y="345" type="curve" smooth="yes"/>
      <point x="324" y="345"/>
      <point x="348" y="366"/>
      <point x="348" y="405" type="curve" smooth="yes"/>
      <point x="348" y="443"/>
      <point x="324" y="464"/>
      <point x="296" y="464" type="curve" smooth="yes"/>
      <point x="268" y="464"/>
      <point x="244" y="443"/>
      <point x="244" y="405" type="curve" smooth="yes"/>
      <point x="244" y="366"/>
      <point x="268" y="345"/>
    </contour>
    <component base="circleblack"/>
  </outline>
</glyph>
